<svg xmlns="http://www.w3.org/2000/svg" width="47" height="47" viewBox="0 0 47 47" fill="none">
  <g clip-path="url(#clip0_1008_4873)">
    <rect width="46.0205" height="46.0205" rx="23.0102" transform="matrix(-1 0 0 1 46.9889 0.467285)" fill="#FFE4B8"/>
    <path d="M39.9209 61.0645C42.0823 62.2697 45.1785 46.9637 47.3192 45.7214C49.4599 44.4791 50.4789 41.3388 48.9852 39.3639C48.5088 38.7338 47.8412 38.2728 47.3346 37.6665C46.8281 37.0602 46.491 36.1939 46.8339 35.4815C47.0119 35.1118 47.3431 34.845 47.6282 34.5506C48.8204 33.3189 49.1478 31.0926 47.8634 29.9579C46.2659 28.5469 43.156 29.4439 42.1392 27.5698C41.2156 25.8671 43.1322 23.6164 42.2234 21.9057C41.6125 20.7556 40.079 20.5344 38.7782 20.5472C37.4773 20.5599 35.9779 19.839 35.0628 18.9134C33.434 17.2658 34.5658 14.0815 32.795 12.5883C30.3051 10.4893 29.1738 12.6307 27.607 12.6408C26.1122 12.6509 25.2734 11.7719 24.8633 10.3328C24.6932 9.73549 24.6492 9.09576 24.3477 8.55258C23.2042 6.49018 20.4524 7.56913 19.1267 8.40884C17.8004 9.24854 17.3664 11.2441 15.8663 10.781C15.249 10.5906 14.7457 10.1482 14.1792 9.83788C11.8902 8.58495 8.59593 10.0479 7.98763 12.5883C7.76402 13.5219 7.82019 14.6045 7.15997 15.301C6.16698 16.3476 4.44011 15.7392 3.00574 15.8866C1.35464 16.0564 -0.0834351 17.4753 -0.27684 19.1261C-0.387585 20.073 -0.147552 21.1137 -0.639805 21.9295C-1.51834 23.3867 -3.71891 22.8684 -5.35252 23.3395C-6.68357 23.7235 -7.73643 24.9372 -7.92931 26.3105C-8.17252 28.0425 -7.2463 30.1234 -8.45812 31.3838C-9.04575 31.9949 -9.94867 32.153 -10.7 32.546C-12.0411 33.2478 -12.881 34.8079 -12.7295 36.3154C-12.5965 37.6347 -11.7836 38.9104 -12.0856 40.201C-12.2361 40.8434 -12.6473 41.3887 -12.9276 41.986C-13.5057 43.2161 -13.4962 44.7279 -12.8217 45.9071C-12.1471 47.0868 -10.797 47.8719 -9.4421 47.7849C-8.41415 47.7191 -7.47732 47.1971 -6.48328 46.9271C-4.94187 46.5081 -3.23938 46.7208 -1.84793 47.5058C-1.06848 47.9456 -0.37487 48.5604 0.477699 48.8325C1.8008 49.2553 3.25002 48.7694 4.44647 48.0639C6.03822 47.125 8.10764 61.1297 9.06565 59.5484C10.2738 57.5545 10.5727 54.3015 12.7298 53.422C14.417 52.7345 13.4037 56.9999 14.384 55.4626C14.7645 54.8664 14.8042 54.1238 14.8948 53.422C15.0962 51.8545 15.652 50.2557 16.8368 49.2113C18.0216 48.1668 19.9413 47.8597 21.1855 48.8325C22.8461 50.1305 22.5875 52.8438 24.0182 54.3916C25.3593 55.8419 31.516 52.6388 33.2174 53.6419C34.8473 54.6036 35.7285 56.4177 36.7856 57.9889C37.8427 59.5601 38.0388 61.2607 39.9209 61.0645Z" fill="#232323"/>
    <path d="M32.261 38.0349C30.2477 36.2961 27.8377 36.0139 26.8844 36.0902C25.0922 37.4248 20.3867 39.9797 15.9024 39.5221C10.297 38.9501 7.89464 36.7766 4.69156 40.666C2.12908 43.7776 -0.799458 52.6395 -1.94342 56.6815C5.91179 57.4823 23.75 58.7406 32.261 57.3679C42.8999 55.6519 46.1406 51.4588 42.8999 46.443C40.4978 42.7252 37.6379 42.7252 35.5785 42.7252C35.2353 41.5049 34.2744 39.7737 32.261 38.0349Z" fill="#E44E4E"/>
    <path d="M32.1952 21.0661C30.0903 15.026 23.6245 12.6006 20.8218 12.1812C14.7577 12.9166 11.2697 25.7371 16.3031 30.7705C18.8486 33.316 22.8418 34.5841 26.5025 34.0693C30.1631 33.5545 34.8263 28.6162 32.1952 21.0661Z" fill="#A66537"/>
    <path d="M11.1584 20.3303C13.5598 17.846 16.0496 22.7548 16.3714 22.7548L18.1734 28.4969C14.7839 26.2426 8.45327 23.1288 11.1584 20.3303Z" fill="#A66537"/>
    <path d="M15.0275 24.5708C14.1273 24.2989 13.2841 23.8996 12.5074 23.3682C12.1706 23.1377 12.4894 22.5844 12.8293 22.8173C13.5631 23.319 14.3453 23.6987 15.1962 23.9558C15.5893 24.0738 15.4221 24.6896 15.0275 24.5708Z" fill="#232323"/>
    <path d="M23.2266 21.0985C22.7446 19.9416 21.2784 19.8459 20.1963 20.0473C18.9798 20.2739 18.0402 21.0889 17.8768 22.3347C17.825 22.7291 18.4441 22.7355 18.4954 22.3451C18.7105 20.7049 21.9671 19.6731 22.6894 21.4067C22.8426 21.7734 23.3783 21.4624 23.2266 21.0985Z" fill="#232323"/>
    <path d="M22.6177 20.4043C22.8008 20.1521 22.9404 19.8766 23.0491 19.5849C23.1073 19.4282 22.9874 19.2454 22.8362 19.2022C22.6647 19.1533 22.5126 19.2583 22.4538 19.4158C22.3642 19.6573 22.2364 19.8812 22.0852 20.09C21.9871 20.2256 22.0597 20.4346 22.1943 20.5134C22.3494 20.6049 22.5196 20.5399 22.6177 20.4043Z" fill="#232323"/>
    <path d="M20.6915 19.8785C20.6331 19.6517 20.5746 19.4249 20.5162 19.1982C20.4167 18.8121 19.8171 18.9666 19.9166 19.3527C19.9751 19.5794 20.0335 19.8062 20.0919 20.033C20.1914 20.419 20.791 20.2645 20.6915 19.8785Z" fill="#232323"/>
    <path d="M18.5475 21.08C18.3205 20.8944 18.0814 20.7321 17.8186 20.6019C17.6688 20.5278 17.4845 20.5596 17.3951 20.711C17.315 20.8467 17.3537 21.0605 17.5042 21.1344C17.7177 21.2399 17.9243 21.3643 18.1086 21.5148C18.2377 21.6208 18.4187 21.643 18.5465 21.5162C18.6543 21.4094 18.6775 21.1866 18.5475 21.08Z" fill="#232323"/>
    <circle cx="20.0854" cy="21.8479" r="0.904412" transform="rotate(-14.4506 20.0854 21.8479)" fill="#232323"/>
    <path d="M30.5375 19.7806C30.0555 18.6237 28.5893 18.528 27.5072 18.7294C26.2907 18.956 25.3511 19.7711 25.1877 21.0168C25.1359 21.4113 25.7551 21.4176 25.8063 21.0272C26.0214 19.387 28.9585 18.49 30.0003 20.0889C30.1535 20.4556 30.6892 20.1445 30.5375 19.7806Z" fill="#232323"/>
    <path d="M29.9287 19.0859C30.1117 18.8337 30.2513 18.5583 30.36 18.2665C30.4182 18.1098 30.2984 17.9271 30.1471 17.8839C29.9757 17.8349 29.8235 17.9399 29.7647 18.0975C29.6751 18.3389 29.5473 18.5628 29.3961 18.7716C29.298 18.9072 29.3706 19.1162 29.5052 19.195C29.6603 19.2866 29.8306 19.2215 29.9287 19.0859Z" fill="#232323"/>
    <path d="M28.0023 18.5606C27.9439 18.3338 27.8854 18.1071 27.827 17.8803C27.7275 17.4943 27.1279 17.6488 27.2274 18.0348C27.2859 18.2616 27.3443 18.4883 27.4027 18.7151C27.5022 19.1011 28.1018 18.9466 28.0023 18.5606Z" fill="#232323"/>
    <path d="M25.8584 19.7621C25.6314 19.5765 25.3923 19.4143 25.1295 19.284C24.9797 19.2099 24.7954 19.2417 24.706 19.3931C24.626 19.5288 24.6646 19.7427 24.8152 19.8166C25.0286 19.922 25.2352 20.0464 25.4195 20.1969C25.5486 20.3029 25.7296 20.3252 25.8574 20.1983C25.9652 20.0915 25.9884 19.8687 25.8584 19.7621Z" fill="#232323"/>
    <circle cx="27.2767" cy="20.53" r="0.904412" transform="rotate(-14.4506 27.2767 20.53)" fill="#232323"/>
    <path d="M27.9137 41.6953C26.907 37.8516 25.5114 32.3911 24.9394 30.1413L14.415 25.5654L14.0718 39.3502C19.4484 41.4855 28.9204 45.539 27.9137 41.6953Z" fill="#A66537"/>
    <path d="M28.8395 33.1324C27.4286 34.1048 23.8559 35.1211 19.9166 32.9608C18.8298 32.3649 16.8279 30.9017 16.3703 29.8149" stroke="#232323" stroke-width="0.71003" stroke-linecap="round"/>
    <path d="M44.6457 21.9934C44.9113 21.8168 45.3157 21.3103 44.8092 20.6975C44.1761 19.9316 42.7677 20.3116 41.9408 19.8322C41.1138 19.3528 40.5242 18.5375 41.608 16.9356C42.3833 15.7896 43.027 14.4015 41.5829 13.2078C39.839 11.7662 37.6013 13.3101 36.2977 12.7521C34.9942 12.194 35.8725 9.37472 34.2666 8.57076C31.6772 7.27443 30.5446 9.32842 29.202 9.00886C27.8593 8.68931 28.3928 7.67494 26.8687 6.22305C24.7208 4.17705 19.4718 5.26501 17.0445 11.3879" stroke="#232323" stroke-width="0.71003" stroke-linecap="round" stroke-linejoin="round"/>
    <path d="M25.5439 21.3662C25.6038 21.4861 26.5027 23.3437 28.0007 24.5421C27.3775 25.405 26.3029 25.7406 25.8435 25.8005" stroke="#232323" stroke-width="0.71003" stroke-linecap="round" stroke-linejoin="round"/>
    <path d="M28.3604 26.5425C27.1245 28.159 23.8595 30.0063 20.7484 26.1575" stroke="#232323" stroke-width="0.71003" stroke-linecap="round" stroke-linejoin="round"/>
    <path d="M20.8698 16.8119C20.3304 16.692 19.0361 16.68 18.1732 17.5908" stroke="#232323" stroke-width="0.71003" stroke-linecap="round" stroke-linejoin="round"/>
    <path d="M11.4432 27.3746C11.4505 28.0449 11.6275 28.633 11.8889 29.0412C12.1535 29.4544 12.4694 29.6383 12.7566 29.6351C13.0439 29.6319 13.3556 29.4412 13.6111 29.0223C13.8635 28.6084 14.0275 28.0166 14.0202 27.3464C14.0128 26.6761 13.8358 26.088 13.5744 25.6798C13.3098 25.2666 12.994 25.0828 12.7067 25.0859C12.4194 25.0891 12.1077 25.2798 11.8523 25.6987C11.5999 26.1126 11.4358 26.7044 11.4432 27.3746Z" stroke="#FFC15B" stroke-width="0.71003"/>
  </g>
  <defs>
    <clipPath id="clip0_1008_4873">
      <rect width="46.0205" height="46.0205" rx="23.0102" transform="matrix(-1 0 0 1 46.9889 0.467285)" fill="white"/>
    </clipPath>
  </defs>
</svg>