<svg width="336" height="284" viewBox="0 0 336 284" fill="none" xmlns="http://www.w3.org/2000/svg">
<g clip-path="url(#clip0_317_10792)">
<mask id="mask0_317_10792" style="mask-type:alpha" maskUnits="userSpaceOnUse" x="1" y="18" width="340" height="265">
<path d="M170.928 18.5361C90.4669 18.5361 1 48.9828 1 125.21C1 201.436 81.4607 282.652 170.928 282.652C260.394 282.652 340.855 201.363 340.855 125.21C340.855 49.0562 251.388 18.5361 170.928 18.5361Z" fill="white"/>
</mask>
<g mask="url(#mask0_317_10792)">
<path d="M49.6579 99.1374C48.8126 102.175 46.8036 107.902 42.0155 117.946L42.2346 118.072C47.0414 120.827 49.1479 126.705 47.2006 131.931L45.3696 136.848C33.0367 148.373 18.6812 196.647 18.6812 196.647C18.6812 196.647 -6.35409 204.279 -11.6657 179.82C-13.3376 172.135 -12.1329 164.097 -8.5496 157.11L13.2994 114.527C15.3871 110.45 19.8774 108.243 24.3437 109.092C24.3437 109.092 29.8846 90.7969 35.1398 90.7969C35.4256 90.7969 35.7097 90.8533 35.9954 90.9663C40.8861 92.9376 32.5439 112.511 32.342 112.988C32.5661 112.588 39.8166 99.709 45.4739 95.9956C47.6164 94.5907 50.3492 96.651 49.6579 99.1374Z" fill="#FF8898"/>
<path d="M165.952 124.995C165.298 122.301 162.846 122.702 160.3 123.99C164.061 120.849 167.531 116.839 164.85 114.235C162.86 112.304 159.781 113.66 156.852 115.919C159.16 112.814 160.425 109.602 157.921 107.658C155.613 105.865 152.763 107.333 150.147 109.777C151.413 106.914 151.608 104.073 149.077 102.242C142.173 97.2559 142.78 113.824 116.689 129.981C110.33 133.916 102.838 136.346 95.1395 137.761C95.0642 138.059 92.0336 150.535 89.6738 172.882C142.936 172.004 167.434 131.104 165.952 124.995ZM148.494 124.447C148.508 124.423 148.545 124.386 148.597 124.34C148.499 124.458 148.467 124.49 148.494 124.447Z" fill="#FF8898"/>
<path d="M81.271 139.332C72.4462 139.784 64.0971 139.286 57.6748 138.62C50.2275 137.848 45.3694 136.851 45.3694 136.851C33.0365 148.376 18.681 196.65 18.681 196.65L1.48828 249.958L82.1351 244.306L89.6748 172.882C92.0346 150.535 95.0652 138.057 95.1405 137.761C90.5236 138.611 85.8331 139.097 81.271 139.332Z" fill="#FFB600"/>
<path d="M112.458 52.0098C113.784 58.8307 108.659 63.4511 102.432 65.5131C101.639 66.0538 100.905 67.0241 100.592 67.9362C99.6576 70.6742 101.745 73.4446 100.811 76.1826C100.044 80.2057 93.5742 80.1989 92.864 84.6498C92.5218 88.6164 94.3545 92.7268 91.2435 95.3193C87.821 98.8256 81.1267 97.1075 79.3128 103.013C78.4349 106.179 79.6756 109.062 79.2204 112.171C77.8138 118.91 69.735 121.084 63.6465 118.746C63.8655 121.378 66.1637 123.561 68.7391 124.097C71.3693 124.643 74.1363 123.721 76.3335 122.163C79.3556 120.021 81.4997 116.653 82.1774 112.988C82.4289 111.624 82.4888 110.214 82.9269 108.898C83.8784 106.04 86.5034 104.035 89.2944 102.962C91.7466 102.019 94.5941 101.536 96.2454 99.4776C97.6965 97.6688 97.7907 95.1584 98.2938 92.8859C99.1015 89.2376 101.146 85.8801 104.006 83.5067C105.601 82.1839 107.545 81.0168 108.2 79.0421C109.018 76.583 107.486 73.8861 107.943 71.333C108.501 68.2271 111.677 66.4389 113.508 63.8806C116.029 60.3606 115.497 54.9924 112.458 52.0098Z" fill="#D1E4ED"/>
<path d="M79.221 112.172C79.6762 109.063 78.4356 106.18 79.3134 103.014C81.1273 97.1083 87.8216 98.8263 91.2441 95.32C94.3551 92.7258 92.5207 88.6154 92.8646 84.6505C93.5748 80.1996 100.045 80.2065 100.812 76.1833C101.746 73.4454 99.6582 70.6749 100.593 67.9369C100.904 67.0248 101.64 66.0546 102.432 65.5138C108.659 63.4501 113.784 58.8315 112.458 52.0105C112.133 51.6905 111.786 51.3893 111.402 51.1309C107.446 48.4511 101.241 50.0956 99.2989 54.4867C98.4963 56.3006 98.3885 58.3523 97.7331 60.2261C96.7509 63.0308 94.4869 65.3495 91.7232 66.3797C89.6715 67.1446 87.2398 67.3158 85.7682 68.95C83.7729 71.1643 84.6696 74.7168 83.6805 77.5404C82.6674 80.4289 79.8456 82.1795 77.2993 83.8462C74.753 85.513 72.0783 87.6708 71.7053 90.7134C71.5307 92.1354 71.8969 93.5934 71.6403 95.0035C71.2501 97.1476 69.5029 98.7733 67.6736 99.9352C65.846 101.097 63.8148 101.984 62.2524 103.489C60.2965 105.374 59.2458 108.177 59.4768 110.897C59.7078 113.618 61.2154 116.2 63.4606 117.722L63.63 118.584C63.6334 118.641 63.642 118.695 63.6471 118.752C69.7357 121.084 77.8161 118.911 79.221 112.172Z" fill="#02093D"/>
<path d="M73.235 118.626C76.3049 117.076 78.7708 114.506 81.1597 111.855C76.6814 108.409 71.3389 108.051 68.2159 108.21C66.669 108.289 65.3411 109.343 64.9116 110.847L63.1216 117.122C62.687 115.11 60.9158 113.602 58.7922 113.602C56.3434 113.602 54.3584 115.606 54.3584 118.079C54.3584 120.552 56.3434 122.555 58.7922 122.555C60.0311 122.555 61.1503 122.04 61.9546 121.214L55.3081 144.521C53.6962 150.175 55.7787 156.339 60.6506 159.566C66.568 163.486 72.1946 160.444 75.9199 157.129C78.7931 154.573 80.4324 150.887 80.4615 147.021L80.636 124.571L86.5193 123.791C87.3338 123.683 87.8797 122.87 87.6538 122.071C87.3732 121.082 87.048 120.17 86.6938 119.314C82.3695 121.079 77.4634 121.912 73.235 118.626Z" fill="#FF8898"/>
<path d="M81.1591 111.856C78.7685 114.507 76.3043 117.077 73.2344 118.628C77.4628 121.912 82.3689 121.08 86.6932 119.317C85.2814 115.915 83.3238 113.521 81.1591 111.856Z" fill="white"/>
<path d="M63.26 117.131L63.2776 117.13L63.2285 117.128L63.26 117.131Z" fill="#FF7194"/>
<path d="M63.1529 117.121C63.1443 117.121 63.1287 117.121 63.1201 117.121L63.2598 117.126C63.3391 117.125 63.0994 117.123 63.1529 117.121Z" fill="#FF7194"/>
<path d="M63.1665 117.12C63.1992 117.118 63.1337 117.116 63.1113 117.116C63.1613 117.116 63.0958 117.12 63.1665 117.12Z" fill="#FF7194"/>
<path d="M62.913 116.875H62.8616C62.9541 116.885 62.8599 116.895 62.901 116.905H62.8822C62.8616 116.931 62.9489 116.955 62.9883 116.979C62.9831 116.979 62.9677 116.979 62.9609 116.977C62.9797 116.979 63.0122 116.981 63.0071 116.981C62.9951 116.981 62.9831 116.981 62.978 116.981C62.8924 116.986 63.0328 116.996 62.966 117C62.9746 117.001 63.0105 117.001 63.0379 117.001C63.0602 117.022 63.0756 117.042 63.144 117.063C63.132 117.065 63.1081 117.065 63.079 117.065C63.2176 117.082 63.1628 117.1 63.1406 117.118C63.1765 117.118 63.1799 117.116 63.2176 117.118C63.2638 117.112 63.1286 117.107 63.1953 117.102H63.2313C63.2535 117.099 63.1423 117.102 63.1885 117.097C63.2176 117.095 63.233 117.097 63.2364 117.097C63.2227 117.088 63.2535 117.082 63.168 117.073C63.245 117.071 63.1714 117.065 63.2432 117.061C63.2124 117.059 63.221 117.058 63.1697 117.056C63.2107 117.029 63.1354 117 63.1423 116.972C62.9934 116.958 63.1714 116.943 63.1218 116.928C63.1269 116.928 63.132 116.928 63.1372 116.928C63.1012 116.923 63.0841 116.916 63.1012 116.909L63.0379 116.904C63.1663 116.866 63.0756 116.828 63.1303 116.791C63.168 116.748 63.2741 116.71 63.079 116.669C63.0927 116.669 63.1012 116.669 63.1081 116.669C63.079 116.657 63.132 116.647 63.1012 116.635H63.1166C62.9951 116.608 63.1337 116.577 63.002 116.549C63.0157 116.517 63.002 116.479 62.9643 116.445H62.9934C62.9318 116.418 63.0875 116.39 63.0396 116.363C63.1063 116.334 62.8719 116.305 62.9609 116.276C63.1046 116.259 62.7966 116.235 62.9455 116.217C63.1714 116.183 63.0259 116.149 62.8907 116.115C62.9712 116.082 62.7641 116.051 62.9284 116.021C62.824 116.005 63.0584 115.99 63.0276 115.974H62.9917C63.1029 115.969 62.8377 115.961 63.002 115.957H63.0088C63.0927 115.954 62.812 115.951 62.9113 115.949H62.8702C62.8582 115.945 62.9164 115.949 62.9335 115.945C62.9284 115.944 62.8582 115.945 62.8822 115.942C63.0499 115.942 62.8462 115.933 63.0345 115.933C63.0345 115.935 63.1081 115.93 63.1474 115.935C63.1662 115.933 63.1577 115.928 63.0773 115.928C62.9917 115.928 62.9181 115.925 62.8514 115.928H62.913C62.8514 115.93 62.8822 115.93 62.836 115.93C62.8274 115.935 62.7367 115.935 62.7008 115.939C62.7025 115.939 62.7042 115.939 62.7076 115.939C62.7812 115.94 62.7384 115.944 62.7265 115.945H62.6922C62.6204 115.947 62.8343 115.951 62.7093 115.949C62.7401 115.959 62.7384 115.971 62.7401 115.981C62.7881 115.983 62.735 115.99 62.8274 115.988C62.723 115.992 62.6974 116 62.7008 116.002C62.6905 116.002 62.6803 116.002 62.6837 116.002C62.5485 116.009 62.8086 116.009 62.6443 116.014C62.7607 116.016 62.6067 116.024 62.7436 116.028C62.7179 116.028 62.694 116.029 62.6734 116.028C62.67 116.038 62.6289 116.05 62.6238 116.058C62.7247 116.065 62.5776 116.075 62.7179 116.082C62.6888 116.087 62.6289 116.096 62.6854 116.103H62.6683C62.6768 116.111 62.6837 116.122 62.7727 116.127C62.6375 116.128 62.6649 116.134 62.6221 116.137C62.6837 116.142 62.6666 116.154 62.723 116.163C62.6614 116.164 62.7487 116.17 62.6597 116.17C62.8343 116.194 62.7727 116.223 62.6409 116.248H62.6341C62.6837 116.252 62.7932 116.255 62.8565 116.259C62.848 116.259 62.8343 116.259 62.8343 116.259C62.8514 116.264 62.7624 116.267 62.7795 116.272C62.7641 116.272 62.7641 116.272 62.7504 116.272C62.7898 116.277 62.6785 116.281 62.7487 116.286H62.7248L62.759 116.289C62.7299 116.289 62.6837 116.289 62.6939 116.288C62.6649 116.327 62.8189 116.368 62.7966 116.409L62.7675 116.407L62.8189 116.416C62.8035 116.416 62.7966 116.416 62.7898 116.416C62.7384 116.426 62.824 116.437 62.8103 116.447C62.7966 116.447 62.7675 116.445 62.7504 116.447C62.8326 116.454 62.6443 116.459 62.8137 116.462C62.8052 116.462 62.7675 116.462 62.7538 116.462C62.8103 116.483 62.8069 116.503 62.7795 116.524C62.9318 116.541 62.7932 116.56 62.9147 116.577H62.8839C62.99 116.599 62.8771 116.623 62.8976 116.647C62.8856 116.657 62.9215 116.664 62.9232 116.673H62.8856C63.0293 116.69 62.7556 116.707 62.9147 116.724L62.8634 116.722C62.9438 116.726 62.836 116.733 62.9729 116.731L62.9318 116.734C63.1132 116.746 62.848 116.755 62.966 116.77L62.9335 116.768C62.9592 116.772 62.978 116.777 62.9489 116.779C62.9438 116.779 62.9352 116.779 62.9267 116.777C62.7983 116.789 62.9404 116.803 62.9352 116.815L62.8753 116.813C62.9472 116.82 62.8805 116.83 62.913 116.839H62.8839L62.9232 116.842H62.8651C62.8565 116.854 62.9061 116.864 62.913 116.875Z" fill="#FF7194"/>
<path d="M62.6836 115.941C62.6873 115.941 62.691 115.939 62.6966 115.939C62.6836 115.939 62.6855 115.939 62.6836 115.941Z" fill="#FF7194"/>
<path d="M204.736 108.356C183.596 75.5683 186.818 92.8586 188.577 96.1527C188.577 96.1527 178.825 81.3506 175.962 90.504L175.885 93.9829C175.885 93.9829 168.23 85.4729 169.762 97.4943C169.762 97.4943 162.78 92.7611 164.599 102.474C165.371 106.591 170.845 117.516 179.554 129.253C188.057 122.523 196.972 116.302 206.059 110.349C205.619 109.697 205.178 109.038 204.736 108.356Z" fill="#7F072C"/>
<path d="M206.059 110.346C196.972 116.299 188.057 122.519 179.554 129.25C191.389 145.202 209.201 162.656 229.313 166.573L241.064 221.79H262.045C255.585 192.351 249.55 162.805 241.788 133.695C234.096 133.897 220.023 130.862 206.059 110.346Z" fill="#EE4B5C"/>
<path d="M286.874 129.87L247.743 132.743C247.743 132.743 245.514 133.599 241.79 133.696C249.552 162.806 255.588 192.352 262.048 221.791H316.709L286.874 129.87Z" fill="white"/>
<path d="M334.614 192.383C340.896 184.554 342.278 173.818 338.188 164.625L328.919 143.786C324.165 133.099 313.102 126.761 301.584 128.125L286.872 129.869L301.363 174.54L293.789 183.35C305.227 189.156 316.803 194.683 328.458 200.05L334.614 192.383Z" fill="#EE4B5C"/>
<path d="M249.557 104.673C247.317 101.095 245.075 97.5181 242.835 93.9399C241.683 92.1004 240.501 90.1701 240.403 88.0516C240.306 85.9331 241.678 83.5956 243.956 83.2225C245.051 83.0428 246.206 83.3269 247.277 83.0497C249.435 82.4918 250.2 79.9643 249.813 77.9434C249.427 75.9207 248.284 74.0486 248.088 72.0037C247.893 69.9588 249.213 67.5066 251.453 67.4706C253.975 67.4296 255.584 70.3695 258.104 70.4858C260.75 70.6073 262.168 67.7547 262.976 65.4428C263.782 63.131 265.623 60.357 268.201 60.9166C269.07 61.1049 269.785 61.6678 270.374 62.2822C272.53 64.529 273.425 67.7427 272.706 70.6604C272.473 71.6033 272.083 72.5769 272.361 73.5096C272.859 75.1763 275.124 75.7427 277.012 75.7598C278.899 75.7769 281.011 75.6041 282.44 76.7318C284.82 78.6125 283.246 82.2488 281.042 84.3006C278.838 86.3541 275.927 88.3511 275.853 91.2294C275.776 94.2326 278.971 96.9894 277.997 99.8574C277.292 101.935 274.768 102.898 272.607 103.803C270.446 104.709 268.082 106.292 268.291 108.46C268.464 110.248 270.405 111.658 270.305 113.45C265.949 114.976 261.193 116.174 256.657 115.175C252.122 114.175 248.051 110.292 248.66 106.057L249.557 104.673Z" fill="#FFB600"/>
<path d="M253.094 108.721C248.277 107.836 243.865 106.946 239.1 105.673C237.635 107.932 236.576 110.786 236.309 114.402C242.274 114.462 248.231 112.54 253.094 108.721Z" fill="white"/>
<path d="M273.762 128.556L260.52 108.321C261.533 108.867 262.753 109.021 263.936 108.646C266.272 107.907 267.574 105.395 266.842 103.037C266.109 100.677 263.623 99.3645 261.285 100.102C259.259 100.742 258.015 102.717 258.196 104.767L254.632 99.32C253.778 98.0143 252.199 97.4086 250.7 97.8004C247.57 98.6184 242.34 100.684 239.103 105.672C243.868 106.945 248.28 107.835 253.097 108.72C248.234 112.539 242.277 114.461 236.312 114.403C236.253 115.197 236.231 116.027 236.252 116.896C236.272 117.726 237.032 118.337 237.843 118.195L243.689 117.163L250.499 138.533C251.673 142.214 254.327 145.236 257.827 146.808C262.365 148.846 268.633 150.053 273.12 144.526C276.809 139.977 276.974 133.464 273.762 128.556Z" fill="#7F072C"/>
<path d="M140.506 190.648C140.773 204.687 112.676 254.626 87.006 261.132C87.006 261.132 78.6757 265.35 65.5352 265.491L69.0894 227.855H71.379C71.379 227.855 88.9071 222.568 106.43 189.058C106.43 189.058 118.015 170.608 120.067 182.765C120.067 185.194 131.111 174.575 129.84 187.633C129.727 188.756 129.648 188.997 129.624 189.043C130.031 188.572 140.244 176.892 140.506 190.648Z" fill="#7F072C"/>
<path d="M39.0743 207.55C46.8079 207.55 53.0773 201.218 53.0773 193.408C53.0773 185.598 46.8079 179.267 39.0743 179.267C31.3406 179.267 25.0713 185.598 25.0713 193.408C25.0713 201.218 31.3406 207.55 39.0743 207.55Z" fill="#02093D"/>
<path d="M63.3552 200.208C60.8021 180.154 43.0977 181.91 43.0977 181.91L39.8001 192.674C39.0078 191.194 37.4558 190.186 35.6709 190.186C33.0801 190.186 30.9805 192.306 30.9805 194.922C30.9805 197.539 33.0801 199.659 35.6709 199.659C36.4461 199.659 37.1768 199.466 37.8203 199.128L27.2637 233.576L58.9676 235.838L57.1606 200.207H63.3552V200.208Z" fill="#7F072C"/>
<path d="M164.859 122.245C166.795 127.042 171.487 132.003 171.487 132.003C169.973 129.865 167.567 125.175 164.859 122.245Z" fill="#FF6289"/>
<path d="M177.104 127.867C174.253 123.175 172.076 120.173 170.434 118.248C172.268 123.026 177.104 127.867 177.104 127.867Z" fill="#FF6289"/>
<path d="M160.246 130.974C162.308 133.912 164.599 136.237 164.599 136.237C162.987 134.085 161.541 132.358 160.246 130.974Z" fill="#FF6289"/>
<path d="M181.339 142.887C168.824 134.085 173.768 148.117 173.768 148.117C160.362 138.522 165.645 153.483 165.645 153.483C151.51 145.882 158.269 159.14 158.269 159.14C147.266 155.016 150.425 163.305 150.425 163.305L169.764 189.961C188.709 214.464 205.027 228.026 217.945 235.502C225.315 224.261 233.115 213.306 240.648 202.133C208.458 185.699 181.339 142.887 181.339 142.887Z" fill="#FF8898"/>
<path d="M90.5114 284.534L-12.378 283.613H-14.168L-1.20882 247.987C3.18733 235.892 14.5961 227.853 27.3533 227.853H69.0902L65.5343 265.489C78.6748 265.347 87.0051 261.131 87.0051 261.131L90.5114 284.534Z" fill="white"/>
<path d="M36.0813 276.191C37.4896 278.135 38.898 280.079 40.3063 282.025C40.8299 282.749 42.0466 282.051 41.5161 281.318C40.1078 279.374 38.6995 277.43 37.2911 275.485C36.7675 274.761 35.5508 275.459 36.0813 276.191Z" fill="#FF2339"/>
<path d="M13.209 284.844C14.5814 282.962 15.9538 281.079 17.3262 279.197C17.8584 278.468 16.6434 277.768 16.1164 278.49C14.7439 280.372 13.3715 282.255 11.9991 284.137C11.4669 284.866 12.6819 285.566 13.209 284.844Z" fill="#FF2339"/>
<path d="M18.2031 264.651C20.9496 265.485 23.6961 266.316 26.4426 267.15C27.3068 267.412 27.6782 266.06 26.8157 265.798C24.0692 264.964 21.3226 264.133 18.5761 263.299C17.712 263.036 17.3406 264.39 18.2031 264.651Z" fill="#FF2339"/>
<path d="M3.31186 273.415C1.77689 271.704 0.241913 269.991 -1.29306 268.279C-1.89713 267.607 -2.88451 268.601 -2.28386 269.27C-0.748891 270.982 0.786083 272.694 2.32106 274.406C2.92341 275.08 3.9125 274.086 3.31186 273.415Z" fill="#FF2339"/>
<path d="M-1.25014 244.251C0.647617 245.117 2.54537 245.985 4.44312 246.851C5.25767 247.222 5.97125 246.015 5.14986 245.641C3.25211 244.775 1.35435 243.907 -0.543401 243.041C-1.35795 242.668 -2.07153 243.876 -1.25014 244.251Z" fill="#FF2339"/>
<path d="M15.8176 247.781C17.984 246.739 20.1504 245.697 22.3168 244.655C23.1297 244.264 22.4195 243.054 21.6101 243.445C19.4437 244.487 17.2772 245.529 15.1091 246.571C14.298 246.961 15.0081 248.169 15.8176 247.781Z" fill="#FF2339"/>
<path d="M30.1172 224.772C30.6836 227.236 31.6008 229.562 32.862 231.752C33.312 232.534 34.5236 231.829 34.0718 231.045C32.8671 228.954 32.0081 226.752 31.4673 224.401C31.2671 223.521 29.9152 223.894 30.1172 224.772Z" fill="#FF2339"/>
<path d="M36.2325 248.626C36.9153 250.745 37.4167 252.899 37.7384 255.102C37.8685 255.992 39.2186 255.613 39.0903 254.729C38.7669 252.526 38.2672 250.372 37.5844 248.253C37.3089 247.398 35.9553 247.764 36.2325 248.626Z" fill="#FF2339"/>
<path d="M47.5082 263.344C49.0979 261.867 50.9169 260.724 52.9465 259.954C53.7815 259.638 53.4188 258.282 52.5734 258.602C50.3112 259.46 48.2885 260.705 46.5174 262.353C45.8551 262.969 46.8476 263.958 47.5082 263.344Z" fill="#FF2339"/>
<path d="M52.318 226.944C53.0709 229.704 53.8221 232.464 54.5751 235.224C54.8112 236.094 56.1648 235.724 55.9269 234.851C55.174 232.091 54.4228 229.331 53.6698 226.571C53.4337 225.701 52.0801 226.071 52.318 226.944Z" fill="#FF2339"/>
<path d="M68.1089 242.342C65.9801 242.545 63.8531 242.749 61.7243 242.951C60.8345 243.036 60.8259 244.438 61.7243 244.352C63.8531 244.149 65.9801 243.945 68.1089 243.743C68.9987 243.658 69.0073 242.256 68.1089 242.342Z" fill="#FF2339"/>
<path d="M57.5662 276.218C59.8422 276.644 62.1198 277.07 64.3958 277.496C65.277 277.66 65.6552 276.31 64.7688 276.144C62.4929 275.718 60.2152 275.292 57.9393 274.866C57.0563 274.7 56.6781 276.05 57.5662 276.218Z" fill="#FF2339"/>
<path d="M85.177 280.228C83.4486 277.538 81.7203 274.85 79.9919 272.16C79.506 271.403 78.2927 272.105 78.7821 272.867C80.5104 275.557 82.2388 278.245 83.9671 280.935C84.4531 281.693 85.6664 280.991 85.177 280.228Z" fill="#FF2339"/>
<path d="M203.886 197.661C192.929 190.708 182.117 183.46 171.133 176.425C171.059 176.93 170.976 177.433 170.863 177.938C167.741 191.98 139.859 199.759 119.497 203.606C106.348 206.091 95.969 216.312 93.2293 229.535L81.8496 284.458L210.82 284.522L188.574 217.659C195.652 210.764 200.6 204.085 203.886 197.661Z" fill="#57C29A"/>
<path d="M185.341 124.791C174.365 107.528 172.132 110.737 172.132 110.737C169.31 112.492 169.322 115.359 170.432 118.247C172.075 120.172 174.252 123.172 177.103 127.866C177.103 127.866 172.267 123.025 170.432 118.247C167.053 114.287 165.942 114.912 165.942 114.912C163.531 116.565 163.702 119.375 164.859 122.243C167.566 125.173 169.972 129.863 171.487 132C171.487 132 166.794 127.039 164.859 122.243C162.766 119.979 160.494 118.764 158.312 120.595C155.562 122.902 157.732 127.392 160.245 130.972C161.541 132.358 162.987 134.085 164.599 136.236C164.599 136.236 162.306 133.91 160.245 130.972C152.891 123.107 150.425 126.329 150.425 126.329C141.319 132.389 174.295 154.515 171.134 176.422C182.118 183.457 192.93 190.706 203.887 197.659C220.5 165.171 194.506 139.203 185.341 124.791Z" fill="#F9B061"/>
<path d="M137.704 170.519C139.656 168.265 141.942 166.345 144.064 164.262C135.151 157.255 125.246 164.791 125.246 164.791L123.088 214.783C123.018 213.477 146.354 211.118 146.354 211.118L143.984 176.424L151.849 175.892C150.943 173.587 149.968 171.624 148.945 169.952C145.363 171.109 141.374 171.299 137.704 170.519Z" fill="#F9B061"/>
<path d="M144.064 164.263C141.942 166.347 139.656 168.265 137.703 170.519C141.374 171.299 145.363 171.109 148.946 169.953C147.402 167.434 145.751 165.589 144.064 164.263Z" fill="white"/>
<path d="M118.063 171.175C110.897 171.702 103.472 170.732 96.5139 168.36C93.2352 167.243 89.965 165.754 87.5796 163.367C86.4741 162.261 85.5415 160.824 85.7879 159.426C86.1661 157.285 88.9948 156.455 91.4213 156.511C97.2309 156.647 102.709 159.578 107.765 162.538C110.669 164.239 113.559 165.99 116.145 168.09C117.648 169.308 119.039 170.639 120.302 172.063L118.063 171.175Z" fill="#02093D"/>
<path d="M319.923 207.904H278.126C274.589 207.904 271.049 207.989 267.525 208.304C258.485 209.114 249.379 206.59 240.645 202.132C233.114 213.304 225.314 224.26 217.942 235.501C238.535 247.418 250.483 243.865 250.634 244.5L234.884 283.265H337.462L348.146 245.758C353.547 226.803 339.457 207.904 319.923 207.904Z" fill="#D1E4ED"/>
<path d="M300.118 283.267L308.678 255.769L345.348 255.586L337.462 283.267H300.118Z" fill="#FF6289"/>
<path d="M268.532 212.232L267.733 192.045L261.826 193.217C260.729 193.435 259.718 192.577 259.73 191.448C259.795 185.561 261.381 169.9 276.563 172.039C277.675 172.197 278.644 172.898 279.14 173.916L295.736 207.841C299.069 214.656 296.208 223.056 289.279 226.025C285.078 227.825 279.643 227.56 273.118 221.85C270.341 219.421 268.679 215.939 268.532 212.232Z" fill="#FF8898"/>
<path d="M328.462 200.051C316.807 194.685 305.23 189.158 293.792 183.352L292.805 184.5C287.673 190.469 284.848 198.111 284.848 206.017C284.848 206.017 285.39 221.77 285.503 222.629C285.96 226.06 287.296 228.152 289.153 229.016C291.01 229.88 292.62 228.896 294.249 226.091C294.643 225.412 294.858 224.662 294.976 223.887C294.999 224.091 295.026 224.294 295.06 224.496C295.515 227.073 298.334 229.666 300.822 228.94C302.894 228.336 303.784 225.869 304.003 223.701C304.082 222.919 304.221 222.133 304.347 221.348C304.349 221.758 304.369 222.169 304.436 222.578C304.761 224.546 305.138 226.623 306.438 228.122C307.739 229.623 310.302 230.19 311.663 228.744C312.472 227.885 312.631 226.61 312.722 225.426C312.859 223.641 312.92 221.849 312.926 220.059H313.134C313.415 222.537 313.939 224.97 315.253 227.051C315.948 228.152 317.038 229.199 318.324 229.11C320.951 228.928 321.764 226.572 321.576 224.197C321.367 221.556 320.931 214.279 320.931 214.279C320.931 211.144 321.997 208.104 323.949 205.671L328.462 200.051Z" fill="#7F072C"/>
<path d="M280.75 180.218L246.139 156.501C245.175 155.84 244.859 154.553 245.403 153.514C246.031 152.318 247.54 151.923 248.665 152.661L270.45 166.956C270.45 166.956 276.527 158.412 287.222 164.189C297.917 169.966 288.314 185.629 288.314 185.629L280.75 180.218Z" fill="#67238B"/>
<path d="M286.718 186.691C289.235 186.691 291.275 184.631 291.275 182.09C291.275 179.548 289.235 177.488 286.718 177.488C284.201 177.488 282.161 179.548 282.161 182.09C282.161 184.631 284.201 186.691 286.718 186.691Z" fill="#FF8898"/>
<path d="M54.081 197.88C57.3751 196.771 60.3783 194.503 62.875 191.986L61.7952 190.648L56.2577 194.556C52.8386 196.969 48.1738 196.425 45.3897 193.288L40.8874 188.213L39.8008 192.672L52.493 206.682C55.4312 209.925 60.3013 210.45 63.8504 207.907C67.071 205.601 68.2209 201.501 67.0059 197.953C63.1077 199.825 58.3283 199.666 54.081 197.88Z" fill="#02093D"/>
<path d="M62.8741 191.986C60.3791 194.504 57.3742 196.771 54.0801 197.88C58.3274 199.666 63.1068 199.825 67.005 197.953C66.6833 197.014 66.2059 196.112 65.5453 195.294L62.8741 191.986Z" fill="white"/>
<path d="M85.6114 264.262H105.448L102.332 284.535L81.8535 284.458L85.6114 264.262Z" fill="#FF8500"/>
<path d="M57.7759 139.312C57.4679 139.312 57.1581 139.299 56.8484 139.271C51.0969 138.765 46.8257 133.629 47.3271 127.826C47.6557 124.029 49.9983 120.691 53.4431 119.115C53.7956 118.954 54.2114 119.108 54.3722 119.46C54.5331 119.813 54.3791 120.229 54.0266 120.389C51.0405 121.755 49.0093 124.652 48.7235 127.948C48.2888 132.984 51.9885 137.437 56.9716 137.876C59.3673 138.087 61.7049 137.349 63.5547 135.796C65.4319 134.22 66.5819 131.998 66.7941 129.543C67.1397 125.54 64.8039 121.71 61.1145 120.227C60.7551 120.083 60.5806 119.674 60.726 119.315C60.8698 118.955 61.2788 118.781 61.6381 118.926C65.8957 120.638 68.5909 125.053 68.1921 129.663C67.9474 132.493 66.6212 135.051 64.4565 136.869C62.5571 138.46 60.2144 139.312 57.7759 139.312Z" fill="white"/>
<path d="M157.947 143.167C156.253 140.939 154.656 138.642 153.191 136.257C151.728 133.875 149.006 130.293 150.202 127.386C152.074 122.839 157.011 127.964 158.667 130.047C160.343 132.155 161.659 134.515 162.968 136.859C163.407 137.646 164.619 136.941 164.177 136.152C162.269 132.735 155.623 120.402 150.185 124.981C147.938 126.874 148.342 130 149.427 132.394C151.282 136.486 154.03 140.311 156.737 143.873C157.276 144.583 158.493 143.885 157.947 143.167Z" fill="#02093D"/>
<path d="M158.236 127.19C156.215 124.832 157.159 118.94 161.655 121.199C162.781 121.764 163.936 123.203 164.798 124.086C167.031 126.37 168.931 128.918 170.563 131.662C171.024 132.437 172.237 131.732 171.773 130.955C170.281 128.448 168.571 126.088 166.593 123.939C165.111 122.33 162.827 119.395 160.499 119.058C158.547 118.774 156.764 120.496 156.067 122.159C155.167 124.307 155.785 126.478 157.245 128.181C157.833 128.867 158.821 127.873 158.236 127.19Z" fill="#02093D"/>
<path d="M164.661 122.015C164.36 121.067 163.985 120.021 163.994 119.008C164.007 117.443 165.871 115.849 167.426 116.347C169.233 116.926 169.962 118.527 170.946 119.955C172.865 122.737 174.904 125.497 176.982 128.167C177.534 128.877 178.52 127.879 177.973 127.176C176.065 124.726 174.297 122.16 172.469 119.648C171.114 117.785 170.198 115.728 167.798 114.995C166.239 114.52 164.457 114.835 163.441 116.19C162.063 118.031 162.676 120.398 163.307 122.386C163.583 123.244 164.936 122.879 164.661 122.015Z" fill="#02093D"/>
<path d="M170.675 116.834C170.099 114.772 169.729 109.743 173.87 112.18C174.748 112.697 175.511 113.537 176.223 114.256C177.681 115.727 179.028 117.31 180.335 118.917C182.103 121.089 183.802 123.322 185.411 125.613C185.926 126.345 187.141 125.646 186.62 124.906C183.922 121.066 181.035 117.273 177.799 113.871C176.256 112.247 173.87 109.427 171.331 110.138C168.201 111.015 168.659 114.831 169.323 117.206C169.566 118.073 170.918 117.705 170.675 116.834Z" fill="#02093D"/>
<path d="M150.344 131.186C158.709 125.354 166.784 119.128 174.556 112.526C175.244 111.941 174.25 110.954 173.565 111.536C165.885 118.061 157.904 124.211 149.637 129.976C148.903 130.488 149.603 131.704 150.344 131.186Z" fill="#02093D"/>
<path d="M143.479 118.762C146.236 115.173 148.797 111.455 151.169 107.601C151.643 106.831 150.432 106.126 149.959 106.894C147.588 110.748 145.026 114.466 142.269 118.055C141.72 118.77 142.936 119.468 143.479 118.762Z" fill="#02093D"/>
<path d="M150.517 123.661C151.689 121.701 153.699 120.221 155.135 118.438C156.455 116.799 157.604 115.055 158.623 113.214C159.059 112.423 157.849 111.716 157.413 112.507C156.22 114.663 154.849 116.694 153.22 118.547C151.921 120.024 150.325 121.255 149.308 122.954C148.841 123.729 150.053 124.434 150.517 123.661Z" fill="#02093D"/>
<path d="M144.092 104.005C148.148 106.44 152.4 108.704 156.163 111.579C159.529 114.153 162.597 117.07 166.459 118.91C167.269 119.296 167.981 118.088 167.166 117.7C163.215 115.818 160.092 112.789 156.628 110.181C152.927 107.393 148.765 105.177 144.797 102.793C144.024 102.33 143.318 103.541 144.092 104.005Z" fill="#02093D"/>
<path d="M168.89 96.9306C170.793 101.116 172.727 105.495 175.475 109.205C176.006 109.922 177.222 109.224 176.685 108.498C173.937 104.789 172.003 100.41 170.1 96.2238C169.727 95.4025 168.519 96.1143 168.89 96.9306Z" fill="#FEE6A7"/>
<path d="M173.982 91.5674C175.376 93.7424 176.771 95.9174 178.107 98.1283C179.468 100.377 181.342 102.889 181.956 105.464C182.165 106.341 183.517 105.971 183.308 105.091C182.721 102.632 181.047 100.312 179.762 98.1591C178.29 95.6932 176.74 93.277 175.191 90.859C174.707 90.1026 173.494 90.8042 173.982 91.5674Z" fill="#FEE6A7"/>
<path d="M185.289 91.6178C186.803 94.3027 188.494 96.8696 190.364 99.3218C190.904 100.03 192.122 99.3321 191.574 98.6151C189.704 96.1629 188.013 93.5977 186.499 90.9111C186.056 90.1256 184.844 90.8307 185.289 91.6178Z" fill="#FEE6A7"/>
<path d="M164.979 101.197C167.792 100.066 170.018 98.1973 172.322 96.2722C175.441 93.6642 178.872 91.5902 182.382 89.5607C183.162 89.109 182.457 87.8974 181.675 88.3509C178.641 90.1049 175.607 91.8726 172.845 94.0441C170.189 96.1318 167.794 98.5652 164.607 99.8452C163.779 100.177 164.14 101.534 164.979 101.197Z" fill="#FEE6A7"/>
<path d="M187.468 93.3844C188.875 92.397 190.346 91.5191 191.885 90.7525C192.692 90.3504 191.982 89.1405 191.178 89.5427C189.64 90.3093 188.168 91.1872 186.761 92.1745C186.027 92.6896 186.727 93.9046 187.468 93.3844Z" fill="#FEE6A7"/>
<path d="M261.746 105.599C262.538 105.007 263.331 104.413 264.123 103.821C264.428 103.593 264.576 103.217 264.375 102.863C264.203 102.562 263.717 102.385 263.416 102.611C262.624 103.203 261.832 103.797 261.039 104.389C260.735 104.617 260.586 104.993 260.788 105.347C260.959 105.649 261.445 105.827 261.746 105.599Z" fill="#FEE6A7"/>
<path d="M247.275 103.039C248.42 102.379 250.037 102.919 250.499 104.18C250.807 105.021 252.162 104.658 251.851 103.807C251.079 101.704 248.543 100.69 246.568 101.828C245.786 102.279 246.491 103.491 247.275 103.039Z" fill="#FEE6A7"/>
<path d="M294.062 209.183C294.062 214.857 294.062 220.532 294.062 226.206C294.062 227.108 295.463 227.11 295.463 226.206C295.463 220.532 295.463 214.857 295.463 209.183C295.463 208.281 294.062 208.279 294.062 209.183Z" fill="#FEE6A7"/>
<path d="M304.079 208.7C304.079 214.161 304.079 219.622 304.079 225.08C304.079 225.982 305.481 225.984 305.481 225.08C305.481 219.62 305.481 214.159 305.481 208.7C305.481 207.799 304.079 207.797 304.079 208.7Z" fill="#FEE6A7"/>
<path d="M312.985 208.38C312.985 213.947 312.985 219.515 312.985 225.082C312.985 225.984 314.387 225.985 314.387 225.082C314.387 219.515 314.387 213.947 314.387 208.38C314.387 207.478 312.985 207.477 312.985 208.38Z" fill="#FEE6A7"/>
<path d="M287.286 226.583C298.473 226.583 309.657 226.583 320.844 226.583C321.745 226.583 321.747 225.182 320.844 225.182C309.657 225.182 298.473 225.182 287.286 225.182C286.385 225.182 286.383 226.583 287.286 226.583Z" fill="#FEE6A7"/>
<path d="M47.1484 187.088C47.9287 187.825 48.7091 188.564 49.4911 189.302C50.1465 189.921 51.139 188.932 50.4819 188.311C49.7016 187.574 48.9212 186.834 48.1392 186.097C47.4838 185.477 46.4913 186.466 47.1484 187.088Z" fill="#FEE6A7"/>
<path d="M33.582 194.335C34.3829 194.557 35.182 194.78 35.9829 195.002C36.8539 195.243 37.2252 193.891 36.3559 193.65C35.5551 193.428 34.7559 193.205 33.9551 192.983C33.084 192.742 32.7127 194.093 33.582 194.335Z" fill="#FEE6A7"/>
<path d="M52.6845 185.127C54.8287 185.949 56.9711 186.77 59.1153 187.59C58.9527 187.302 58.7885 187.015 58.6259 186.727C58.2905 187.864 57.6163 188.612 56.5587 189.116C55.7459 189.505 56.456 190.713 57.2655 190.326C58.6344 189.673 59.5482 188.547 59.9761 187.101C60.0907 186.712 59.8357 186.372 59.4866 186.238C57.3425 185.417 55.2 184.595 53.0558 183.776C52.2139 183.454 51.8494 184.807 52.6845 185.127Z" fill="#FEE6A7"/>
<path d="M68.711 115.759C69.5581 113.887 71.3942 112.817 73.4409 113.041C74.3358 113.139 74.329 111.737 73.4409 111.64C70.9579 111.368 68.5279 112.781 67.5012 115.052C67.1316 115.868 68.338 116.58 68.711 115.759Z" fill="#02093D"/>
<path d="M57.0896 116.524C57.8699 117.739 58.6502 118.952 59.4306 120.167C59.9166 120.923 61.1298 120.222 60.6404 119.46C59.8601 118.245 59.0798 117.032 58.2994 115.817C57.8152 115.059 56.6002 115.761 57.0896 116.524Z" fill="#02093D"/>
<path d="M156.495 158.795C159.934 162.938 163.543 166.93 167.32 170.77C167.953 171.413 168.944 170.423 168.311 169.779C164.534 165.939 160.927 161.949 157.485 157.804C156.909 157.109 155.923 158.105 156.495 158.795Z" fill="#02093D"/>
<path d="M151.656 163.757C155.729 160.168 160.084 156.958 164.713 154.126C165.481 153.655 164.778 152.444 164.006 152.916C159.274 155.811 154.827 159.099 150.665 162.766C149.986 163.363 150.98 164.35 151.656 163.757Z" fill="#02093D"/>
<path d="M133.97 166.864C133.869 165.488 134.706 164.223 136.058 163.867C136.929 163.638 136.559 162.286 135.685 162.515C133.766 163.018 132.423 164.88 132.568 166.864C132.635 167.759 134.037 167.765 133.97 166.864Z" fill="#02093D"/>
<path d="M138.465 162.029C139.757 161.668 141.047 161.306 142.339 160.945C142.043 160.72 141.747 160.495 141.453 160.269C141.451 161.426 141.595 162.557 141.882 163.678C142.106 164.551 143.458 164.181 143.234 163.305C142.977 162.302 142.853 161.303 142.854 160.269C142.854 159.816 142.406 159.47 141.968 159.594C140.676 159.955 139.386 160.316 138.094 160.677C137.226 160.92 137.594 162.273 138.465 162.029Z" fill="#02093D"/>
<path d="M75.7098 110.834C77.6931 110.85 79.6764 110.865 81.6597 110.882C81.4578 110.531 81.2559 110.179 81.054 109.828C80.3643 110.889 79.6764 111.948 78.9868 113.009C78.4939 113.767 79.7072 114.471 80.1966 113.716C80.8862 112.655 81.5742 111.596 82.2638 110.535C82.5598 110.079 82.1697 109.484 81.658 109.481C79.6747 109.465 77.6914 109.45 75.7081 109.433C74.808 109.426 74.808 110.827 75.7098 110.834Z" fill="#02093D"/>
<path d="M269.458 180.813C270.179 179.552 271.152 178.493 272.367 177.694C273.117 177.199 272.417 175.986 271.661 176.484C270.247 177.415 269.089 178.635 268.248 180.107C267.8 180.89 269.01 181.597 269.458 180.813Z" fill="#02093D"/>
<path d="M263.676 178.695C262.348 179.07 261.021 179.444 259.694 179.821C259.226 179.953 259.086 180.444 259.274 180.851C259.774 181.926 260.274 183 260.772 184.075C261.152 184.893 262.36 184.181 261.981 183.368C261.482 182.294 260.982 181.219 260.484 180.144C260.344 180.488 260.205 180.831 260.065 181.174C261.393 180.8 262.719 180.425 264.047 180.048C264.915 179.8 264.547 178.448 263.676 178.695Z" fill="#02093D"/>
<path d="M262.074 188.683C263.448 189.694 265.218 189.782 266.734 189.044C267.545 188.649 266.835 187.441 266.027 187.834C264.937 188.365 263.742 188.18 262.782 187.473C262.053 186.938 261.354 188.153 262.074 188.683Z" fill="#02093D"/>
<path d="M284.585 183.896C285.797 183.336 287.01 182.777 288.221 182.217C289.039 181.839 288.327 180.631 287.515 181.007C286.303 181.567 285.09 182.127 283.878 182.686C283.06 183.063 283.77 184.272 284.585 183.896Z" fill="#02093D"/>
<path d="M309.096 256.469C310.736 252.268 312.051 247.975 313.049 243.577C313.248 242.699 311.897 242.324 311.697 243.204C310.7 247.602 309.384 251.895 307.744 256.096C307.416 256.938 308.771 257.302 309.096 256.469Z" fill="#02093D"/>
<path d="M249.757 246.93C252.096 242.258 253.925 237.389 255.227 232.329C255.451 231.455 254.101 231.082 253.875 231.956C252.602 236.9 250.831 241.657 248.547 246.223C248.145 247.027 249.353 247.737 249.757 246.93Z" fill="#02093D"/>
<path d="M300.948 174.901C304.085 171.042 306.929 166.985 309.473 162.712C309.935 161.935 308.725 161.23 308.263 162.005C305.78 166.175 303.018 170.145 299.957 173.91C299.394 174.603 300.38 175.601 300.948 174.901Z" fill="#02093D"/>
<path d="M230.192 166.92C229.636 163.38 229.208 159.827 228.902 156.256C228.825 155.364 227.423 155.356 227.5 156.256C227.817 159.95 228.265 163.628 228.842 167.292C228.98 168.181 230.331 167.803 230.192 166.92Z" fill="#02093D"/>
<path d="M105.373 264.442C106.572 257.206 107.597 249.941 108.453 242.657C108.557 241.763 107.156 241.77 107.051 242.657C106.211 249.818 105.2 256.956 104.021 264.071C103.875 264.952 105.225 265.332 105.373 264.442Z" fill="#02093D"/>
<path d="M152.801 284.003C148.131 281.352 144.861 276.331 144.299 270.95C143.807 266.221 145.254 261.226 143.543 256.798C142.331 253.659 139.717 251.329 137.771 248.591C134.958 244.633 133.539 239.685 133.82 234.822C133.907 233.304 134.154 231.766 133.859 230.275C133.139 226.646 129.586 224.473 127.055 221.796C123.588 218.129 121.826 212.884 122.367 207.845C122.669 205.018 123.652 202.151 122.948 199.396C122.173 196.359 119.55 194.221 117.895 191.567C115.674 188.006 115.265 183.632 114.914 179.44C114.622 175.944 114.457 172.025 116.742 169.381C118.663 167.158 123.169 165.408 125.964 166.274C128.758 167.138 130.082 168.649 131.537 171.209C133.529 174.713 134.864 180.225 137.52 183.247C141.057 187.27 148.196 187.488 151.565 191.653C155.323 196.299 153.042 205.372 158.287 208.187C161.054 209.672 164.497 209.092 167.416 210.245C174.711 213.129 174.776 224.45 181.387 228.698C186.043 231.691 192.349 230.13 197.406 232.366C205.972 236.157 207.276 248.69 215.208 253.699C218.474 255.761 222.462 256.262 225.983 257.838C229.637 259.474 232.756 262.301 234.762 265.792C235.917 267.804 236.716 270.034 238.106 271.891C240.2 274.692 243.405 276.364 246.26 278.369C249.112 280.375 251.864 283.132 252.165 286.628L152.801 284.003Z" fill="#02093D"/>
<path d="M128.411 206.654C127.676 211.821 129.86 216.816 134.244 219.684C135 220.178 135.704 218.967 134.951 218.474C131.14 215.981 129.121 211.542 129.761 207.026C129.886 206.146 128.535 205.765 128.411 206.654Z" fill="#007BA4"/>
<path d="M143.092 235.577C143.073 240.217 144.836 244.505 148.133 247.772C148.775 248.406 149.766 247.417 149.124 246.781C146.075 243.759 144.476 239.869 144.493 235.577C144.497 234.676 143.095 234.674 143.092 235.577Z" fill="#007BA4"/>
<path d="M155.978 266.586C156.125 272.335 159.57 277.358 164.869 279.575C165.701 279.923 166.062 278.568 165.242 278.224C160.54 276.256 157.511 271.651 157.381 266.586C157.357 265.685 155.956 265.682 155.978 266.586Z" fill="#007BA4"/>
<path d="M119.356 172.978C118.731 177.439 119.758 181.763 122.462 185.388C122.996 186.103 124.212 185.405 123.671 184.681C121.206 181.377 120.133 177.453 120.706 173.351C120.831 172.468 119.481 172.086 119.356 172.978Z" fill="#007BA4"/>
<path d="M215.495 262.992C221.007 264.239 225.543 268.023 227.71 273.256C228.05 274.077 229.407 273.718 229.062 272.883C226.707 267.198 221.897 263.004 215.868 261.64C214.988 261.441 214.614 262.792 215.495 262.992Z" fill="#007BA4"/>
<path d="M188.915 238.919C193.717 240.426 197.139 244.478 197.996 249.414C198.15 250.3 199.502 249.925 199.348 249.041C198.407 243.623 194.528 239.211 189.288 237.567C188.426 237.296 188.056 238.65 188.915 238.919Z" fill="#007BA4"/>
<path d="M163.35 216.17C166.329 217.414 168.333 220.282 168.576 223.487C168.644 224.38 170.046 224.389 169.977 223.487C169.683 219.594 167.323 216.322 163.723 214.82C162.891 214.471 162.528 215.826 163.35 216.17Z" fill="#007BA4"/>
<path d="M11.4274 169.277C14.4032 163.313 17.5793 157.425 21.0188 151.714C23.0227 148.388 25.0813 144.743 27.8843 142.008C32.6723 137.338 40.6364 135.555 46.9851 137.253C47.8578 137.486 48.2291 136.134 47.3581 135.901C40.698 134.121 33.3517 135.932 27.9254 140.128C25.0608 142.342 23.0415 145.814 21.1472 148.829C17.1515 155.192 13.5716 161.848 10.2176 168.57C9.81542 169.374 11.0236 170.085 11.4274 169.277Z" fill="#02093D"/>
<path d="M24.1274 109.266C29.0455 111.447 34.6925 113.753 38.2673 117.956C39.7253 119.671 39.7595 122.048 37.7197 123.287C35.8236 124.438 33.8985 123.463 32.1205 122.571C29.5161 121.267 27.0211 119.777 24.61 118.144C23.8604 117.638 23.1588 118.851 23.9032 119.354C27.0947 121.514 30.9809 124.368 34.8174 125.193C37.3792 125.744 40.2626 123.93 40.853 121.322C41.534 118.317 38.3084 115.834 36.2463 114.248C32.7948 111.594 28.7922 109.809 24.8341 108.055C24.0179 107.694 23.3026 108.9 24.1274 109.266Z" fill="#02093D"/>
<path d="M23.9447 119.815C27.3637 123.163 30.0367 130.773 26.6142 134.974C26.0495 135.667 27.0352 136.665 27.605 135.965C31.5426 131.131 28.9757 122.78 24.9355 118.824C24.2904 118.192 23.2979 119.181 23.9447 119.815Z" fill="#02093D"/>
<path d="M31.7243 93.2809C33.5913 94.1776 35.3538 95.2557 36.9829 96.5374C37.6845 97.0901 38.6822 96.1045 37.9737 95.5466C36.2471 94.1879 34.4127 93.0225 32.431 92.0711C31.6216 91.6826 30.9098 92.8908 31.7243 93.2809Z" fill="#02093D"/>
<path d="M42.5861 98.9646C44.5574 99.9914 46.3371 101.273 47.9268 102.825C48.5737 103.455 49.5645 102.466 48.9176 101.834C47.2458 100.204 45.3651 98.8346 43.2928 97.7548C42.4937 97.3389 41.7835 98.5471 42.5861 98.9646Z" fill="#02093D"/>
<path d="M34.8046 124.177C36.2557 122.224 37.7051 120.27 39.1545 118.318C39.6918 117.594 38.4769 116.894 37.9447 117.611C36.4936 119.563 35.0441 121.518 33.5947 123.47C33.0557 124.194 34.2724 124.894 34.8046 124.177Z" fill="#02093D"/>
<path d="M140.302 65.8988C141.493 68.1046 142.684 70.3121 143.875 72.5179C144.732 74.1059 147.154 72.6924 146.295 71.1027C145.104 68.8969 143.913 66.6894 142.722 64.4837C141.866 62.8974 139.445 64.3108 140.302 65.8988Z" fill="#02093D"/>
<path d="M163.063 56.3649C163.666 58.9215 164.268 61.4781 164.869 64.0346C165.283 65.7904 167.985 65.046 167.571 63.2903C166.968 60.7337 166.366 58.1771 165.765 55.6205C165.353 53.8631 162.651 54.6075 163.063 56.3649Z" fill="#02093D"/>
<path d="M190.08 63.0274C190.724 60.5717 191.367 58.1178 192.009 55.6622C192.466 53.9151 189.764 53.1707 189.307 54.9178C188.663 57.3735 188.02 59.8274 187.378 62.283C186.92 64.0284 189.623 64.7728 190.08 63.0274Z" fill="#02093D"/>
<path d="M210.228 71.489C211.982 69.4184 213.736 67.3461 215.49 65.2755C216.649 63.9065 214.676 61.9146 213.509 63.2939C211.755 65.3645 210.001 67.4368 208.247 69.5074C207.086 70.8764 209.059 72.8682 210.228 71.489Z" fill="#02093D"/>
<path d="M28.2967 53.4781C28.7382 58.9317 31.9246 63.8892 37.048 66.0488C40.5902 67.5427 50.0242 68.4239 50.7412 62.8197C50.9671 61.052 49.7693 59.2244 47.8424 59.4143C45.6469 59.6316 44.4063 62.1181 43.9733 63.9936C42.7481 69.2915 44.9316 74.8017 49.1943 78.0684C49.9096 78.616 50.6078 77.3993 49.901 76.8586C46.891 74.5519 45.0959 70.9429 45.036 67.1491C45.0103 65.5611 45.2174 63.7506 46.0696 62.3696C46.6873 61.0605 47.762 60.8586 49.2935 61.7621C49.4972 63.037 49.0369 63.9782 47.9126 64.5857C47.2212 65.0426 46.3194 65.3009 45.522 65.4789C37.6349 67.2449 30.3365 61.3549 29.6982 53.4763C29.6247 52.5848 28.2232 52.5762 28.2967 53.4781Z" fill="#FBAEB6"/>
</g>
<path d="M66.8584 19.8258C75.8091 22.3949 85.3563 21.8812 93.9876 18.361C98.5498 16.4998 112.529 9.72452 107.265 2.90432C105.531 0.658966 102.246 -0.188095 99.6012 0.720406C95.4114 2.158 93.3518 6.86011 92.4485 10.8404C90.4055 19.8481 92.9182 29.2165 98.7088 36.3039C99.6712 37.4824 101.347 35.8157 100.392 34.6454C96.0778 29.3607 93.8 22.6732 94.1433 15.8381C94.3475 11.7444 95.3987 5.73897 99.3152 3.47292C100.856 2.58263 102.826 2.45258 104.355 3.43333C107.284 5.30815 105.353 8.10949 103.512 9.82596C94.1227 18.5722 79.5312 21.0007 67.4775 17.5431C66.0115 17.1239 65.3924 19.4067 66.8584 19.8258Z" fill="#FCD26B"/>
<path d="M261.866 38.6013C268.09 30.7146 271.606 20.6497 269.738 10.5763C269.102 7.15858 267.893 2.7543 263.612 3.03255C260.409 3.24054 257.59 5.99216 257.503 9.2216C257.25 18.8115 272.011 18.196 278.123 17.097C287.964 15.3263 297.096 9.91583 303.236 2.02915C304.136 0.87397 302.516 -0.767451 301.608 0.401779C293.865 10.343 280.693 16.7429 267.963 15.2083C266.054 14.9778 263.82 14.5927 262.212 13.4544C259.368 11.442 258.766 6.26479 263.03 5.46657C267.851 4.56716 267.977 14.0559 267.935 16.5827C267.811 24.0618 264.827 31.1531 260.234 36.974C259.329 38.1235 260.946 39.7649 261.866 38.6013Z" fill="#D1E4ED"/>
</g>
<defs>
<clipPath id="clip0_317_10792">
<rect width="335" height="284" fill="white" transform="translate(0.5)"/>
</clipPath>
</defs>
</svg>
