<svg xmlns="http://www.w3.org/2000/svg" width="71" height="71" viewBox="0 0 71 71" fill="none">
  <g clip-path="url(#clip0_1001_4459)">
    <rect x="0.379883" y="0.369141" width="70" height="70" rx="35" fill="#FFCC79"/>
    <path d="M39.5097 7.41151C42.9446 8.43951 43.9172 10.361 44.1961 13.0016C47.4927 9.54859 52.4609 9.58253 56.4763 17.0442C60.4916 24.5059 66.7984 49.2389 64.0002 57C61.2021 64.7611 48.2275 62.2224 46.1306 61.3676C41.7636 59.7799 35.0972 61.2175 27.8806 63.8676C20.664 66.5177 12.9363 63.1696 11.3806 61.3676C8.16617 56.4749 9.13378 31.4472 15.5402 20.1895C23.5483 6.11738 35.2161 6.12652 39.5097 7.41151Z" fill="#232323"/>
    <path d="M19.9676 51.8826C23.0301 49.2378 26.6958 48.8086 28.1458 48.9246C34.8804 48.9246 38.0292 54.8407 44.8502 54.1447C53.3763 53.2747 58.1284 45.9665 63.0005 51.8826C66.8982 56.6155 70.2547 74.0971 71.9947 80.2452C60.0465 81.4632 32.9135 83.3773 19.9676 81.2892C3.78531 78.6792 -1.14405 72.3012 3.78527 64.6719C7.43903 59.0168 11.789 59.0168 14.9216 59.0168C15.4436 57.1607 16.9052 54.5275 19.9676 51.8826Z" fill="#D3F4E6"/>
    <path d="M20.5764 25.9549C23.7781 16.7675 33.1047 13.1947 37.3678 12.5566C45.4589 12.5566 51.8971 33.176 44.2409 40.8322C40.3691 44.704 32.5827 44.3993 27.0146 43.6162C21.4464 42.8332 16.5743 37.4391 20.5764 25.9549Z" fill="#FFA19A"/>
    <path fill-rule="evenodd" clip-rule="evenodd" d="M26.7702 13.4509C30.2073 11.1443 34.3782 10.207 38.5051 11.1775C43.0919 12.2561 46.6772 15.4686 48.6343 19.6775C45.1972 21.9841 41.0263 22.9213 36.8994 21.9509C32.3126 20.8723 28.7273 17.6597 26.7702 13.4509Z" fill="#232323"/>
    <path d="M51.7748 26.51C48.8086 23.45 45.7332 29.4964 45.3357 29.4964L43.1099 36.5692C47.2966 33.7925 55.1162 29.957 51.7748 26.51Z" fill="#FFA19A"/>
    <path d="M46.1815 31.4029C47.5508 30.9892 48.8333 30.3819 50.0147 29.5736C50.527 29.223 50.0421 28.3815 49.525 28.7357C48.4089 29.4987 47.2192 30.0764 45.9248 30.4674C45.3269 30.6469 45.5813 31.5835 46.1815 31.4029Z" fill="#232323"/>
    <path d="M28.8904 36.5834C30.6817 37.9593 33.2375 36.5272 33.0702 34.2982C33.0193 33.6174 31.9518 33.6122 32.0027 34.2982C32.1138 35.7759 30.5863 36.5508 29.4287 35.6623C28.8851 35.2442 28.3533 36.1705 28.8904 36.5834Z" fill="#232323"/>
    <path d="M29.6247 27.5215C28.0297 28.7975 25.7096 31.5932 29.1897 32.5676" stroke="#232323" stroke-width="1.08" stroke-linecap="round"/>
    <path d="M32.3356 26.1779C33.0967 24.3514 35.4115 24.2005 37.1199 24.5184C39.0404 24.8761 40.5238 26.1629 40.7818 28.1296C40.8635 28.7524 39.8861 28.7624 39.8052 28.1461C39.4655 25.5565 34.3241 23.9276 33.1838 26.6646C32.942 27.2435 32.0961 26.7525 32.3356 26.1779Z" fill="#232323"/>
    <path d="M33.2982 25.083C33.0092 24.6848 32.7889 24.25 32.6172 23.7894C32.5253 23.542 32.7145 23.2535 32.9533 23.1853C33.224 23.108 33.4643 23.2737 33.5571 23.5225C33.6985 23.9037 33.9003 24.2571 34.139 24.5868C34.2939 24.8009 34.1792 25.1309 33.9667 25.2553C33.7219 25.3998 33.4531 25.2971 33.2982 25.083Z" fill="#232323"/>
    <path d="M36.3395 24.2524C36.4317 23.8944 36.524 23.5364 36.6162 23.1784C36.7733 22.5689 37.7199 22.8129 37.5628 23.4223C37.4706 23.7803 37.3783 24.1383 37.286 24.4963C37.129 25.1058 36.1824 24.8618 36.3395 24.2524Z" fill="#232323"/>
    <path d="M39.7231 26.1492C40.0816 25.8561 40.459 25.6 40.874 25.3944C41.1105 25.2774 41.4014 25.3277 41.5425 25.5666C41.6689 25.7808 41.6078 26.1185 41.3702 26.2352C41.0332 26.4016 40.7071 26.598 40.4161 26.8356C40.2123 27.003 39.9265 27.0381 39.7248 26.8379C39.5545 26.6692 39.5179 26.3175 39.7231 26.1492Z" fill="#232323"/>
    <circle cx="1.42785" cy="1.42785" r="1.42785" transform="matrix(-0.968363 -0.249546 -0.249546 0.968363 36.8457 26.3169)" fill="#232323"/>
    <path d="M19.2849 23.3981C20.0459 21.5717 22.3607 21.4207 24.0691 21.7386C25.9896 22.0964 27.4731 23.3831 27.731 25.3498C27.8127 25.9726 26.8353 25.9826 26.7544 25.3663C26.4148 22.7767 21.2733 21.1479 20.1331 23.8848C19.8912 24.4638 19.0454 23.9727 19.2849 23.3981Z" fill="#232323"/>
    <path d="M20.2475 22.3023C19.9584 21.9041 19.7381 21.4692 19.5665 21.0086C19.4745 20.7613 19.6638 20.4727 19.9025 20.4045C20.1732 20.3273 20.4135 20.493 20.5063 20.7417C20.6477 21.1229 20.8495 21.4764 21.0882 21.806C21.2431 22.0201 21.1284 22.3501 20.916 22.4745C20.6712 22.619 20.4023 22.5164 20.2475 22.3023Z" fill="#232323"/>
    <path d="M23.2877 21.4721C23.38 21.1141 23.4722 20.7561 23.5645 20.3981C23.7215 19.7887 24.6681 20.0326 24.5111 20.642C24.4188 21 24.3265 21.358 24.2343 21.7161C24.0772 22.3255 23.1307 22.0816 23.2877 21.4721Z" fill="#232323"/>
    <path d="M26.6723 23.3685C27.0308 23.0754 27.4082 22.8192 27.8232 22.6136C28.0597 22.4966 28.3507 22.5469 28.4917 22.7859C28.6181 23.0001 28.5571 23.3377 28.3194 23.4544C27.9825 23.6208 27.6563 23.8173 27.3653 24.0549C27.1615 24.2223 26.8757 24.2574 26.674 24.0571C26.5037 23.8884 26.4671 23.5368 26.6723 23.3685Z" fill="#232323"/>
    <circle cx="1.42785" cy="1.42785" r="1.42785" transform="matrix(-0.968363 -0.249546 -0.249546 0.968363 25.708 24.0596)" fill="#232323"/>
    <path d="M26.5787 57.451C28.11 51.6045 30.2328 43.2987 31.1028 39.8766L47.1111 32.9165L47.6331 53.8839C39.4549 57.132 25.0475 63.2975 26.5787 57.451Z" fill="#FFA19A"/>
    <path d="M23.0127 42.1379C25.1587 43.6169 30.5931 45.1628 36.585 41.8769C38.238 40.9704 41.2831 38.7448 41.9791 37.0918" stroke="#232323" stroke-width="1.08" stroke-linecap="round"/>
    <ellipse cx="22.2552" cy="29.1704" rx="2.00521" ry="1.64062" fill="#FF7676"/>
    <ellipse cx="37.7493" cy="31.1768" rx="2.00521" ry="1.64062" fill="#FF7676"/>
  </g>
  <defs>
    <clipPath id="clip0_1001_4459">
      <rect x="0.379883" y="0.369141" width="70" height="70" rx="35" fill="white"/>
    </clipPath>
  </defs>
</svg>