<svg xmlns="http://www.w3.org/2000/svg" width="41" height="40" viewBox="0 0 41 40" fill="none">
  <g clip-path="url(#clip0_275_11430)">
    <path d="M35.0043 10.7063C37.2597 14.8243 37.6477 19.9221 36.8717 24.53C36.3383 27.673 34.8752 30.584 32.6712 32.8874C28.1554 37.5971 20.7051 39.0668 14.6081 36.7435C8.51112 34.4201 4.00021 28.5802 2.92826 22.1485C2.92826 22.1485 2.44321 2.68365 20.5208 3.01348C20.5208 3.01348 30.4157 2.32956 35.0043 10.7063Z" fill="#FFBF90"/>
    <path d="M25.298 22.7389C25.2235 24.9261 27.16 26.8275 29.6364 26.9891C32.1129 27.1507 34.1797 25.4978 34.2914 23.2608C34.4031 21.0239 32.4294 19.1722 29.9623 19.0106C27.4951 18.8491 25.3631 20.5516 25.298 22.7389Z" fill="#FF8898"/>
    <path d="M16.6757 20.9669C16.5305 23.1506 14.4131 24.8483 11.933 24.7607C9.45279 24.6732 7.56213 22.8214 7.67525 20.5845C7.78838 18.3476 9.9378 16.7031 12.4087 16.7898C14.8796 16.8764 16.8301 18.7841 16.6757 20.9669Z" fill="#FF8898"/>
    <path d="M5.60074 25.5337C5.17367 25.9978 4.61555 26.3211 4.00046 26.4605C3.38538 26.6 2.74242 26.5491 2.15693 26.3146C1.58097 26.0608 1.09529 25.6386 0.763721 25.1036C0.432156 24.5686 0.270224 23.9458 0.299208 23.3171C0.337505 22.9444 0.415557 22.5769 0.532029 22.2209C0.601399 21.9613 0.704114 21.7119 0.837607 21.4787C1.11121 21.1139 1.49246 20.8441 1.92759 20.7074C2.36271 20.5708 2.82975 20.5742 3.26283 20.7172C4.31275 21.0997 5.25463 21.7304 6.00818 22.5555L5.60074 25.5337Z" fill="#FFBF90"/>
    <path d="M34.8633 26.5575C35.248 27.0614 35.7813 27.4319 36.3879 27.6165C36.9944 27.8011 37.6437 27.7906 38.2439 27.5864C38.8442 27.3822 39.3652 26.9946 39.7333 26.4785C40.1015 25.9623 40.2982 25.3435 40.2958 24.7094C40.287 24.3348 40.2366 23.9622 40.1455 23.5987C40.0935 23.3362 40.0071 23.0818 39.8884 22.842C39.6429 22.4615 39.2847 22.1673 38.8638 22.0003C38.4429 21.8333 37.9803 21.802 37.5408 21.9107C36.4645 22.2181 35.4791 22.7824 34.6693 23.555L34.8633 26.5575Z" fill="#FFBF90"/>
    <circle cx="20.8733" cy="28.5" r="5.5" fill="#7981AC"/>
    <path d="M19.7959 26.9999C18.7076 27.4324 18.1682 29.4644 19.3842 30.175C20.7959 30.9999 22.0446 29.1562 22.0446 28.308" stroke="#232323" stroke-width="1.81835" stroke-linecap="round"/>
    <path d="M19.5039 21.1047C19.8212 20.6196 20.6982 19.698 21.6683 19.892C22.6384 20.0861 23.0426 21.2663 23.1234 21.8322" stroke="#232323" stroke-width="1.81835" stroke-linecap="round"/>
    <path d="M26.3544 20.3303C27.7393 19.2562 31.0578 18.0129 33.2522 21.6321" stroke="#232323" stroke-width="1.82" stroke-linecap="round"/>
    <path d="M16.3088 19.028C15.2053 17.6663 12.2578 15.6989 9.29586 18.7223" stroke="#232323" stroke-width="1.82" stroke-linecap="round"/>
    <path d="M15.8733 26C15.04 27.8333 13.9122 31.8561 18.296 33.5C22.296 35 25.3733 31.5 25.8733 29.5" stroke="#232323" stroke-width="1.82" stroke-linecap="round"/>
    <circle cx="29.7236" cy="17.2107" r="2" transform="rotate(6.40882 29.7236 17.2107)" fill="#232323"/>
    <circle cx="2" cy="2" r="2" transform="matrix(-0.993018 -0.117963 -0.117963 0.993018 15.9618 13.4717)" fill="#232323"/>
    <path d="M21.7959 5.49982C22.7959 3.66648 25.2959 1.39985 29.2959 2.99985" stroke="#232323" stroke-width="1.82" stroke-linecap="round"/>
  </g>
  <defs>
    <clipPath id="clip0_275_11430">
      <rect width="40" height="40" fill="white" transform="translate(0.295898)"/>
    </clipPath>
  </defs>
</svg>