<svg width="301" height="280" viewBox="0 0 301 280" fill="none" xmlns="http://www.w3.org/2000/svg">
<g clip-path="url(#clip0_908_2875)">
<mask id="mask0_908_2875" style="mask-type:alpha" maskUnits="userSpaceOnUse" x="0" y="1" width="297" height="277">
<path d="M287 141.3C287 216.686 225.887 277.8 150.5 277.8C75.1129 277.8 13.9998 216.686 13.9998 141.3C1.99986 93 -14.5002 58.5 27.4998 37C52.5211 8.37858 109.497 1 150.5 1C195.65 1 257.652 15.2205 282.5 49C299.14 71.6221 301.5 119.5 287 141.3Z" fill="#D9D9D9"/>
</mask>
<g mask="url(#mask0_908_2875)">
<path d="M277.402 89.5929C278.749 90.6737 279.556 91.9164 279.912 93.2483C280.267 94.5725 280.161 95.9264 279.781 97.2153C279.19 99.2212 277.917 101.137 276.52 102.7C280.169 101.824 283.379 101.429 286.015 101.954C287.544 102.259 288.894 102.876 290.02 103.893C291.144 104.909 292.005 106.288 292.615 108.059C293.317 110.096 293.215 111.861 292.488 113.332C291.77 114.784 290.49 115.855 289.009 116.62C286.408 117.963 283.008 118.456 280.223 118.347C281.759 119.747 283.218 121.589 284.079 123.645C285.101 126.083 285.295 128.871 283.705 131.523C282.819 133 281.592 133.878 280.157 134.245C278.748 134.606 277.196 134.46 275.645 134.012C272.917 133.226 270.024 131.458 267.547 129.458C267.84 131.922 267.753 134.871 266.806 137.279C266.244 138.71 265.36 139.991 264.033 140.837C262.698 141.688 260.992 142.049 258.885 141.777C255.304 141.316 252.573 139.401 251 136.653C249.57 134.154 249.122 131.013 249.792 127.723C247.106 130.103 243.758 131.455 240.666 131.7C237.318 131.966 234.097 130.932 232.488 128.26C231.457 126.547 231.435 124.789 232.036 123.141C232.625 121.525 233.808 120.02 235.183 118.698C237.588 116.387 240.734 114.495 242.921 113.413C237.416 110.359 234.747 106.709 233.94 103.284C233.096 99.7041 234.319 96.4685 236.293 94.6844C239.038 92.2031 242.333 92.2566 245.296 93.2662C247.647 94.0674 249.868 95.49 251.616 96.8409C250.926 94.6661 250.563 92.2459 250.864 90.2309C251.051 88.9794 251.506 87.8081 252.38 86.9761C253.274 86.1256 254.512 85.7198 256.065 85.8326C258.034 85.9757 259.766 87.1551 261.033 88.6684C262.117 89.9636 262.916 91.5663 263.265 93.1512C264.922 90.8337 267.135 89.0861 269.516 88.2806C272.153 87.3887 274.995 87.6599 277.402 89.5929Z" fill="#FFC15B" stroke="white" stroke-width="1.51052" stroke-linecap="round" stroke-linejoin="round"/>
<path fill-rule="evenodd" clip-rule="evenodd" d="M255.837 116.345C256.845 116.037 257.912 116.605 258.22 117.613C258.426 118.285 258.927 118.876 259.431 119.085C259.743 119.215 260.439 119.37 261.633 118.271C262.409 117.557 263.616 117.607 264.33 118.383C265.044 119.158 264.994 120.366 264.219 121.08C262.188 122.949 259.95 123.435 257.967 122.612C256.178 121.869 255.026 120.224 254.569 118.729C254.261 117.721 254.829 116.653 255.837 116.345Z" fill="black"/>
<mask id="mask1_908_2875" style="mask-type:alpha" maskUnits="userSpaceOnUse" x="254" y="116" width="11" height="7">
<path fill-rule="evenodd" clip-rule="evenodd" d="M255.837 116.345C256.845 116.037 257.912 116.605 258.22 117.613C258.426 118.285 258.927 118.876 259.431 119.085C259.743 119.215 260.439 119.37 261.633 118.271C262.409 117.557 263.616 117.607 264.33 118.383C265.044 119.158 264.994 120.366 264.219 121.08C262.188 122.949 259.95 123.435 257.967 122.612C256.178 121.869 255.026 120.224 254.569 118.729C254.261 117.721 254.829 116.653 255.837 116.345Z" fill="black"/>
</mask>
<g mask="url(#mask1_908_2875)">
<path d="M259.702 121.33C258.649 119.563 256.056 119.782 254.891 120.112L260.162 125.811C260.447 125.053 260.754 123.096 259.702 121.33Z" fill="#FF5959"/>
</g>
<mask id="mask2_908_2875" style="mask-type:alpha" maskUnits="userSpaceOnUse" x="262" y="105" width="13" height="13">
<circle cx="268.636" cy="111.869" r="6.03181" transform="rotate(10.1623 268.636 111.869)" fill="white"/>
</mask>
<g mask="url(#mask2_908_2875)">
<circle cx="268.636" cy="111.869" r="6.03181" transform="rotate(10.1623 268.636 111.869)" fill="white"/>
<circle cx="263.925" cy="109.991" r="6.19478" transform="rotate(10.1623 263.925 109.991)" fill="black"/>
<circle cx="269.452" cy="109.643" r="1.84652" transform="rotate(10.1623 269.452 109.643)" fill="white"/>
</g>
<mask id="mask3_908_2875" style="mask-type:alpha" maskUnits="userSpaceOnUse" x="249" y="102" width="13" height="13">
<circle cx="255.404" cy="108.926" r="6.03181" transform="rotate(10.1623 255.404 108.926)" fill="white"/>
</mask>
<g mask="url(#mask3_908_2875)">
<circle cx="255.404" cy="108.926" r="6.03181" transform="rotate(10.1623 255.404 108.926)" fill="white"/>
<circle cx="250.693" cy="107.048" r="6.19478" transform="rotate(10.1623 250.693 107.048)" fill="black"/>
<circle cx="256.1" cy="106.678" r="1.84652" transform="rotate(10.1623 256.1 106.678)" fill="white"/>
</g>
<path d="M84.9662 207.982C85.8633 231.484 105.374 240.981 115.018 242.792C143.728 251.007 203.159 264.035 211.196 250.424C221.242 233.411 227.692 206.901 218.642 190.122C209.592 173.344 178.774 151.246 157.2 146.237C135.625 141.229 113.242 147.992 103.621 158.194C93.9999 168.396 83.8448 178.604 84.9662 207.982Z" fill="#FFCCD3"/>
<path d="M95.6726 241.257C100.333 223.746 104.051 221.563 104.051 221.563C142.877 210.371 228.683 191.767 234.235 205.874C239.164 218.398 243.71 232.038 240.982 260.683L233.985 301.811L136.563 310.089L93.6246 294.593C92.0659 284.823 90.5391 260.545 95.6726 241.257Z" fill="#FFCCD3"/>
<path d="M142.249 61.1192C145.546 60.307 147.104 58.3574 147.471 57.4842C148.397 80.3585 189.023 108.239 212.144 105.167C235.264 102.094 248.627 93.5576 251.554 81.9939C254.48 70.4302 253.543 61.178 240.983 55.9635C246.829 56.8621 254.366 55.1995 254.962 46.0004C255.558 36.8012 245.167 28.6316 234.44 23.3982C223.712 18.1649 193.923 6.51721 172.179 7.68475C153.453 8.69021 134.13 16.1401 129.826 37.7288C125.522 59.3175 138.128 62.1345 142.249 61.1192Z" fill="#232323"/>
<path d="M156.603 86.967C178.909 84.5701 196.274 92.4349 201.517 94.6318C224.147 104.114 236.324 123.448 245.961 139.577C265.175 171.733 262.356 206.117 233.412 231.471C204.467 256.825 147.865 239.364 115.452 225.33C83.0392 211.296 82.6742 198.678 82.7155 176.106C82.7625 150.409 83.8499 140.775 95.2181 128.994C109.575 114.115 134.975 89.2911 156.603 86.967Z" fill="#FFCCD3"/>
<path d="M96.0005 171.616C101.956 166.338 111.221 160.856 118.898 160.363L135.351 199.69L121.903 250.237C100.231 245.073 86.8386 225.756 85.3781 208.348C83.9175 190.939 90.0448 176.895 96.0005 171.616Z" fill="#FFCCD3"/>
<path d="M118.898 160.363C111.221 160.856 101.956 166.338 96.0005 171.616C90.0448 176.895 83.9175 190.939 85.3781 208.348C86.8386 225.756 100.231 245.073 121.903 250.237" stroke="black" stroke-width="1.6" stroke-linecap="round" stroke-linejoin="round"/>
<path d="M199.273 196.71C211.433 189.062 220.625 181.387 223.479 162.66L248.563 165.412C243.851 208.349 228.341 226.006 189.926 236.782C151.511 247.559 124.787 220.699 124.128 218.717C123.948 218.175 124.019 217.533 124.263 216.951C124.733 215.83 125.842 214.928 127.028 215.377C126.347 215.119 124.616 213.483 124.851 211.451C125.036 209.847 126.121 208.927 127.202 208.709C126.946 208.396 126.879 207.697 127.021 206.941C127.383 205.018 129.093 202.723 132.46 205.44C136.838 208.974 145.806 214.037 150.11 215.307C145.1 213.627 135.843 206.612 133.351 203.449C132.008 201.746 131.735 200.209 132.151 199.117C132.902 197.148 135.899 196.627 138.911 199.191C144.203 203.697 152.128 207.45 158.333 208.868C141.638 202.52 144.061 197.42 145.134 195.652C146.408 193.551 149.569 193.279 153.377 196.39C158.215 200.34 180.357 208.608 199.273 196.71Z" fill="#FF8898"/>
<path d="M153.377 196.39C149.569 193.28 146.408 193.551 145.134 195.652M153.377 196.39C153.944 198.892 146.101 199.458 145.134 195.652M153.377 196.39C156.338 198.808 173.25 206.132 189.399 201.243M145.134 195.652C144.061 197.421 141.638 202.52 158.333 208.868C152.128 207.45 144.204 203.697 138.911 199.192M138.911 199.192C135.899 196.627 132.903 197.148 132.152 199.118M138.911 199.192C137.444 202.47 133.793 200.508 132.152 199.118M132.46 205.44C136.838 208.974 145.807 214.037 150.11 215.308C145.1 213.627 135.843 206.612 133.351 203.45C132.009 201.746 131.735 200.209 132.152 199.118M132.46 205.44C129.094 202.723 127.383 205.019 127.021 206.941M132.46 205.44C132.771 209.016 129.742 209.002 127.021 206.941M127.202 208.709C126.121 208.928 125.036 209.847 124.851 211.451M127.202 208.709C126.946 208.396 126.879 207.697 127.021 206.941M127.202 208.709C127.584 209.122 128.278 209.787 129.24 210.605M124.851 211.451C124.616 213.483 126.347 215.12 127.028 215.377M124.851 211.451C125.993 213.087 130.12 213.81 129.24 210.605M127.028 215.377C125.842 214.928 124.733 215.83 124.263 216.951M127.028 215.377C127.568 215.81 128.281 216.374 129.106 217.017M144.264 219.578C137.614 217.025 132.179 213.102 129.24 210.605M139.067 224.28C136.035 222.314 131.918 219.207 129.106 217.017M124.263 216.951C124.019 217.534 123.948 218.175 124.128 218.718C130.297 225.836 148.222 239.959 170.576 239.507M124.263 216.951C125.508 218.773 129.349 219.93 129.106 217.017" stroke="black" stroke-width="1.6" stroke-linecap="round" stroke-linejoin="round"/>
<path d="M212.99 185.294C217.256 181.905 219.592 167.76 218.799 163.518C212.079 141.397 211.275 103.916 224.404 112.446C237.533 120.977 259.189 151.941 255.568 184.935C253.002 208.326 247.453 217.206 231.127 230.509C219.067 240.337 199.152 244.22 190.223 243.468C189.021 243.367 187.968 242.681 187.345 241.648C180.387 230.123 179.035 208.255 179.159 198.229C179.189 195.808 181.178 194.033 183.598 194.064C190.766 194.158 202.448 193.668 212.99 185.294Z" fill="#FFCCD3"/>
<path fill-rule="evenodd" clip-rule="evenodd" d="M184.51 88.8457C192.123 90.6561 197.815 93.0655 200.8 94.3292C201.06 94.4391 201.299 94.5404 201.518 94.6318C208.17 97.4194 213.919 101.058 218.966 105.217C219.987 107.617 220.348 110.32 219.385 113.14C216.839 120.596 209.61 119.429 206.313 117.914C207.261 120.301 208.041 125.803 203.585 128.712C198.076 132.31 194.124 128.013 191.509 125.169L191.423 125.075C191.309 128.826 188.126 132.918 182.102 131.895C176.077 130.872 176.532 115.527 179.942 109.275C166.188 121.21 157.663 121.779 155.844 118.937C154.025 116.095 155.503 113.026 159.595 109.275C154.594 110.071 151.638 107.911 151.411 106.32C151.405 106.277 151.398 106.233 151.392 106.188C151.156 104.563 150.722 101.568 154.594 98.249C157.776 95.5209 164.559 94.3842 167.552 94.1569L184.51 88.8457Z" fill="#FFEDF0"/>
<path d="M89.3122 136.403C92.2179 136.643 95.4808 145.038 96.749 149.205C98.2938 152.264 102.173 161.001 105.331 171.479C109.279 184.576 99.8469 183.085 95.0411 177.444C76.9636 158.839 81.7077 142.071 82.8561 139.711C84.0044 137.352 85.68 136.103 89.3122 136.403Z" fill="#FFCCD3"/>
<rect x="171.303" y="71.3374" width="19.2275" height="42.4483" rx="9.61377" transform="rotate(-8.27635 171.303 71.3374)" fill="#FF8898"/>
<path d="M211.197 146.605C214.492 152.369 220.35 167.77 211.064 180.588C203.501 191.027 191.101 191.726 183.606 191.651C181.185 191.627 179.214 193.392 179.186 195.812C179.033 208.687 180.773 242.767 191.696 243.818C191.997 243.847 192.29 243.874 192.589 243.92C200.991 245.212 232.75 239.578 246.999 216.157" stroke="black" stroke-width="1.6" stroke-linecap="round"/>
<circle cx="203.841" cy="72.8662" r="10.2303" transform="rotate(6.53529 203.841 72.8662)" fill="#FF8898"/>
<path d="M143.217 60.658C143.088 35.8156 154.416 22.8611 170.463 23.3225C186.51 23.7838 199.144 37.1661 198.683 53.2128L198.213 69.5568C197.751 85.6034 184.369 98.2378 168.322 97.7765C152.276 97.3152 143.345 85.5004 143.217 60.658Z" fill="#FF8898"/>
<path fill-rule="evenodd" clip-rule="evenodd" d="M149.766 88.31C147.333 84.7942 145.554 80.2769 144.47 74.7185C145.807 73.9278 147.404 73.5508 149.066 73.7413C153.12 74.2057 156.03 77.8687 155.566 81.9227C155.195 85.1594 152.785 87.6668 149.766 88.31ZM188.596 77.1102C188.09 81.5278 184.098 84.6987 179.681 84.1926C175.263 83.6865 172.092 79.6951 172.598 75.2775C173.104 70.8599 177.096 67.689 181.513 68.1951C185.931 68.7012 189.102 72.6926 188.596 77.1102Z" fill="#FF687C"/>
<path d="M152.825 91.7351C155.953 94.725 163.689 99.5375 173.794 97.4553C181.645 95.8376 186.645 91.1473 188.749 88.7569" stroke="black" stroke-width="1.6" stroke-linecap="round"/>
<path d="M159.926 69.2493C159.211 71.8335 157.802 77.3281 157.885 78.6325C157.988 80.263 163.525 82.5161 165.05 77.6441" stroke="black" stroke-width="1.6" stroke-linecap="round" stroke-linejoin="round"/>
<path d="M149.024 59.3739C150.388 56.9868 153.911 55.8502 156.78 58.1489M163.514 58.9204C163.876 58.2205 165.131 56.7148 167.262 56.2917C169.393 55.8685 170.977 57.2269 171.502 57.959" stroke="black" stroke-width="1.6" stroke-linecap="round" stroke-linejoin="round"/>
<path d="M164.192 87.1285C166.418 87.7964 170.159 87.9724 172.742 85.68C174.999 83.6756 175.349 80.6265 175.191 79.0066" stroke="black" stroke-width="1.6" stroke-linecap="round" stroke-linejoin="round"/>
<path d="M207.99 71.5109C206.815 71.0362 204.616 70.3509 202.753 70.2829M202.753 70.2829C201.9 70.2517 201.118 70.35 200.537 70.6571C198.223 71.8794 198.547 76.0354 200.858 75.8425C202.706 75.6881 202.892 72.0717 202.753 70.2829Z" stroke="black" stroke-width="1.6" stroke-linecap="round" stroke-linejoin="round"/>
<path d="M158.057 54.5763C153.707 53.9791 153.46 50.0589 153.881 48.1734C152.497 50.6068 150.279 52.8212 147.371 52.4881C144.463 52.1549 142.673 48.494 143.268 44.3658C143.864 40.2376 146.532 29.8054 152.869 24.8539C159.206 19.9024 167.162 21.184 171.702 27.6285C176.242 34.073 176.53 52.9898 170.668 53.7993C165.978 54.4469 164.792 51.1514 164.786 49.4227C164.356 51.3894 162.408 55.1735 158.057 54.5763Z" fill="#232323"/>
<path d="M184.152 45.8975C182.615 40.1381 177.331 35.6198 174.056 35.2446C164.57 34.1579 164.998 26.9989 165.15 23.0118C172.532 21.493 189.198 20.2292 196.806 27.3248C206.316 36.1944 208.862 47.9273 208.596 52.2446C208.33 56.5618 207.163 63.7506 198.912 64.8648C190.661 65.979 186.073 53.0968 184.152 45.8975Z" fill="#232323"/>
<path d="M66.3772 165.492C73.9786 154.777 91.6993 139.976 99.6094 133.915C114.022 124.106 129.691 127.762 115.371 153.095C87.8963 201.703 72.4056 197.076 66.3085 194.221C60.2115 191.366 56.8754 178.886 66.3772 165.492Z" fill="#FF8898"/>
<path d="M53.8231 167.065C59.2118 154.067 71.723 144.635 77.305 141.543L83.8712 139.055C81.4528 141.459 78.4443 149.797 85.7583 163.913C93.0722 178.03 101.418 180.979 104.677 180.688C101.901 184.495 94.1819 194.045 85.5166 201.786C74.6851 211.464 59.5569 206.499 55.972 201.152C52.387 195.804 47.0873 183.314 53.8231 167.065Z" fill="#FFCCD3"/>
<path d="M123.886 101.338C125.266 103.664 122.967 109.285 121.76 111.377C116.02 120.231 106.04 122.677 103.253 122.835C100.466 122.993 94.0664 121.965 93.6918 117.255C93.3921 113.487 97.64 111.278 99.8015 110.644C97.9446 109.575 94.7938 106.605 97.0453 103.274C99.2968 99.9425 103.259 101.185 104.959 102.222C104.186 100.38 104.424 96.1216 106.959 95.0269C110.935 93.31 114.322 96.1791 115.306 99.5508C117.613 97.4648 121.938 98.0531 123.886 101.338Z" fill="#C3EAFF"/>
<path fill-rule="evenodd" clip-rule="evenodd" d="M104.734 112.838C104.384 108.709 107.447 105.079 111.575 104.728L135.4 102.707C139.529 102.357 143.159 105.42 143.51 109.548L143.86 113.682L144.118 113.66C145.87 113.512 147.41 114.811 147.558 116.563L147.779 119.156C147.927 120.908 146.628 122.448 144.876 122.597L144.619 122.619L144.789 124.622L144.891 124.614C146.642 124.465 148.183 125.764 148.331 127.516L148.551 130.11C148.7 131.861 147.401 133.401 145.649 133.55L145.547 133.559L147.753 159.566C148.104 163.695 145.041 167.326 140.912 167.676L117.087 169.697C112.959 170.047 109.328 166.985 108.978 162.856L104.734 112.838Z" fill="#39414A"/>
<rect x="110.328" y="110.947" width="10.8283" height="12.6919" rx="3.18275" transform="rotate(-4.84947 110.328 110.947)" fill="#232323"/>
<path d="M98.6942 134.144C91.3123 139.21 84.8746 148.536 83.162 155.724C88.8619 161.212 91.2395 167.412 95.9932 166.591C101.843 165.579 108.759 156.662 109.339 154.229C111.34 153.187 113.582 156.526 115.531 155.705C113.635 168.389 127.347 159.476 130.85 156.097C131.561 156.868 133.542 158.018 135.781 156.451C139.961 153.287 134.807 143.197 131.707 138.548C132.855 139.131 135.841 140.968 138.597 143.65C142.043 147.002 145.478 146.582 146.661 143.145C147.844 139.708 135.274 127.077 123.812 125.68C112.047 124.246 107.922 127.812 98.6942 134.144Z" fill="#FF8898"/>
<path d="M98.6942 134.144C107.922 127.812 112.047 124.246 123.812 125.68C130.818 126.534 138.237 131.585 142.677 136.168M131.707 138.548C132.855 139.131 135.841 140.968 138.597 143.65C142.043 147.002 145.478 146.582 146.661 143.145C146.739 142.919 146.757 142.652 146.72 142.352M131.707 138.548C127.187 133.055 119.238 132.213 115.828 132.479M131.707 138.548C133.592 141.375 136.236 146.213 137.08 150.283M130.85 156.097C132 154.988 132.466 150.528 129.103 145.618C124.545 138.964 118.107 137.917 115.458 138.226M130.85 156.097C128.784 158.09 125.159 160.844 121.73 161.793M130.85 156.097C131.255 156.536 132.073 157.099 133.116 157.211M97.31 166.162C104.306 163.385 109.297 156.987 109.511 153.488C117.399 159.315 124.216 152.56 122.157 153.052C115.569 154.347 114.941 158.416 115.45 160.289C115.73 160.628 116.03 160.915 116.348 161.154M113.737 145.256C114.36 145.316 121.22 145.229 124.397 149.089C127.573 152.95 125.18 159.094 121.73 161.793M121.73 161.793C119.76 162.338 117.856 162.287 116.348 161.154M121.73 161.793C121.072 160.798 119.076 159.276 116.348 161.154M133.116 157.211C133.903 157.296 134.818 157.125 135.781 156.451C137.42 155.21 137.624 152.907 137.08 150.283M133.116 157.211C132.929 155.57 133.461 151.886 137.08 150.283M146.72 142.352C145.765 142.756 143.527 142.985 142.219 140.67C140.91 138.355 141.979 136.704 142.677 136.168M146.72 142.352C146.537 140.879 145.023 138.589 142.677 136.168" stroke="black" stroke-width="1.6" stroke-linecap="round" stroke-linejoin="round"/>
<path d="M88.772 136.24C85.7038 136.366 79.4286 139.844 81.6708 152.31C83.9326 164.885 94.0212 176.325 95.541 177.466C98.346 180.08 102.472 181.467 104.896 180.381M105.136 170.054C106.114 172.001 107.733 176.516 106.393 179.001C106.046 179.644 105.529 180.097 104.896 180.381M104.896 180.381C99.4924 188.018 86.2547 203.882 76.5318 206.24" stroke="black" stroke-width="1.6" stroke-linecap="round"/>
<path d="M84.7756 137.579C82.126 138.418 75.8332 141.237 71.8586 145.803" stroke="black" stroke-width="1.6" stroke-linecap="round"/>
<path d="M155.36 154.54C160.972 155.971 174.798 161.144 185.213 170.383" stroke="black" stroke-width="1.6" stroke-linecap="round" stroke-linejoin="round"/>
<path d="M165.847 65.9668C165.43 67.5203 165.392 70.7864 168.575 71.4229C169.245 71.5569 169.847 71.5459 170.385 71.4229M174.145 65.3984C174.145 67.4781 173.044 70.8157 170.385 71.4229M173.122 69.8316L174.486 71.9913M170.385 71.4229L170.849 73.9237M156.299 66.5351C156.64 68.3538 156.503 72.1049 153.23 72.5596C153.031 72.5872 152.842 72.5993 152.661 72.5973M149.138 67.3308C149.138 68.3341 149.358 69.8276 150.029 70.9683M150.029 70.9683L149.138 73.128M150.029 70.9683C150.571 71.8915 151.408 72.5835 152.661 72.5973M152.661 72.5973L151.638 74.7193" stroke="black" stroke-width="1.6" stroke-linecap="round" stroke-linejoin="round"/>
<path d="M178.058 123.596C177.775 125.429 177.994 129.577 181.137 131.514C185.067 133.935 192.577 129.828 191.438 124.532C194.992 130.98 200.703 131.208 205.025 127.459C208.482 124.459 207.306 119.735 206.285 117.747C209.644 119.407 217.071 120.737 219.91 112.776C222.389 105.826 215.208 101.42 211.082 100.717" stroke="black" stroke-width="1.6" stroke-linecap="round" stroke-linejoin="round"/>
<path d="M167.552 118.094C164.215 119.845 157.094 122.296 155.302 118.094C153.509 113.892 157.941 110.34 160.381 109.089C157.294 109.739 151.178 109.96 151.417 105.637" stroke="black" stroke-width="1.6" stroke-linecap="round" stroke-linejoin="round"/>
<path fill-rule="evenodd" clip-rule="evenodd" d="M8.03841 62.5048C1.76196 66.894 0.23203 75.5402 4.62123 81.8167L29.1815 116.937C33.5707 123.214 42.217 124.744 48.4934 120.355L80.9455 97.6604C84.6684 102.306 91.4107 103.325 96.3597 99.8637C101.309 96.4028 102.666 89.7204 99.5797 84.6293L118.517 71.3864C124.793 66.9972 126.323 58.3509 121.934 52.0745L97.3737 16.9538C92.9845 10.6773 84.3382 9.14742 78.0618 13.5366L8.03841 62.5048Z" fill="#C3EAFF"/>
<path d="M13.7064 67.9456C21.841 57.3018 33.7804 59.2055 38.7332 61.4878C24.7559 38.4448 40.4029 27.9625 54.342 31.0057C68.281 34.0489 99.5357 83.2874 64.7158 96.4785C29.8959 109.67 3.53804 81.2504 13.7064 67.9456Z" fill="#65C4F4"/>
<path d="M72.4561 60.6211L58.2461 67.0375C57.0353 64.8983 58.1157 60.1111 62.0141 58.1634C68.2209 55.0623 71.4422 58.983 72.4561 60.6211Z" fill="white"/>
<mask id="mask4_908_2875" style="mask-type:alpha" maskUnits="userSpaceOnUse" x="57" y="57" width="16" height="11">
<path d="M72.4561 60.6216L58.2461 67.038C57.0353 64.8988 58.1157 60.1116 62.0141 58.1639C68.2209 55.0628 71.4422 58.9835 72.4561 60.6216Z" fill="white"/>
</mask>
<g mask="url(#mask4_908_2875)">
<circle cx="3.88363" cy="3.88363" r="3.88363" transform="matrix(0.944744 -0.32781 -0.32781 -0.944744 66.522 65.7329)" fill="black"/>
</g>
<path d="M55.0889 76.1118L40.8789 82.5282C39.6681 80.389 40.7485 75.6018 44.6469 73.6541C50.8537 70.553 54.075 74.4738 55.0889 76.1118Z" fill="white"/>
<mask id="mask5_908_2875" style="mask-type:alpha" maskUnits="userSpaceOnUse" x="40" y="72" width="16" height="11">
<path d="M55.0889 76.1123L40.8789 82.5287C39.6681 80.3895 40.7485 75.6023 44.6469 73.6546C50.8537 70.5535 54.075 74.4742 55.0889 76.1123Z" fill="white"/>
</mask>
<g mask="url(#mask5_908_2875)">
<circle cx="3.88363" cy="3.88363" r="3.88363" transform="matrix(0.944744 -0.32781 -0.32781 -0.944744 49.1548 81.2236)" fill="black"/>
</g>
<path d="M36.7808 79.1183C36.524 76.3636 39.3691 67.6916 46.3642 68.6456M58.7415 56.6007C59.2238 54.7527 61.4261 51.3786 66.3772 52.6657" stroke="black" stroke-width="1.6" stroke-linecap="round" stroke-linejoin="round"/>
<path d="M61.4182 78.6541C61.5636 79.568 62.9066 82.3808 65.3996 81.8871C67.3173 81.5073 67.5791 78.4979 67.1107 77.1119" stroke="black" stroke-width="1.6" stroke-linecap="round"/>
<path d="M56.9644 62.4365L53.9031 65.4155" stroke="white" stroke-width="1.6"/>
<circle cx="13.1807" cy="13.1807" r="12.3807" transform="matrix(-0.716667 0.697415 0.697415 0.716667 45.3184 55.7183)" stroke="white" stroke-width="1.6"/>
<circle cx="13.1807" cy="13.1807" r="12.3807" transform="matrix(-0.716667 0.697415 0.697415 0.716667 66.8105 36.5059)" stroke="white" stroke-width="1.6"/>
<path d="M112.839 61.1546C110.993 62.4594 109.171 62.597 108.49 62.5026L105.899 61.4931C103.071 63.4421 96.3682 67.1951 92.1827 66.6149C86.9507 65.8896 83.7733 59.7265 83.3892 54.9911C83.0052 50.2557 84.9358 45.7111 87.3743 45.0086C89.8127 44.3062 92.6871 43.274 94.2285 41.5368C93.2178 39.4458 93.3051 34.1254 94.2261 32.1721C95.1472 30.2188 97.4897 28.3326 100.464 29.3952C102.843 30.2452 104.41 33.4538 104.896 34.9519C105.119 34.5926 106.692 34.0043 111.198 34.5249C116.83 35.1756 120.036 39.2617 121.839 47.8354C123.641 56.4092 120.08 58.6467 118.368 58.7996C116.656 58.9524 115.146 59.5235 112.839 61.1546Z" fill="#65C4F4"/>
<path d="M104.931 34.6963C104.315 32.5732 102.078 28.448 98.0567 28.9311C93.0307 29.5349 92.3913 37.9002 94.4482 41.827C93.5071 43.3613 91.1358 44.1424 90.0678 44.3412M111.343 34.4146C109.653 34.0937 105.515 34.0489 102.479 36.4373C98.6833 39.4227 98.6668 44.2327 100.844 46.3553C101.39 46.8884 102.073 47.1788 102.793 47.3079M106.628 44.0357C105.709 44.4436 103.55 45.8755 102.793 47.3079M102.793 47.3079C102.264 48.3077 101.369 50.8241 102.019 52.8911C102.482 54.3648 103.915 55.2537 105.857 55.2282M110.887 51.7794C109.302 51.9499 106.815 53.556 105.857 55.2282M105.857 55.2282C104.541 57.5223 103.332 62.1775 109.018 62.4454" stroke="black" stroke-width="1.6" stroke-linecap="round"/>
</g>
</g>
<defs>
<clipPath id="clip0_908_2875">
<rect width="300" height="280" fill="white" transform="translate(0.5)"/>
</clipPath>
</defs>
</svg>
