<svg xmlns="http://www.w3.org/2000/svg" width="72" height="72" viewBox="0 0 72 72" fill="none">
  <path d="M69.8233 45.5V66.25C69.8233 69.0114 67.5847 71.25 64.8233 71.25H20.1327C17.397 71.25 15.1696 69.0519 15.1457 66.3163C15.1046 61.604 15.0731 54.9407 15.1983 53C15.4483 49.125 15.1983 44.75 16.5733 41.5C17.6733 38.9 19.5316 36.1667 20.3233 35.125L21.5733 30.875L52.1983 25C54.7399 25.625 60.7983 27.85 64.6983 31.75C68.5983 35.65 69.7399 42.5417 69.8233 45.5Z" fill="#C8A7F9"/>
  <path d="M61.6508 31.84C60.669 34.349 58.25 36 55.5558 36H54.0284C51.7238 36 50.1411 33.6812 50.9809 31.535V31.535C51.9627 29.026 54.3817 27.375 57.0759 27.375H58.6033C60.908 27.375 62.4906 29.6938 61.6508 31.84V31.84Z" stroke="#232323" stroke-width="2" stroke-linecap="round" stroke-linejoin="round"/>
  <path fill-rule="evenodd" clip-rule="evenodd" d="M48.232 15.793H49.3871C52.4248 15.793 54.5108 18.8492 53.4039 21.678C52.1099 24.985 48.9215 27.1611 45.3704 27.1611H43.283C39.5944 31.9189 33.8471 34.8555 27.5832 34.8555H13.3775C6.61341 34.8555 1.82869 28.2406 3.94601 21.8164L6.15156 15.1246C8.83528 6.98193 16.4411 1.48047 25.0146 1.48047H39.2202C45.9843 1.48047 50.7691 8.09538 48.6517 14.5195L48.232 15.793Z" fill="#C8A7F9"/>
  <path d="M48.232 15.793L47.2823 15.4799C47.1819 15.7847 47.2337 16.1191 47.4218 16.379C47.6098 16.639 47.9112 16.793 48.232 16.793V15.793ZM53.4039 21.678L54.3351 22.0424H54.3351L53.4039 21.678ZM43.283 27.1611V26.1611C42.9738 26.1611 42.6821 26.3041 42.4926 26.5484L43.283 27.1611ZM3.94601 21.8164L2.99627 21.5034L3.94601 21.8164ZM6.15156 15.1246L7.10131 15.4376L6.15156 15.1246ZM48.6517 14.5195L47.702 14.2065V14.2065L48.6517 14.5195ZM49.3871 14.793H48.232V16.793H49.3871V14.793ZM54.3351 22.0424C55.6987 18.5578 53.1291 14.793 49.3871 14.793V16.793C51.7206 16.793 53.3229 19.1407 52.4726 21.3136L54.3351 22.0424ZM45.3704 28.1611C49.3332 28.1611 52.8911 25.7328 54.3351 22.0424L52.4726 21.3136C51.3286 24.2373 48.5099 26.1611 45.3704 26.1611V28.1611ZM43.283 28.1611H45.3704V26.1611H43.283V28.1611ZM42.4926 26.5484C38.9893 31.0672 33.5312 33.8555 27.5832 33.8555V35.8555C34.1629 35.8555 40.1994 32.7705 44.0733 27.7738L42.4926 26.5484ZM27.5832 33.8555H13.3775V35.8555H27.5832V33.8555ZM13.3775 33.8555C7.29456 33.8555 2.99165 27.9067 4.89576 22.1294L2.99627 21.5034C0.66573 28.5744 5.93228 35.8555 13.3775 35.8555V33.8555ZM4.89576 22.1294L7.10131 15.4376L5.20182 14.8115L2.99627 21.5034L4.89576 22.1294ZM7.10131 15.4376C9.6499 7.70493 16.8727 2.48047 25.0146 2.48047V0.480469C16.0094 0.480469 8.02066 6.25893 5.20182 14.8115L7.10131 15.4376ZM25.0146 2.48047H39.2202V0.480469H25.0146V2.48047ZM39.2202 2.48047C45.3032 2.48047 49.6061 8.42927 47.702 14.2065L49.6015 14.8326C51.932 7.7615 46.6655 0.480469 39.2202 0.480469V2.48047ZM47.702 14.2065L47.2823 15.4799L49.1818 16.106L49.6015 14.8326L47.702 14.2065Z" fill="#232323"/>
  <path d="M51.5113 65.5C51.5113 65.5 60.4315 67.506 62.7741 62.2308C65.1168 56.9556 60.6486 53.2602 54.8529 53.2602L57.6338 43.4429C57.6338 43.4429 32.0747 35.8685 24.8407 49.0555C18.9817 59.736 32.0747 64.7849 32.0747 64.7849" stroke="#232323" stroke-width="2" stroke-linecap="round" stroke-linejoin="round"/>
  <path d="M35.8964 49.3467C35.6361 46.3236 34.5861 45.5151 32.486 43.8982" stroke="#232323" stroke-width="2" stroke-linecap="round" stroke-linejoin="round"/>
  <path d="M47.8597 52.3801C45.3968 50.6078 44.0993 50.8775 41.5043 51.4171" stroke="#232323" stroke-width="2" stroke-linecap="round" stroke-linejoin="round"/>
  <path d="M31.681 53.2882C31.6811 58.2535 36.6465 61.2327 40.6187 59.2465" stroke="#232323" stroke-width="2" stroke-linecap="round" stroke-linejoin="round"/>
  <path d="M16.1094 19.1592H20.7448M35.0374 19.1592H29.6616M20.7448 19.1592H25.5734H29.6616M20.7448 19.1592C20.7448 19.1592 14.2373 29.0738 22.1992 29.0738C29.2373 29.0736 29.6616 19.1592 29.6616 19.1592" stroke="#232323" stroke-width="2" stroke-linecap="round" stroke-linejoin="round"/>
  <path d="M27.8983 19.0302L29.3984 14.6533C29.3984 14.6533 32.4147 14.2021 33.0207 11.8749C33.6266 9.54775 31.8268 7.75209 28.931 7.75209C26.0353 7.75209 23.8001 7.95148 23.0833 10.5308C22.3665 13.1101 25.1633 14.303 25.1633 14.303L23.6491 19.0302" stroke="#232323" stroke-width="2" stroke-linecap="round" stroke-linejoin="round"/>
</svg>