<svg xmlns="http://www.w3.org/2000/svg" width="73" height="72" viewBox="0 0 73 72" fill="none">
  <g clip-path="url(#clip0_317_10264)">
    <path d="M63.9292 53.4631C53.108 69.7545 32.0251 75.4777 19.0737 66.875C6.12239 58.2723 -3.72651 40.7387 24.0749 11.6251C32.5078 2.79411 49.6222 -0.852757 62.5735 7.74995C75.5249 16.3527 74.7505 37.1718 63.9292 53.4631Z" fill="#FF8898"/>
    <circle cx="11.1992" cy="31.1504" r="4.25" fill="#FF8898"/>
    <path d="M42.0719 53.2719C30.3354 50.2006 33.1983 38.5642 34.8385 33.9787C35.2571 32.8082 36.3774 32.0896 37.6202 32.0652V32.0652C38.9805 32.0384 40.2163 32.8538 40.7268 34.115L45.164 45.0778L52.6219 39.5408C54.4691 38.1695 57.0294 38.301 58.7262 39.8546V39.8546C60.6268 41.5946 60.8146 44.5234 59.138 46.4802C55.7598 50.4228 50.3327 56.6817 47.2513 59.843C42.5467 64.6697 32.9816 61.6353 28.0155 57.3002C20.4038 50.6554 27.7351 43.0474 27.7351 43.0474" stroke="#232323" stroke-width="2" stroke-linecap="round" stroke-linejoin="round"/>
    <path d="M20.3038 55.2476V55.2476C16.3408 53.7521 15.1024 48.7516 17.9095 45.5795L25.6402 36.8436C27.8607 34.3343 31.8935 34.7673 33.5308 37.6906V37.6906" stroke="#232323" stroke-width="2" stroke-linecap="round" stroke-linejoin="round"/>
    <path d="M35.7123 31.9109C35.7123 31.9109 29.9489 22.1911 39.3571 17.2531C44.0616 14.7839 54.8749 12.0119 63.8853 21.9566C67.8643 26.7305 63.772 36.2329 59.1397 39.808" stroke="#232323" stroke-width="2" stroke-linecap="round" stroke-linejoin="round"/>
    <path d="M52.2732 32.9225C52.2732 32.9225 56.5369 35.3922 58.5082 33.7903C60.4795 32.1884 61.0511 29.307 57.2 27.8537" stroke="#232323" stroke-width="2" stroke-linecap="round" stroke-linejoin="round"/>
    <path d="M12.788 35.1305C12.788 35.1305 8.6197 36.0883 7.0989 33.4783C5.5781 30.8683 6.89969 27.0623 11.7948 27.0622" stroke="#232323" stroke-width="2" stroke-linecap="round" stroke-linejoin="round"/>
    <path d="M48.8697 26.6805C48.3944 24.8812 47.6862 24.5207 46.2698 23.7997" stroke="#232323" stroke-width="2" stroke-linecap="round" stroke-linejoin="round"/>
    <path d="M43.2301 20.2415C42.7548 18.4422 42.0466 18.0817 40.6302 17.3607" stroke="#232323" stroke-width="2" stroke-linecap="round" stroke-linejoin="round"/>
    <path d="M34.4497 4.75C34.4497 4.75 21.7255 11.1736 11.795 27.0625M13.4497 62.75C13.4497 62.75 3.10321 53.7163 8.51873 36" stroke="#232323" stroke-width="2" stroke-linecap="round" stroke-linejoin="round"/>
  </g>
  <defs>
    <clipPath id="clip0_317_10264">
      <rect width="71.5" height="71.5" fill="white" transform="translate(0.871094 0.25)"/>
    </clipPath>
  </defs>
</svg>