<svg xmlns="http://www.w3.org/2000/svg" width="73" height="72" viewBox="0 0 73 72" fill="none">
  <g clip-path="url(#clip0_317_10281)">
    <path d="M50.8456 66.375C46.7456 66.675 43.4706 64.75 42.3456 63.75C40.4706 64.625 35.6957 66.375 31.5957 66.375C27.4957 66.375 21.6374 62.4583 19.2207 60.5C16.8874 56.25 11.7707 46.7 9.97056 42.5C8.17044 38.3 12.3039 35.8333 14.5957 35.125L12.8457 29.125C11.4708 28.625 8.59595 27.325 8.09595 26.125C7.59595 24.9249 9.80402 22.2083 10.9706 21C10.5956 21.0833 9.87056 20.475 9.97056 17.375C10.0706 14.275 13.5956 10.25 15.3456 8.62497C17.6789 6.66663 24.4456 3.67497 32.8456 7.37497C43.3456 12 48.3456 22.75 48.5956 26.125C48.7956 28.825 47.0956 32.4167 46.2206 33.875C47.3872 33.7917 50.2706 33.675 52.4706 33.875C54.6706 34.075 56.8039 36.2917 57.5956 37.375C59.3872 41.25 63.4956 49.9 65.5956 53.5C67.6956 57.1 64.7206 59.0834 62.9706 59.625H57.5956C57.0539 61.75 54.9456 66.075 50.8456 66.375Z" fill="#FFC15B"/>
    <path d="M24.068 45.3805L19.7919 38.0265C18.4649 35.7442 15.6654 34.7797 13.2143 35.7602V35.7602C10.3858 36.8915 9.08326 40.1565 10.3914 42.9077C12.6434 47.6439 16.0341 54.6087 18.4747 58.8796C22.4469 65.831 30.6709 68.9179 38.0164 66.1794C49.2754 61.9819 45.5587 50.4389 45.5587 50.4389" stroke="#232323" stroke-width="2" stroke-linecap="round" stroke-linejoin="round"/>
    <path d="M42.5813 36.7434C42.5813 36.7434 54.8138 28.799 44.2011 16.8594C40.0034 12.1368 30.1455 0.367998 16.7619 7.94477C7.82445 13.9031 10.8036 20.8546 10.8036 20.8546" stroke="#232323" stroke-width="2" stroke-linecap="round" stroke-linejoin="round"/>
    <path d="M16.2642 28.8704C16.2642 28.8704 10.4833 29.8281 8.96254 27.2181C7.44174 24.6081 8.96253 20.1502 15.497 21.1434" stroke="#232323" stroke-width="2" stroke-linecap="round" stroke-linejoin="round"/>
    <path d="M26.6905 53.6248L36.6334 49.702C38.92 48.7999 39.8466 46.0585 38.5763 43.9542L38.3126 43.5173C37.3302 41.8899 35.3324 41.1866 33.5471 41.8397L24.3539 45.2032" stroke="#232323" stroke-width="2" stroke-linecap="round" stroke-linejoin="round"/>
    <path d="M47.5444 66.1904H51.0704C55.5672 66.1904 58.644 61.6512 56.9784 57.4741V57.4741L52.5531 46.9265C50.8756 42.9285 46.3024 41.0137 42.2768 42.6239L39.5999 43.6947" stroke="#232323" stroke-width="2" stroke-linecap="round" stroke-linejoin="round"/>
    <path d="M58.4683 59.5835H62.042C64.8504 59.5835 66.7719 56.7486 65.7317 54.14L64.4266 50.8672L59.1517 39.5111C57.5237 36.0061 54.01 33.7641 50.1454 33.7641H46.5516" stroke="#232323" stroke-width="2" stroke-linecap="round" stroke-linejoin="round"/>
    <path d="M32.652 27.8054L32.8515 28.1162C33.7071 29.4487 35.2723 30.1458 36.835 29.8903L36.9625 29.8695C38.8835 29.5554 40.2939 27.8957 40.2939 25.9493L40.2939 25.5453" stroke="#232323" stroke-width="2" stroke-linecap="round" stroke-linejoin="round"/>
    <path d="M33.282 18.3748L34.073 19.3786C34.5884 20.0327 35.4162 20.3582 36.2391 20.2302V20.2302C38.0666 19.946 38.8331 17.7343 37.5734 16.3802L37.2195 15.9998" stroke="#232323" stroke-width="2" stroke-linecap="round" stroke-linejoin="round"/>
    <path d="M24.9256 22.3895L25.7166 23.3933C26.2319 24.0473 27.0598 24.3728 27.8826 24.2449V24.2449C29.7101 23.9607 30.4766 21.749 29.2169 20.3948L28.8631 20.0145" stroke="#232323" stroke-width="2" stroke-linecap="round" stroke-linejoin="round"/>
  </g>
  <defs>
    <clipPath id="clip0_317_10281">
      <rect width="71.5" height="71.5" fill="white" transform="matrix(-1 0 0 1 72.3711 0)"/>
    </clipPath>
  </defs>
</svg>