<?xml version="1.0" encoding="utf-8"?>
<!-- Generator: Adobe Illustrator 23.1.0, SVG Export Plug-In . SVG Version: 6.00 Build 0)  -->
<svg version="1.1" id="Capa_1" xmlns="http://www.w3.org/2000/svg" xmlns:xlink="http://www.w3.org/1999/xlink" x="0px" y="0px"
	 viewBox="0 0 1200 1200" enable-background="new 0 0 1200 1200" xml:space="preserve">
<g>
	<path fill="#FFBC4B" d="M594.663,1142.925c105.01,0,272.449-40.227,288.22-241.3c17.874-227.894-93.839-482.6-283.751-482.6
		S319.849,651.387,313.146,816.723S362.3,1142.925,594.663,1142.925z"/>
	
		<radialGradient id="SVGID_1_" cx="600.841" cy="755.1174" r="472.5153" gradientTransform="matrix(-0.0048 1 -0.6819 -0.0032 1118.6176 156.7336)" gradientUnits="userSpaceOnUse">
		<stop  offset="0" style="stop-color:#F29B4C;stop-opacity:0"/>
		<stop  offset="1" style="stop-color:#F29B4C"/>
	</radialGradient>
	<path fill="url(#SVGID_1_)" d="M594.663,1142.925c105.01,0,272.449-40.227,288.22-241.3c17.874-227.894-93.839-482.6-283.751-482.6
		S319.849,651.387,313.146,816.723S362.3,1142.925,594.663,1142.925z"/>
	<radialGradient id="SVGID_2_" cx="334.5467" cy="409.8433" r="698.1556" gradientUnits="userSpaceOnUse">
		<stop  offset="0" style="stop-color:#FFF874"/>
		<stop  offset="1" style="stop-color:#FFF874;stop-opacity:0"/>
	</radialGradient>
	<path fill="url(#SVGID_2_)" d="M594.663,1142.925c105.01,0,272.449-40.227,288.22-241.3c17.874-227.894-93.839-482.6-283.751-482.6
		S319.849,651.387,313.146,816.723S362.3,1142.925,594.663,1142.925z"/>
	<radialGradient id="SVGID_3_" cx="744.8455" cy="888.3555" r="122.0516" gradientUnits="userSpaceOnUse">
		<stop  offset="0" style="stop-color:#FF9471"/>
		<stop  offset="0.5128" style="stop-color:#FF9471;stop-opacity:0"/>
	</radialGradient>
	<circle fill="url(#SVGID_3_)" cx="744.219" cy="886.312" r="65.451"/>
	<radialGradient id="SVGID_4_" cx="453.0409" cy="886.689" r="119.0379" gradientUnits="userSpaceOnUse">
		<stop  offset="0" style="stop-color:#FF9471"/>
		<stop  offset="0.5128" style="stop-color:#FF9471;stop-opacity:0"/>
	</radialGradient>
	<circle fill="url(#SVGID_4_)" cx="452.43" cy="884.696" r="63.834"/>
	<g>
		<radialGradient id="SVGID_5_" cx="720.247" cy="694.2703" r="91.2038" gradientUnits="userSpaceOnUse">
			<stop  offset="0" style="stop-color:#FFE678"/>
			<stop  offset="1" style="stop-color:#FFE678;stop-opacity:0"/>
		</radialGradient>
		<path fill="url(#SVGID_5_)" d="M700.316,757.835c0.539-1.616,11.312-37.169,43.095-53.869c0,0,35.015,11.851,45.788,57.64
			c0,0-24.241,18.854-36.092,31.244S700.316,757.835,700.316,757.835z"/>
		<radialGradient id="SVGID_6_" cx="469.5777" cy="511.1165" r="88.0406" gradientUnits="userSpaceOnUse">
			<stop  offset="0" style="stop-color:#FFF6B8"/>
			<stop  offset="1" style="stop-color:#FFF6B8;stop-opacity:0"/>
		</radialGradient>
		<path fill="url(#SVGID_6_)" d="M449.287,561.214c0,0,9.158-38.247,45.788-54.407c0,0,40.94,24.241,45.25,58.178l-52.253,50.098
			L449.287,561.214z"/>
		<radialGradient id="SVGID_7_" cx="695.8265" cy="497.4698" r="87.6294" gradientUnits="userSpaceOnUse">
			<stop  offset="0" style="stop-color:#FFE678"/>
			<stop  offset="1" style="stop-color:#FFE678;stop-opacity:0"/>
		</radialGradient>
		<path fill="url(#SVGID_7_)" d="M607.661,510.578c0,0,19.393-35.553,40.94-49.559c0,0,39.863,16.161,47.943,52.791
			c0,0,37.708,21.009,44.172,56.023c0,0-17.777,23.702-42.018,24.78c-24.241,1.077-45.788-28.55-45.788-28.55
			s2.693-14.006,12.39-25.318C665.301,540.744,637.289,519.736,607.661,510.578z"/>
		<radialGradient id="SVGID_8_" cx="474.6055" cy="603.0525" r="89.8042" gradientUnits="userSpaceOnUse">
			<stop  offset="0" style="stop-color:#FFF5AC"/>
			<stop  offset="1" style="stop-color:#FFF5AC;stop-opacity:0"/>
		</radialGradient>
		<path fill="url(#SVGID_8_)" d="M441.746,677.032c0,0,22.086-40.94,45.788-50.637c0,0,40.402,30.705,45.788,58.717
			c0,0-43.095,30.167-52.791,34.476C470.835,723.898,441.746,677.032,441.746,677.032z"/>
		<radialGradient id="SVGID_9_" cx="720.6551" cy="582.0058" r="94.4626" gradientUnits="userSpaceOnUse">
			<stop  offset="0" style="stop-color:#FFF582"/>
			<stop  offset="1" style="stop-color:#FFF582;stop-opacity:0"/>
		</radialGradient>
		<path fill="url(#SVGID_9_)" d="M701.932,641.479c0,0,4.31-28.55,40.94-49.021c0,0,36.092,12.39,42.556,52.253
			c0,0-29.628,22.086-39.863,45.788C745.565,690.499,731.021,663.026,701.932,641.479z"/>
		<radialGradient id="SVGID_10_" cx="350.3482" cy="790.5157" r="86.2139" gradientUnits="userSpaceOnUse">
			<stop  offset="0" style="stop-color:#FFF5AC"/>
			<stop  offset="1" style="stop-color:#FFF5AC;stop-opacity:0"/>
		</radialGradient>
		<path fill="url(#SVGID_10_)" d="M318.925,853.183c0,0,15.083-31.783,38.247-42.556c0,0,37.708,18.315,45.25,53.33
			c0,0-29.628,17.238-37.708,34.476c0,0-36.092-18.854-44.172-27.473S318.925,853.183,318.925,853.183z"/>
		
			<radialGradient id="SVGID_11_" cx="797.0997" cy="870.2415" r="72.1296" fx="739.4165" fy="826.9365" gradientUnits="userSpaceOnUse">
			<stop  offset="0.0021" style="stop-color:#FFE678"/>
			<stop  offset="1" style="stop-color:#FFE678;stop-opacity:0"/>
		</radialGradient>
		<path fill="url(#SVGID_11_)" d="M776.809,928.599c0,0,17.238-26.396,31.244-29.089c14.006-2.693,26.934,36.631,26.934,36.631
			l-28.55,25.857L776.809,928.599z"/>
		<radialGradient id="SVGID_12_" cx="443.7207" cy="904.7175" r="82.5988" gradientUnits="userSpaceOnUse">
			<stop  offset="0" style="stop-color:#FFE678"/>
			<stop  offset="1" style="stop-color:#FFE678;stop-opacity:0"/>
		</radialGradient>
		<path fill="url(#SVGID_12_)" d="M402.96,970.617c0,0,18.315-30.705,36.092-39.324c0,0,29.089,14.545,39.324,33.937l-36.631,38.247
			C441.746,1003.477,412.118,985.162,402.96,970.617z"/>
		<radialGradient id="SVGID_13_" cx="514.8275" cy="959.3045" r="79.7387" gradientUnits="userSpaceOnUse">
			<stop  offset="0" style="stop-color:#FFE678"/>
			<stop  offset="1" style="stop-color:#FFE678;stop-opacity:0"/>
		</radialGradient>
		<path fill="url(#SVGID_13_)" d="M477.478,1021.254c0,0,31.244-29.628,37.169-31.244c5.926-1.616,36.631,29.089,43.095,47.404
			c0,0-33.937,23.164-43.634,24.78C504.413,1063.81,477.478,1021.254,477.478,1021.254z"/>
		<radialGradient id="SVGID_14_" cx="623.3995" cy="696.7585" r="83.9879" gradientUnits="userSpaceOnUse">
			<stop  offset="0" style="stop-color:#FFE678"/>
			<stop  offset="1" style="stop-color:#FFE678;stop-opacity:0"/>
		</radialGradient>
		<path fill="url(#SVGID_14_)" d="M602.454,746.703c15.083-25.139,36.631-40.94,48.123-41.659
			c11.492-0.718,41.724,26.485,45.283,47.719c0,0-25.172,29.853-43.128,29.853S602.454,746.703,602.454,746.703z"/>
	</g>
	<g>
		<g>
			<path fill="#F7C559" d="M443.601,559.664c2.73,7.504,12.672,3.056,14.111-2.927c0.062-0.259,6.378-25.29,36.588-45.535
				c7.745,4.844,28.648,20.069,38.651,48.407c2.553,7.233,14.424,3.577,11.708-4.125c-14.078-39.889-46.394-56.425-47.762-57.109
				c-1.929-0.965-4.227-0.858-6.065,0.289c-24.575,15.36-36.227,33.766-41.424,44.991c-4.852-7.884-14.201-17.723-23.149-26.343
				c-2.761,3.097-4.931,6.563-7.419,10.104C430.176,538.546,440.325,550.66,443.601,559.664z"/>
			<path fill="#F7C559" d="M360.037,699.018c6.562,4.779,22.481,18.624,32.157,46.034c1.717,4.865,8.302,5.601,11.074,1.298
				c0.186-0.291,18.219-28.098,40.257-45.333c8.303,4.2,31.683,18.735,40.105,52.411c1.915,7.658,14.015,4.888,12.044-3.003
				c-3.852-15.428-11.233-29.911-21.998-41.662c-4.572-4.991-10.384-8.542-15.122-13.326c-5.246-5.297-7.533-11.422-10.983-17.869
				c0.127-0.16,0.269-0.304,0.382-0.479c0.185-0.286,17.59-27.156,39.189-46.35c9.356,9.316,32.495,33.577,39.129,51.812
				c2.725,7.489,14.443,3.401,11.665-4.239c-7.774-21.381-33.633-48.113-42.938-57.274c0.979-1.499,7.939-12.035,18.099-24.206
				c5.074-6.079-4.302-14.223-9.526-7.961c-6.381,7.646-11.511,14.607-14.85,19.346c-3.047-5.54-7.095-11.595-12.125-18.116
				c-4.872-6.315-14.8,1.138-9.832,7.576c6.579,8.528,11.24,15.998,13.909,22.266c-18.464,15.906-33.808,36.781-40.094,45.878
				c-11.675-17.88-25.909-33.323-26.806-34.291c-5.515-5.949-14.568,2.551-9.102,8.441c0.262,0.282,24.443,26.5,34.611,48.739
				c-0.064,0.043-0.137,0.065-0.199,0.11c-16.87,12.269-31.483,30.263-39.567,41.233c-14.416-31.562-35.495-43.361-36.478-43.897
				c-1.965-1.071-4.358-1.002-6.261,0.186c-6.729,4.206-14.434,10.48-19.357,14.932c-2.909,7.801-4.491,15.002-5.926,23.343
				C337.015,716.89,347.858,707.209,360.037,699.018z"/>
			<path fill="#F7C559" d="M358.01,815.061c7.744,4.844,28.648,20.069,38.651,48.407c2.664,7.546,14.409,3.534,11.708-4.125
				c-11.146-31.583-33.713-48.514-43.312-54.541c2.577-5.15,8.442-15.811,17.588-26.483c5.155-6.015-4.113-14.267-9.418-8.087
				c-13.864,16.176-20.811,32.2-21.101,32.874c-0.172,0.402-0.296,0.812-0.379,1.224c-13.892,9.179-26.157,22.563-32.576,31.49
				c-2.115,2.16,0.266,14.311,1.549,22.212C324.352,849.434,336.439,829.499,358.01,815.061z"/>
			<path fill="#F7C559" d="M355.789,933.468c7.73,4.8,28.577,19.914,38.64,48.416c1.878,5.32,9.519,5.468,11.614,0.249
				c0.123-0.306,12.016-29.484,33.047-46.508c5.459,2.759,17.358,9.944,27.297,24.067c4.627,6.576,14.805-0.531,10.156-7.136
				c-15.49-22.017-35.265-29.619-36.1-29.931c-1.95-0.734-4.143-0.435-5.829,0.791c-16.146,11.743-27.59,29.487-34.018,41.432
				c-12.883-25.263-32.422-38.505-39.531-42.701c4.102-14.167,11.241-26.337,21.335-36.16c5.663-5.511-2.832-14.562-8.65-8.901
				c-12.564,12.225-21.201,27.492-25.672,45.377c-0.114,0.457-0.163,0.913-0.174,1.364c-5.721,3.905-13.256,10.25-18.007,14.843
				c0.95,4.6,2.194,9.433,3.572,14.17C339.155,946.449,348.149,938.579,355.789,933.468z"/>
			<path fill="#EBAC55" d="M403.245,1009.572c5.997,3.373,19.058,11.543,31.676,24.917c5.294,5.611,14.741-2.462,9.03-8.516
				c-18.731-19.855-37.982-29.04-38.792-29.422c-2.076-0.982-4.527-0.727-6.367,0.65c-12.906,9.679-24.151,27.7-29.051,37.161
				c2.187,4.286,4.608,8.308,7.901,11.851C379.248,1042.582,390.014,1021.216,403.245,1009.572z"/>
			<path fill="#EBAC55" d="M464.749,1067.873c5.587,4.458,16.867,13.886,24.599,23.161c4.969,5.961,14.633-1.832,9.542-7.94
				c-11.503-13.803-29.336-27.237-30.089-27.802c-2.056-1.542-4.844-1.658-7.014-0.297c-16.552,10.345-28.967,24.651-35.862,34.845
				c3.467,2.276,7.033,4.168,10.973,5.932C442.475,1087.776,452.47,1076.177,464.749,1067.873z"/>
			<path fill="#EBAC55" d="M871.655,759.524c-1.954-0.735-4.142-0.435-5.831,0.791c-25.728,18.711-39.519,52.667-40.095,54.103
				c-0.724,1.811-23.181,26.952-29.979,38.178c-4.105,6.779,6.389,13.41,10.611,6.439c5.785-9.558,15.688-20.384,25.834-28.362
				c7.43,4.053,26.68,16.985,36.043,45.724c-0.058,0.039-0.124,0.059-0.181,0.1c-6.695,4.871-13.175,11.221-19.258,18.877
				c-4.856,6.111,4.725,14.009,9.708,7.73c4.51-5.671,9.21-10.499,14.019-14.391c0.826,0.419,4.731,2.354,5.824,2.986
				c1.556-9.079,0.984-11.948,0.539-21.278c-12.12-36.361-33.985-47.147-41.758-51.183c0.034-0.076,0.093-0.132,0.124-0.21
				c0.121-0.305,11.943-29.43,33.034-46.497c1.149,0.583,6.429,3.169,8.06,4.159c-0.108-6.262-1.522-15.302-1.347-14.006
				C876.356,762.404,871.718,759.547,871.655,759.524z"/>
			<path fill="#F7C559" d="M787.125,627.474c-15.601-30.59-41.017-43.591-42.226-44.197c-1.933-0.967-4.24-0.861-6.064,0.289
				c-37.498,23.434-44.911,53.965-45.211,55.254c-0.013,0.056-0.01,0.111-0.021,0.167c-35.025,23.134-42.118,52.114-42.427,53.45
				c-1.791,7.737,10.26,10.734,12.096,2.797c0.058-0.258,6.1-25.113,36.592-45.517c7.731,4.8,28.58,19.914,38.641,48.42
				c0.099,0.281,0.277,0.509,0.411,0.768c-35.564,23.203-42.744,52.519-43.057,53.858c-1.807,7.735,10.202,10.691,12.087,2.824
				c0.064-0.259,6.379-25.293,36.598-45.541c2.905,1.805,7.65,5.056,12.938,9.877c5.915,5.392,14.369-3.7,8.371-9.166
				c-6.705-6.113-12.651-10.016-15.965-11.989c0.066-0.137,0.171-0.247,0.228-0.39c0.124-0.305,11.946-29.433,33.044-46.5
				c8.33,4.221,31.666,18.763,40.076,52.4c1.876,7.502,13.999,4.821,12.044-3.006c-8.445-33.782-29.903-50.826-42.062-58.03
				c2.618-5.953,16.105-29.618,33.07-44.512c-1.778-4.045-3.422-8.002-5.199-11.737C806.574,598.652,793.132,616.31,787.125,627.474
				z M778.688,639.665c-16.143,11.741-27.589,29.486-34.016,41.43c-12.151-23.83-30.212-36.946-38.193-41.884
				c2.383-6.769,11.094-26.538,35.836-43.116c7.265,4.511,26.101,18.127,36.698,43.391
				C778.908,639.554,778.79,639.592,778.688,639.665z"/>
			<path fill="#F7C559" d="M741.075,551.509c-11.856-23.248-29.355-36.317-37.616-41.527c0.972-2.763,9.052-22.905,19.751-38.998
				c-3.138-2.82-6.362-5.275-9.966-7.272c-6.61,9.816-13.28,22.282-16.674,30.029c-16.504-25.322-44.171-39.38-45.511-40.051
				c-2.082-1.036-4.567-0.829-6.446,0.547c-34.866,25.568-42.248,53.617-42.567,54.883c-1.922,7.642,10.009,10.833,12.035,3.042
				c0.061-0.241,6.355-23.445,34.732-45.544c8.565,4.97,31.471,19.899,41.993,42.263c-35.738,23.236-42.927,52.668-43.232,53.973
				c-1.755,7.523,10.174,10.827,12.088,2.821c0.064-0.259,6.385-25.297,36.601-45.544c7.734,4.802,28.583,19.917,38.644,48.421
				c1.77,5.015,9.421,5.718,11.616,0.24c0.113-0.284,14.861-28.523,33.291-45.781c-1.82-3.819-3.562-7.518-6.474-10.885
				C760.463,523.501,746.637,541.169,741.075,551.509z"/>
			<path fill="#EBAC55" d="M764.8,790.186c6.131-7.4,13.588-14.055,22.204-19.82c4.988,3.094,15.439,10.482,24.955,23.039
				c4.633,6.114,14.978-0.783,9.892-7.496c-14.74-19.457-31.556-28.006-32.265-28.359c-1.936-0.971-4.233-0.859-6.067,0.288
				c-11.055,6.91-20.568,15.127-28.27,24.421C750.195,788.358,759.611,796.453,764.8,790.186z"/>
		</g>
		<g>
			<path fill="#EBAC55" d="M827.878,934.971c0.9,2.549,3.294,4.141,5.852,4.141c0.685,0,1.382-0.114,2.067-0.356
				c3.23-1.141,4.927-4.685,3.785-7.918c-4.667-13.216-11.846-25.271-21.343-35.827c-2.297-2.547-6.212-2.755-8.767-0.462
				c-2.549,2.292-2.755,6.217-0.461,8.765C817.408,912.651,823.757,923.301,827.878,934.971z"/>
			<path fill="#EBAC55" d="M517.005,980.974c-1.935-0.968-4.232-0.858-6.065,0.289c-10.462,6.539-19.558,14.264-27.038,22.959
				c-5.168,6.008,4.092,14.284,9.405,8.103c5.917-6.882,13.005-13.102,21.104-18.526c6.112,3.815,20.41,14.07,31.034,32.07
				c4.098,6.941,14.755,0.581,10.687-6.311C540.389,992.884,517.952,981.449,517.005,980.974z"/>
			<path fill="#EBAC55" d="M621.883,1024.894c-1.867,2.876-1.046,6.718,1.83,8.584c2.87,1.864,6.718,1.046,8.582-1.829
				c6.64-10.234,13.785-18.467,21.283-24.528c5.749,2.906,18.64,10.72,28.853,26.366c1.191,1.823,3.176,2.815,5.203,2.814
				c1.164,0,2.339-0.326,3.385-1.009c2.873-1.873,3.679-5.718,1.806-8.59c-15.698-24.049-36.992-32.244-37.892-32.58
				c-1.955-0.735-4.143-0.435-5.828,0.791C639.338,1002.013,630.18,1012.101,621.883,1024.894z"/>
			<path fill="#EBAC55" d="M614.716,1047.743c-1.955-0.736-4.146-0.433-5.831,0.791c-9.038,6.574-17.586,15.745-25.409,27.255
				c-4.446,6.542,5.704,13.694,10.262,6.984c6.177-9.091,12.772-16.49,19.636-22.04c8.393,4.192,31.594,18.559,40.06,52.41
				c1.893,7.568,14.008,4.858,12.045-3.004C653.651,1062.836,616.301,1048.337,614.716,1047.743z"/>
			<path fill="#EBAC55" d="M707.858,1068.072c-4.274,6.657,6.069,13.51,10.44,6.714c0.185-0.286,17.589-27.156,39.189-46.349
				c5.211,5.191,14.706,15.028,23.238,25.894c4.993,6.358,14.737-1.326,9.77-7.66c-13.103-16.685-27.865-30.575-28.486-31.157
				c-2.27-2.127-5.767-2.244-8.176-0.276C728.813,1035.708,708.748,1066.688,707.858,1068.072z"/>
			<path fill="#EBAC55" d="M694.855,990.446c5.973-6.674,11.985-12.67,17.934-17.882c5.16,5.139,14.536,14.849,23.036,25.631
				c4.68,5.936,14.926-1.119,9.747-7.683c-13.046-16.554-27.631-30.278-28.246-30.854c-2.273-2.127-5.764-2.242-8.176-0.277
				c-7.804,6.385-15.723,14.05-23.536,22.782C680.33,988.066,689.421,996.521,694.855,990.446z"/>
			<path fill="#EBAC55" d="M768.239,995.823c-4.839,6.181,5.066,13.66,9.77,7.658c6.364-8.12,15.822-19.264,26.398-28.668
				c4.615,4.595,12.584,12.828,20.26,22.182c4.748,5.786,14.921-1.384,9.596-7.871c-12.246-14.926-24.807-26.739-25.334-27.234
				c-2.27-2.127-5.767-2.244-8.176-0.276C790.211,970.24,779.272,981.748,768.239,995.823z"/>
		</g>
	</g>
	<g>
		<g>
			<radialGradient id="SVGID_15_" cx="669.0717" cy="505.7296" r="350.868" gradientUnits="userSpaceOnUse">
				<stop  offset="0" style="stop-color:#DE8545;stop-opacity:0"/>
				<stop  offset="1" style="stop-color:#DE8545"/>
			</radialGradient>
			<path fill="url(#SVGID_15_)" d="M443.601,559.664c2.73,7.504,12.672,3.056,14.111-2.927c0.062-0.259,6.378-25.29,36.588-45.535
				c7.745,4.844,28.648,20.069,38.651,48.407c2.553,7.233,14.424,3.577,11.708-4.125c-14.078-39.889-46.394-56.425-47.762-57.109
				c-1.929-0.965-4.227-0.858-6.065,0.289c-24.575,15.36-36.227,33.766-41.424,44.991c-4.852-7.884-14.201-17.723-23.149-26.343
				c-2.761,3.097-4.931,6.563-7.419,10.104C430.176,538.546,440.325,550.66,443.601,559.664z"/>
			<radialGradient id="SVGID_16_" cx="601.1971" cy="715.8177" r="332.9442" gradientUnits="userSpaceOnUse">
				<stop  offset="0" style="stop-color:#DE8545;stop-opacity:0"/>
				<stop  offset="1" style="stop-color:#DE8545"/>
			</radialGradient>
			<path fill="url(#SVGID_16_)" d="M360.037,699.018c6.562,4.779,22.481,18.624,32.157,46.034c1.717,4.865,8.302,5.601,11.074,1.298
				c0.186-0.291,18.219-28.098,40.257-45.333c8.303,4.2,31.683,18.735,40.105,52.411c1.915,7.658,14.015,4.888,12.044-3.003
				c-3.852-15.428-11.233-29.911-21.998-41.662c-4.572-4.991-10.384-8.542-15.122-13.326c-5.246-5.297-7.533-11.422-10.983-17.869
				c0.127-0.16,0.269-0.304,0.382-0.479c0.185-0.286,17.59-27.156,39.189-46.35c9.356,9.316,32.495,33.577,39.129,51.812
				c2.725,7.489,14.443,3.401,11.665-4.239c-7.774-21.381-33.633-48.113-42.938-57.274c0.979-1.499,7.939-12.035,18.099-24.206
				c5.074-6.079-4.302-14.223-9.526-7.961c-6.381,7.646-11.511,14.607-14.85,19.346c-3.047-5.54-7.095-11.595-12.125-18.116
				c-4.872-6.315-14.8,1.138-9.832,7.576c6.579,8.528,11.24,15.998,13.909,22.266c-18.464,15.906-33.808,36.781-40.094,45.878
				c-11.675-17.88-25.909-33.323-26.806-34.291c-5.515-5.949-14.568,2.551-9.102,8.441c0.262,0.282,24.443,26.5,34.611,48.739
				c-0.064,0.043-0.137,0.065-0.199,0.11c-16.87,12.269-31.483,30.263-39.567,41.233c-14.416-31.562-35.495-43.361-36.478-43.897
				c-1.965-1.071-4.358-1.002-6.261,0.186c-6.729,4.206-14.434,10.48-19.357,14.932c-2.909,7.801-4.491,15.002-5.926,23.343
				C337.015,716.89,347.858,707.209,360.037,699.018z"/>
			<radialGradient id="SVGID_17_" cx="622.2059" cy="777.2281" r="316.7647" gradientUnits="userSpaceOnUse">
				<stop  offset="0" style="stop-color:#DE8545;stop-opacity:0"/>
				<stop  offset="1" style="stop-color:#DE8545"/>
			</radialGradient>
			<path fill="url(#SVGID_17_)" d="M358.01,815.061c7.744,4.844,28.648,20.069,38.651,48.407c2.664,7.546,14.409,3.534,11.708-4.125
				c-11.146-31.583-33.713-48.514-43.312-54.541c2.577-5.15,8.442-15.811,17.588-26.483c5.155-6.015-4.113-14.267-9.418-8.087
				c-13.864,16.176-20.811,32.2-21.101,32.874c-0.172,0.402-0.296,0.812-0.379,1.224c-13.892,9.179-26.157,22.563-32.576,31.49
				c-2.115,2.16,0.266,14.311,1.549,22.212C324.352,849.434,336.439,829.499,358.01,815.061z"/>
			<radialGradient id="SVGID_18_" cx="622.2059" cy="777.2281" r="316.7647" gradientUnits="userSpaceOnUse">
				<stop  offset="0" style="stop-color:#DE8545;stop-opacity:0"/>
				<stop  offset="1" style="stop-color:#DE8545"/>
			</radialGradient>
			<path fill="url(#SVGID_18_)" d="M355.789,933.468c7.73,4.8,28.577,19.914,38.64,48.416c1.878,5.32,9.519,5.468,11.614,0.249
				c0.123-0.306,12.016-29.484,33.047-46.508c5.459,2.759,17.358,9.944,27.297,24.067c4.627,6.576,14.805-0.531,10.156-7.136
				c-15.49-22.017-35.265-29.619-36.1-29.931c-1.95-0.734-4.143-0.435-5.829,0.791c-16.146,11.743-27.59,29.487-34.018,41.432
				c-12.883-25.263-32.422-38.505-39.531-42.701c4.102-14.167,11.241-26.337,21.335-36.16c5.663-5.511-2.832-14.562-8.65-8.901
				c-12.564,12.225-21.201,27.492-25.672,45.377c-0.114,0.457-0.163,0.913-0.174,1.364c-5.721,3.905-13.256,10.25-18.007,14.843
				c0.95,4.6,2.194,9.433,3.572,14.17C339.155,946.449,348.149,938.579,355.789,933.468z"/>
			<radialGradient id="SVGID_19_" cx="622.2059" cy="777.2281" r="316.7647" gradientUnits="userSpaceOnUse">
				<stop  offset="0" style="stop-color:#DE8545;stop-opacity:0"/>
				<stop  offset="1" style="stop-color:#DE8545"/>
			</radialGradient>
			<path fill="url(#SVGID_19_)" d="M403.245,1009.572c5.997,3.373,19.058,11.543,31.676,24.917c5.294,5.611,14.741-2.462,9.03-8.516
				c-18.731-19.855-37.982-29.04-38.792-29.422c-2.076-0.982-4.527-0.727-6.367,0.65c-12.906,9.679-24.151,27.7-29.051,37.161
				c2.187,4.286,4.608,8.308,7.901,11.851C379.248,1042.582,390.014,1021.216,403.245,1009.572z"/>
			<radialGradient id="SVGID_20_" cx="622.2059" cy="777.2281" r="316.7647" gradientUnits="userSpaceOnUse">
				<stop  offset="0" style="stop-color:#DE8545;stop-opacity:0"/>
				<stop  offset="1" style="stop-color:#DE8545"/>
			</radialGradient>
			<path fill="url(#SVGID_20_)" d="M464.749,1067.873c5.587,4.458,16.867,13.886,24.599,23.161c4.969,5.961,14.633-1.832,9.542-7.94
				c-11.503-13.803-29.336-27.237-30.089-27.802c-2.056-1.542-4.844-1.658-7.014-0.297c-16.552,10.345-28.967,24.651-35.862,34.845
				c3.467,2.276,7.033,4.168,10.973,5.932C442.475,1087.776,452.47,1076.177,464.749,1067.873z"/>
			<radialGradient id="SVGID_21_" cx="622.2059" cy="777.2281" r="316.7647" gradientUnits="userSpaceOnUse">
				<stop  offset="0" style="stop-color:#DE8545;stop-opacity:0"/>
				<stop  offset="1" style="stop-color:#DE8545"/>
			</radialGradient>
			<path fill="url(#SVGID_21_)" d="M871.655,759.524c-1.954-0.735-4.142-0.435-5.831,0.791
				c-25.728,18.711-39.519,52.667-40.095,54.103c-0.724,1.811-23.181,26.952-29.979,38.178c-4.105,6.779,6.389,13.41,10.611,6.439
				c5.785-9.558,15.688-20.384,25.834-28.362c7.43,4.053,26.68,16.985,36.043,45.724c-0.058,0.039-0.124,0.059-0.181,0.1
				c-6.695,4.871-13.175,11.221-19.258,18.877c-4.856,6.111,4.725,14.009,9.708,7.73c4.51-5.671,9.21-10.499,14.019-14.391
				c0.826,0.419,4.731,2.354,5.824,2.986c1.556-9.079,0.984-11.948,0.539-21.278c-12.12-36.361-33.985-47.147-41.758-51.183
				c0.034-0.076,0.093-0.132,0.124-0.21c0.121-0.305,11.943-29.43,33.034-46.497c1.149,0.583,6.429,3.169,8.06,4.159
				c-0.108-6.262-1.522-15.302-1.347-14.006C876.356,762.404,871.718,759.547,871.655,759.524z"/>
			<radialGradient id="SVGID_22_" cx="622.2059" cy="777.2281" r="316.7647" gradientUnits="userSpaceOnUse">
				<stop  offset="0" style="stop-color:#DE8545;stop-opacity:0"/>
				<stop  offset="1" style="stop-color:#DE8545"/>
			</radialGradient>
			<path fill="url(#SVGID_22_)" d="M787.125,627.474c-15.601-30.59-41.017-43.591-42.226-44.197
				c-1.933-0.967-4.24-0.861-6.064,0.289c-37.498,23.434-44.911,53.965-45.211,55.254c-0.013,0.056-0.01,0.111-0.021,0.167
				c-35.025,23.134-42.118,52.114-42.427,53.45c-1.791,7.737,10.26,10.734,12.096,2.797c0.058-0.258,6.1-25.113,36.592-45.517
				c7.731,4.8,28.58,19.914,38.641,48.42c0.099,0.281,0.277,0.509,0.411,0.768c-35.564,23.203-42.744,52.519-43.057,53.858
				c-1.807,7.735,10.202,10.691,12.087,2.824c0.064-0.259,6.379-25.293,36.598-45.541c2.905,1.805,7.65,5.056,12.938,9.877
				c5.915,5.392,14.369-3.7,8.371-9.166c-6.705-6.113-12.651-10.016-15.965-11.989c0.066-0.137,0.171-0.247,0.228-0.39
				c0.124-0.305,11.946-29.433,33.044-46.5c8.33,4.221,31.666,18.763,40.076,52.4c1.876,7.502,13.999,4.821,12.044-3.006
				c-8.445-33.782-29.903-50.826-42.062-58.03c2.618-5.953,16.105-29.618,33.07-44.512c-1.778-4.045-3.422-8.002-5.199-11.737
				C806.574,598.652,793.132,616.31,787.125,627.474z M778.688,639.665c-16.143,11.741-27.589,29.486-34.016,41.43
				c-12.151-23.83-30.212-36.946-38.193-41.884c2.383-6.769,11.094-26.538,35.836-43.116c7.265,4.511,26.101,18.127,36.698,43.391
				C778.908,639.554,778.79,639.592,778.688,639.665z"/>
			<radialGradient id="SVGID_23_" cx="591.5007" cy="552.5955" r="206.6349" gradientUnits="userSpaceOnUse">
				<stop  offset="0" style="stop-color:#DE8545;stop-opacity:0"/>
				<stop  offset="1" style="stop-color:#DE8545"/>
			</radialGradient>
			<path fill="url(#SVGID_23_)" d="M741.075,551.509c-11.856-23.248-29.355-36.317-37.616-41.527
				c0.972-2.763,9.052-22.905,19.751-38.998c-3.138-2.82-6.362-5.275-9.966-7.272c-6.61,9.816-13.28,22.282-16.674,30.029
				c-16.504-25.322-44.171-39.38-45.511-40.051c-2.082-1.036-4.567-0.829-6.446,0.547c-34.866,25.568-42.248,53.617-42.567,54.883
				c-1.922,7.642,10.009,10.833,12.035,3.042c0.061-0.241,6.355-23.445,34.732-45.544c8.565,4.97,31.471,19.899,41.993,42.263
				c-35.738,23.236-42.927,52.668-43.232,53.973c-1.755,7.523,10.174,10.827,12.088,2.821c0.064-0.259,6.385-25.297,36.601-45.544
				c7.734,4.802,28.583,19.917,38.644,48.421c1.77,5.015,9.421,5.718,11.616,0.24c0.113-0.284,14.861-28.523,33.291-45.781
				c-1.82-3.819-3.562-7.518-6.474-10.885C760.463,523.501,746.637,541.169,741.075,551.509z"/>
			<radialGradient id="SVGID_24_" cx="622.2059" cy="777.2281" r="316.7647" gradientUnits="userSpaceOnUse">
				<stop  offset="0" style="stop-color:#DE8545;stop-opacity:0"/>
				<stop  offset="1" style="stop-color:#DE8545"/>
			</radialGradient>
			<path fill="url(#SVGID_24_)" d="M764.8,790.186c6.131-7.4,13.588-14.055,22.204-19.82c4.988,3.094,15.439,10.482,24.955,23.039
				c4.633,6.114,14.978-0.783,9.892-7.496c-14.74-19.457-31.556-28.006-32.265-28.359c-1.936-0.971-4.233-0.859-6.067,0.288
				c-11.055,6.91-20.568,15.127-28.27,24.421C750.195,788.358,759.611,796.453,764.8,790.186z"/>
		</g>
		<g>
			<radialGradient id="SVGID_25_" cx="622.2059" cy="777.2281" r="316.7647" gradientUnits="userSpaceOnUse">
				<stop  offset="0" style="stop-color:#DE8545;stop-opacity:0"/>
				<stop  offset="1" style="stop-color:#DE8545"/>
			</radialGradient>
			<path fill="url(#SVGID_25_)" d="M827.878,934.971c0.9,2.549,3.294,4.141,5.852,4.141c0.685,0,1.382-0.114,2.067-0.356
				c3.23-1.141,4.927-4.685,3.785-7.918c-4.667-13.216-11.846-25.271-21.343-35.827c-2.297-2.547-6.212-2.755-8.767-0.462
				c-2.549,2.292-2.755,6.217-0.461,8.765C817.408,912.651,823.757,923.301,827.878,934.971z"/>
			<radialGradient id="SVGID_26_" cx="622.2059" cy="777.2281" r="316.7647" gradientUnits="userSpaceOnUse">
				<stop  offset="0" style="stop-color:#DE8545;stop-opacity:0"/>
				<stop  offset="1" style="stop-color:#DE8545"/>
			</radialGradient>
			<path fill="url(#SVGID_26_)" d="M517.005,980.974c-1.935-0.968-4.232-0.858-6.065,0.289
				c-10.462,6.539-19.558,14.264-27.038,22.959c-5.168,6.008,4.092,14.284,9.405,8.103c5.917-6.882,13.005-13.102,21.104-18.526
				c6.112,3.815,20.41,14.07,31.034,32.07c4.098,6.941,14.755,0.581,10.687-6.311C540.389,992.884,517.952,981.449,517.005,980.974z
				"/>
			<radialGradient id="SVGID_27_" cx="622.2059" cy="777.2281" r="316.7647" gradientUnits="userSpaceOnUse">
				<stop  offset="0" style="stop-color:#DE8545;stop-opacity:0"/>
				<stop  offset="1" style="stop-color:#DE8545"/>
			</radialGradient>
			<path fill="url(#SVGID_27_)" d="M621.883,1024.894c-1.867,2.876-1.046,6.718,1.83,8.584c2.87,1.864,6.718,1.046,8.582-1.829
				c6.64-10.234,13.785-18.467,21.283-24.528c5.749,2.906,18.64,10.72,28.853,26.366c1.191,1.823,3.176,2.815,5.203,2.814
				c1.164,0,2.339-0.326,3.385-1.009c2.873-1.873,3.679-5.718,1.806-8.59c-15.698-24.049-36.992-32.244-37.892-32.58
				c-1.955-0.735-4.143-0.435-5.828,0.791C639.338,1002.013,630.18,1012.101,621.883,1024.894z"/>
			<radialGradient id="SVGID_28_" cx="622.2059" cy="777.2281" r="316.7647" gradientUnits="userSpaceOnUse">
				<stop  offset="0" style="stop-color:#DE8545;stop-opacity:0"/>
				<stop  offset="1" style="stop-color:#DE8545"/>
			</radialGradient>
			<path fill="url(#SVGID_28_)" d="M614.716,1047.743c-1.955-0.736-4.146-0.433-5.831,0.791
				c-9.038,6.574-17.586,15.745-25.409,27.255c-4.446,6.542,5.704,13.694,10.262,6.984c6.177-9.091,12.772-16.49,19.636-22.04
				c8.393,4.192,31.594,18.559,40.06,52.41c1.893,7.568,14.008,4.858,12.045-3.004
				C653.651,1062.836,616.301,1048.337,614.716,1047.743z"/>
			<radialGradient id="SVGID_29_" cx="622.2059" cy="777.2281" r="316.7647" gradientUnits="userSpaceOnUse">
				<stop  offset="0" style="stop-color:#DE8545;stop-opacity:0"/>
				<stop  offset="1" style="stop-color:#DE8545"/>
			</radialGradient>
			<path fill="url(#SVGID_29_)" d="M707.858,1068.072c-4.274,6.657,6.069,13.51,10.44,6.714
				c0.185-0.286,17.589-27.156,39.189-46.349c5.211,5.191,14.706,15.028,23.238,25.894c4.993,6.358,14.737-1.326,9.77-7.66
				c-13.103-16.685-27.865-30.575-28.486-31.157c-2.27-2.127-5.767-2.244-8.176-0.276
				C728.813,1035.708,708.748,1066.688,707.858,1068.072z"/>
			<radialGradient id="SVGID_30_" cx="622.2059" cy="777.2281" r="316.7647" gradientUnits="userSpaceOnUse">
				<stop  offset="0" style="stop-color:#DE8545;stop-opacity:0"/>
				<stop  offset="1" style="stop-color:#DE8545"/>
			</radialGradient>
			<path fill="url(#SVGID_30_)" d="M694.855,990.446c5.973-6.674,11.985-12.67,17.934-17.882
				c5.16,5.139,14.536,14.849,23.036,25.631c4.68,5.936,14.926-1.119,9.747-7.683c-13.046-16.554-27.631-30.278-28.246-30.854
				c-2.273-2.127-5.764-2.242-8.176-0.277c-7.804,6.385-15.723,14.05-23.536,22.782C680.33,988.066,689.421,996.521,694.855,990.446
				z"/>
			<radialGradient id="SVGID_31_" cx="622.2059" cy="777.2281" r="316.7647" gradientUnits="userSpaceOnUse">
				<stop  offset="0" style="stop-color:#DE8545;stop-opacity:0"/>
				<stop  offset="1" style="stop-color:#DE8545"/>
			</radialGradient>
			<path fill="url(#SVGID_31_)" d="M768.239,995.823c-4.839,6.181,5.066,13.66,9.77,7.658c6.364-8.12,15.822-19.264,26.398-28.668
				c4.615,4.595,12.584,12.828,20.26,22.182c4.748,5.786,14.921-1.384,9.596-7.871c-12.246-14.926-24.807-26.739-25.334-27.234
				c-2.27-2.127-5.767-2.244-8.176-0.276C790.211,970.24,779.272,981.748,768.239,995.823z"/>
		</g>
	</g>
	<path fill="#BCDE57" d="M480.716,461.475c0,0,46.919-37.982,119.533-37.982s124.001,35.748,124.001,35.748
		s96.073-115.064,184.326-145.227c0,0-72.613-35.748-146.344-7.82c0,0,21.225-52.505,79.316-87.136c0,0-61.442-21.225-128.47,15.64
		c0,0,12.288-71.496,29.045-99.425c0,0-53.622-7.82-87.136,36.865c0,0-6.703-82.668-51.388-111.713
		c0,0-54.739,30.163-53.622,113.947c0,0-35.748-40.217-87.136-40.217c0,0,26.811,58.091,27.928,99.425
		c0,0-81.551-42.451-128.47-13.406c0,0,64.794,41.334,79.316,83.785c0,0-81.55-21.225-148.578,8.937
		C293.038,312.897,429.328,382.159,480.716,461.475z"/>
	<radialGradient id="SVGID_32_" cx="706.2411" cy="529.4319" r="468.8315" gradientUnits="userSpaceOnUse">
		<stop  offset="0" style="stop-color:#88CF6C"/>
		<stop  offset="1" style="stop-color:#88CF6C;stop-opacity:0"/>
	</radialGradient>
	<path fill="url(#SVGID_32_)" d="M480.716,461.475c0,0,46.919-37.982,119.533-37.982s124.001,35.748,124.001,35.748
		s96.073-115.064,184.326-145.227c0,0-72.613-35.748-146.344-7.82c0,0,21.225-52.505,79.316-87.136c0,0-61.442-21.225-128.47,15.64
		c0,0,12.288-71.496,29.045-99.425c0,0-53.622-7.82-87.136,36.865c0,0-6.703-82.668-51.388-111.713
		c0,0-54.739,30.163-53.622,113.947c0,0-35.748-40.217-87.136-40.217c0,0,26.811,58.091,27.928,99.425
		c0,0-81.551-42.451-128.47-13.406c0,0,64.794,41.334,79.316,83.785c0,0-81.55-21.225-148.578,8.937
		C293.038,312.897,429.328,382.159,480.716,461.475z"/>
	<g>
		<radialGradient id="SVGID_33_" cx="248.3567" cy="254.7886" r="385.7625" gradientUnits="userSpaceOnUse">
			<stop  offset="0" style="stop-color:#F6FF74"/>
			<stop  offset="1" style="stop-color:#F6FF74;stop-opacity:0"/>
		</radialGradient>
		<path fill="url(#SVGID_33_)" d="M293.038,312.897c0,0,136.29,69.262,187.678,148.578c0,0,14.522-11.741,39.884-22.167
			C474.43,362.571,391.648,303.901,293.038,312.897z"/>
		<radialGradient id="SVGID_34_" cx="343.7429" cy="32.5348" r="702.4302" gradientUnits="userSpaceOnUse">
			<stop  offset="0" style="stop-color:#F6FF74"/>
			<stop  offset="1" style="stop-color:#F6FF74;stop-opacity:0"/>
		</radialGradient>
		<path fill="url(#SVGID_34_)" d="M559.718,185.749c14.006,4.309,32.86,10.774,42.496,20.71
			c1.137-51.953-1.504-97.439,0.599-146.224c-0.156-0.103-50.723,28.584-52.782,106.777
			C554.219,173.691,557.025,178.208,559.718,185.749z"/>
		<radialGradient id="SVGID_35_" cx="550.3542" cy="216.9096" r="196.9266" gradientUnits="userSpaceOnUse">
			<stop  offset="0" style="stop-color:#F6FF74"/>
			<stop  offset="1" style="stop-color:#F6FF74;stop-opacity:0"/>
		</radialGradient>
		<path fill="url(#SVGID_35_)" d="M559.242,427.598c12.485-2.514,26.202-4.105,41.006-4.105c0.508,0,1.004,0.019,1.51,0.023
			c-2.922-60.041,2.753-121.749-1.1-182.102C545.563,279.557,552.887,365.497,559.242,427.598z"/>
		<radialGradient id="SVGID_36_" cx="638.3665" cy="166.3565" r="199.8959" gradientUnits="userSpaceOnUse">
			<stop  offset="0" style="stop-color:#F6FF74"/>
			<stop  offset="1" style="stop-color:#F6FF74;stop-opacity:0"/>
		</radialGradient>
		<path fill="url(#SVGID_36_)" d="M654.587,389.014c28.511-77.388,96.444-160.932,183.677-167.927
			c1.09-0.679,2.168-1.363,3.285-2.028c0,0-61.442-21.226-128.47,15.64c0,0,0.244-1.418,0.709-3.932
			c-28.531,23.471-57.271,49.97-66.682,84.927C642.616,338.138,656.083,363.576,654.587,389.014z"/>
		<radialGradient id="SVGID_37_" cx="609.2773" cy="134.0352" r="364.1719" gradientUnits="userSpaceOnUse">
			<stop  offset="0" style="stop-color:#F6FF74"/>
			<stop  offset="1" style="stop-color:#F6FF74;stop-opacity:0"/>
		</radialGradient>
		<path fill="url(#SVGID_37_)" d="M774.295,344.123c38.974-23.62,82.608-36.972,126.489-33.464
			c-20.634-8.186-79.226-26.937-138.552-4.465c0,0,0.038-0.091,0.095-0.227c-53.081,21.033-108.665,64.924-112.653,123.013
			c10.111,2.228,19.42,4.956,27.777,7.865C709.964,404.374,734.632,367.374,774.295,344.123z"/>
		<radialGradient id="SVGID_38_" cx="649.1403" cy="87.7081" r="204.105" gradientUnits="userSpaceOnUse">
			<stop  offset="0" style="stop-color:#F6FF74"/>
			<stop  offset="1" style="stop-color:#F6FF74;stop-opacity:0"/>
		</radialGradient>
		<path fill="url(#SVGID_38_)" d="M740.036,135.05c-10.145-0.887-55.433-2.397-85.048,37.088c0,0-0.149-1.826-0.546-5.013
			c-16.755,25.525-16.853,60.482-28.286,90.209c-1.496,7.482,8.978,16.46,14.964,23.942c1.496,4.489,1.496,10.474,1.496,14.964
			C669.683,239.257,692.701,178.22,740.036,135.05z"/>
		<radialGradient id="SVGID_39_" cx="338.8562" cy="32.762" r="713.6616" gradientUnits="userSpaceOnUse">
			<stop  offset="0" style="stop-color:#F6FF74"/>
			<stop  offset="1" style="stop-color:#F6FF74;stop-opacity:0"/>
		</radialGradient>
		<path fill="url(#SVGID_39_)" d="M467.525,134.27c-1.546-0.073-3.107-0.113-4.684-0.113c0,0,26.725,57.906,27.921,99.228
			c23.943,18.475,47.647,36.748,59.08,65.849C545.71,238.627,522.532,165.379,467.525,134.27z"/>
		<radialGradient id="SVGID_40_" cx="337.5286" cy="28.5248" r="721.0911" gradientUnits="userSpaceOnUse">
			<stop  offset="0" style="stop-color:#F6FF74"/>
			<stop  offset="1" style="stop-color:#F6FF74;stop-opacity:0"/>
		</radialGradient>
		<path fill="url(#SVGID_40_)" d="M361.122,218.07c-0.038,0.023,65.971,43.439,80.494,85.89c0,0-0.476-0.124-1.38-0.338
			c41.55,22.119,79.834,50.247,106.613,89.881C526.463,307.589,473.887,234.59,361.122,218.07z"/>
	</g>
	<g>
		<g>
			<g>
				<g>
					<linearGradient id="SVGID_41_" gradientUnits="userSpaceOnUse" x1="606.9368" y1="340.1504" x2="592.5718" y2="230.2581">
						<stop  offset="0" style="stop-color:#FFFFFF;stop-opacity:0"/>
						<stop  offset="1" style="stop-color:#FFFFFF"/>
					</linearGradient>
					<path fill="url(#SVGID_41_)" d="M601.366,349.803c-4.958,0-8.978-4.02-8.978-8.978v-86.59c0-4.958,4.02-8.978,8.978-8.978
						c4.958,0,8.978,4.02,8.978,8.978v86.59C610.344,345.783,606.324,349.803,601.366,349.803z"/>
				</g>
				<g>
					<linearGradient id="SVGID_42_" gradientUnits="userSpaceOnUse" x1="453.8665" y1="372.4962" x2="385.9919" y2="338.0202">
						<stop  offset="0" style="stop-color:#FFFFFF;stop-opacity:0"/>
						<stop  offset="1" style="stop-color:#FFFFFF"/>
					</linearGradient>
					<path fill="url(#SVGID_42_)" d="M467.307,385.552c-2.161,0-4.328-0.776-6.051-2.348c-0.959-0.871-76.004-68.302-149.314-61.177
						c-4.933,0.49-9.324-3.132-9.805-8.066c-0.481-4.935,3.132-9.326,8.066-9.805c81.383-7.904,159.86,62.775,163.161,65.788
						c3.662,3.343,3.919,9.022,0.576,12.684C472.169,384.567,469.742,385.552,467.307,385.552z"/>
				</g>
				<g>
					<linearGradient id="SVGID_43_" gradientUnits="userSpaceOnUse" x1="777.2808" y1="364.6739" x2="864.5482" y2="307.573">
						<stop  offset="0" style="stop-color:#FFFFFF;stop-opacity:0"/>
						<stop  offset="1" style="stop-color:#FFFFFF"/>
					</linearGradient>
					<path fill="url(#SVGID_43_)" d="M732.112,385.549c-2.437,0-4.865-0.985-6.636-2.927c-3.34-3.662-3.083-9.336,0.577-12.678
						c3.301-3.015,81.768-73.716,163.16-65.788c4.935,0.479,8.547,4.87,8.066,9.805s-4.876,8.551-9.805,8.066
						c-73.415-7.147-148.566,60.496-149.317,61.18C736.436,384.776,734.271,385.549,732.112,385.549z"/>
				</g>
			</g>
			<g>
				<linearGradient id="SVGID_44_" gradientUnits="userSpaceOnUse" x1="618.0639" y1="112.1734" x2="590.0522" y2="78.7748">
					<stop  offset="0" style="stop-color:#FFFFFF;stop-opacity:0"/>
					<stop  offset="1" style="stop-color:#FFFFFF"/>
				</linearGradient>
				<path fill="url(#SVGID_44_)" d="M601.366,130.846c-4.958,0-8.978-4.02-8.978-8.978V62.66c0-4.958,4.02-8.978,8.978-8.978
					c4.958,0,8.978,4.02,8.978,8.978v59.208C610.344,126.826,606.324,130.846,601.366,130.846z"/>
			</g>
		</g>
		<g>
			<g>
				<linearGradient id="SVGID_45_" gradientUnits="userSpaceOnUse" x1="480.9116" y1="240.0387" x2="377.4836" y2="250.8125">
					<stop  offset="0" style="stop-color:#FFFFFF;stop-opacity:0"/>
					<stop  offset="1" style="stop-color:#FFFFFF"/>
				</linearGradient>
				<path fill="url(#SVGID_45_)" d="M472.529,278.307c-2.635,0-5.243-1.153-7.017-3.37c-27.181-33.978-89.711-43.459-90.339-43.551
					c-4.904-0.716-8.303-5.271-7.59-10.176c0.713-4.904,5.275-8.3,10.168-7.594c2.85,0.412,70.143,10.552,101.784,50.104
					c3.096,3.872,2.47,9.522-1.403,12.62C476.476,277.664,474.495,278.307,472.529,278.307z"/>
			</g>
			<g>
				<linearGradient id="SVGID_46_" gradientUnits="userSpaceOnUse" x1="739.4983" y1="276.8812" x2="819.2241" y2="217.6255">
					<stop  offset="0" style="stop-color:#FFFFFF;stop-opacity:0"/>
					<stop  offset="1" style="stop-color:#FFFFFF"/>
				</linearGradient>
				<path fill="url(#SVGID_46_)" d="M735.43,278.307c-1.967,0-3.947-0.643-5.603-1.967c-3.872-3.098-4.499-8.747-1.403-12.62
					c31.641-39.553,98.935-49.692,101.784-50.104c4.898-0.707,9.46,2.692,10.172,7.6c0.71,4.907-2.693,9.462-7.6,10.172
					c-0.935,0.137-63.22,9.656-90.334,43.549C740.673,277.154,738.063,278.307,735.43,278.307z"/>
			</g>
		</g>
	</g>
	<g>
		<path fill="#BF7A41" d="M810.923,538.589c-22.755-33.144-48.611-60.243-76.645-80.749c0.364-0.418,0.776-0.887,1.19-1.357
			c-5.232-3.547-10.55-6.974-16.235-9.751c-0.171,0.199-0.347,0.404-0.501,0.584c-19.583-12.297-40.091-21.506-61.245-27.435
			c0.034-0.339,0.057-0.661,0.085-0.991c-6.16-1.154-12.238-2.752-18.29-4.416c-0.033,0.376-0.065,0.75-0.102,1.133
			c-12.882-2.423-25.96-3.68-39.18-3.68c-11.936,0-23.755,1.033-35.42,3.016c-7.228,1.999-14.992,2.233-22.262,4.147
			c0.03,0.271,0.052,0.556,0.086,0.82c-20.173,5.666-39.76,14.312-58.516,25.777c-0.05-0.056-0.111-0.122-0.161-0.178
			c-5.099,3.688-10.365,7.15-15.726,10.445c0.049,0.053,0.102,0.111,0.15,0.163c-28.967,20.704-55.665,48.378-79.073,82.473
			c-55.344,80.61-85.823,187.617-85.823,301.307c0,110.381,29.375,192.494,87.308,244.058C439.802,1127.779,510.267,1150,600,1150
			c89.733,0,160.199-22.221,209.437-66.045c57.935-51.564,87.309-133.676,87.309-244.058
			C896.747,726.206,866.267,619.2,810.923,538.589z M875.741,890.483c-7.626,79.441-33.954,139.753-78.682,179.564
			c-45.726,40.698-112.025,61.334-197.058,61.334c-65.602,0-120.002-12.336-162.46-36.638c-3.516-2.023-5.052-2.596-10.594-6.481
			c-11.059-7.753-33.684-25.709-47.72-43.556c-3.202-3.881-6.905-9.144-8.365-11.351c-15.83-23.067-27.848-50.282-36.009-81.543
			c-1.385-4.898-2.642-10.105-3.433-14.464c-5.212-24.208-8.341-50.585-9.246-79.213c-0.378-5.85-0.557-17.881-0.203-27.098
			c0.531-36.554,4.314-71.948,10.974-105.563c1.196-7.636,4.832-22.113,5.623-25.312c16.691-67.439,45.112-126.639,81.602-172.268
			c2.719-3.713,6.37-7.828,7.938-9.592c47.345-54.936,107.061-87.755,171.89-87.755c39.853,0,77.766,12.426,112.07,34.744
			c5.663,3.809,8.177,5.695,10.232,7.024c16.549,11.976,32.174,26.305,46.678,42.685c2.711,3.053,6.011,7.161,8.068,9.433
			c15.466,18.836,29.529,40.083,41.921,63.346c1.474,2.795,4.032,7.374,5.751,11.223c22.855,46.059,39.318,99.379,47.512,157.124
			c1.271,6.828,2.347,18.805,2.382,18.826c2.302,21.159,3.514,42.846,3.514,64.945c0,8.757-0.262,17.251-0.642,25.625
			C877.544,871.139,876.287,884.786,875.741,890.483z"/>
	</g>
	<g>
		<path fill="#87A350" d="M919.696,303.248c-3.477-1.432-74.017-29.783-145.535-9.641c13.308-16.732,37.557-42.012,77.475-67.225
			c6.367-4.022,5.41-13.839-1.606-16.556c-1.284-0.498-31.958-12.111-73.457-6.435c-16.027,2.194-35.016,7.27-54.965,17.762
			c3.719-18.693,12.404-50.922,32.079-86.799c3.275-5.973-0.905-13.416-7.664-13.778c-0.724-0.04-48.71-1.905-87.194,35.28
			c-8.088-89.904-51.417-104.795-53.368-105.417c-2.055-0.653-4.276-0.573-6.281,0.227c-32.224,12.891-51.92,48.9-57.585,104.531
			c-38.302-36.456-85.639-34.674-86.515-34.621c-6.763,0.408-10.956,7.778-7.667,13.772c19.745,36.007,28.438,68.52,32.137,87.201
			c-20.223-10.762-39.486-15.935-55.715-18.157c-41.513-5.688-72.17,5.937-73.457,6.435c-6.714,2.6-8.206,12.386-1.611,16.554
			c40.048,25.294,64.329,50.657,77.611,67.388c-71.684-20.432-142.552,8.03-146.07,9.48c-7.704,3.176-7.511,14.459,0.323,17.344
			c86.57,31.896,162.73,108.784,186.247,134.15c0.308,0.332,1.04,1.048,1.33,1.362c5.454-3.569,10.578-6.824,15.599-10.505
			c-18.466-20.495-87.672-93.253-172.734-132.506c32.365-8.217,92.24-16.81,143.543,12.503
			c48.202,27.545,75.386,64.666,84.836,79.345c2.287,3.552,2.351,8.848,2.79,13.421c0.018,0.184,0.147,1.356,0.166,1.537
			c6.805-1.706,15.795-3.659,18.245-4.259c-2.055-18.419-12.673-134.502,41.794-161.404c10.771,6.533,48.385,38.485,36.847,160.14
			c-0.007,0.071-0.113,1.188-0.12,1.258c6.734,1.279,12.229,2.698,18.315,4.242c0.004-0.046,0.066-0.806,0.07-0.853
			c0.46-5.341,0.159-9.689,2.988-14.082c9.452-14.682,36.638-51.802,84.836-79.347c51.329-29.33,111.228-20.713,143.584-12.493
			c-85.79,39.806-152.881,113.972-169.506,133.362c-0.078,0.091-0.597,0.694-0.736,0.846c6.818,4.64,10.23,6.974,15.549,10.521
			c0.124-0.141,1.302-1.476,1.43-1.621c20.711-23.527,95.287-103.056,183.66-135.618
			C927.202,317.705,927.396,306.42,919.696,303.248z M539.795,373.921c-15.445-18.945-40.392-44.177-75.942-64.49
			c-2.399-1.371-4.813-2.653-7.235-3.881c-0.092-0.228-0.149-0.463-0.261-0.686c-0.888-1.776-20.734-40.503-79.894-82.362
			c35.107-5.615,110.983-4.502,169.264,89.543c0.037,0.06,0.089,0.106,0.127,0.165C541.242,333.323,539.836,355.301,539.795,373.921
			z M552.63,288.699c-16.711-23.893-34.516-41.357-52.136-54.076c-0.977-9.119-6.221-47.329-29.029-94.275
			c9.234,1.465,21.673,4.671,34.63,11.632c34.903,18.749,55.999,54.64,62.73,106.656
			C562.002,267.405,556.708,277.664,552.63,288.699z M599.181,235.321c-5.072,2.029-9.713,4.588-13.98,7.574
			c-5.299-28.701-14.831-50.68-26.423-67.506c1.639-39.684,10.646-89.499,43.727-105.834c8.765,5.227,36.078,27.618,38.8,104.128
			c0.031,0.87,0.22,1.692,0.474,2.485c-11.103,16.358-20.253,37.541-25.542,64.897C611.673,237.72,605.131,232.941,599.181,235.321z
			 M632.413,257.678c12.42-93.005,69.387-113.191,97.28-117.444c-22.408,46.071-27.899,83.771-29.026,93.837
			c-17.761,12.69-35.729,30.198-52.593,54.214C643.428,275.191,637.912,265.234,632.413,257.678z M744.051,304.864
			c-0.067,0.134-0.096,0.276-0.157,0.412c-32.29,16.221-61.045,40.836-83.791,68.77c0.166-24.73-1.963-45.127-5.422-62.001
			c59.023-95.241,134.617-95.74,169.527-89.727C764.839,264.251,744.942,303.085,744.051,304.864z"/>
	</g>
	<g>
		<path fill="#8C4C32" d="M634.135,865.131c-0.005-11.973-18.615-12.049-18.619-0.003c-0.006,20-31.024,20.065-31.031,0.009
			c-0.004-11.936-18.617-12.136-18.619-0.007C565.859,909.042,634.126,909.221,634.135,865.131z"/>
		
			<ellipse transform="matrix(0.9871 -0.1602 0.1602 0.9871 -128.4572 87.077)" fill="#8C4C32" cx="475.875" cy="840.307" rx="29.045" ry="29.045"/>
		<circle fill="#8C4C32" cx="724.126" cy="840.307" r="29.045"/>
	</g>
	<g>
		<linearGradient id="SVGID_47_" gradientUnits="userSpaceOnUse" x1="723.0334" y1="862.7443" x2="742.4171" y2="815.0307">
			<stop  offset="0" style="stop-color:#FFFFFF;stop-opacity:0"/>
			<stop  offset="1" style="stop-color:#FFD991"/>
		</linearGradient>
		<circle fill="url(#SVGID_47_)" cx="735.948" cy="830.955" r="9.319"/>
		<linearGradient id="SVGID_48_" gradientUnits="userSpaceOnUse" x1="710.8684" y1="857.8022" x2="730.252" y2="810.0886">
			<stop  offset="0" style="stop-color:#FFFFFF;stop-opacity:0"/>
			<stop  offset="1" style="stop-color:#FFD991"/>
		</linearGradient>
		<circle fill="url(#SVGID_48_)" cx="714.203" cy="849.593" r="4.97"/>
	</g>
	<g>
		<linearGradient id="SVGID_49_" gradientUnits="userSpaceOnUse" x1="474.6386" y1="862.7443" x2="494.0223" y2="815.0307">
			<stop  offset="0" style="stop-color:#FFFFFF;stop-opacity:0"/>
			<stop  offset="1" style="stop-color:#FFD991"/>
		</linearGradient>
		<circle fill="url(#SVGID_49_)" cx="487.553" cy="830.955" r="9.319"/>
		<linearGradient id="SVGID_50_" gradientUnits="userSpaceOnUse" x1="462.4736" y1="857.8022" x2="481.8572" y2="810.0886">
			<stop  offset="0" style="stop-color:#FFFFFF;stop-opacity:0"/>
			<stop  offset="1" style="stop-color:#FFD991"/>
		</linearGradient>
		<circle fill="url(#SVGID_50_)" cx="465.808" cy="849.593" r="4.97"/>
	</g>
</g>
</svg>
