<svg xmlns="http://www.w3.org/2000/svg" width="71" height="71" viewBox="0 0 71 71" fill="none">
  <g clip-path="url(#clip0_1001_4527)">
    <rect x="0.5" y="0.369141" width="70" height="70" rx="35" fill="#FFCC79"/>
    <path d="M7.36085 26.522C11.1361 17.3956 18.1474 13.9952 22.0575 13.0197C41.1493 3.5429 42.7607 12.72 49.9202 14.9312C57.0796 17.1425 62.6096 20.1523 65.0689 29.4004C67.9004 40.0478 65.4089 47.3102 55.4959 53.628C45.5828 59.9459 27.8541 56.5337 19.2261 54.3224C10.5981 52.1112 2.34499 38.6473 7.36085 26.522Z" fill="#803C28"/>
    <path d="M25.5393 51.2404C11.0647 52.4853 -2.24168 56.8518 -7.08554 58.8794C-12.6417 75.4308 39.3586 88.587 47.6216 90.2846C55.8847 91.9821 82.241 67.7917 72.6958 60.4356C63.1505 53.0794 43.6326 49.6843 25.5393 51.2404Z" fill="#B886B9"/>
    <path d="M37.3747 46.6196C47.8341 46.6196 50.7885 37.8872 50.9583 33.521C55.2031 33.521 57.75 32.6704 57.75 27.7372C57.75 23.7906 53.2222 23.371 50.9583 23.6545C50.2225 19.1749 46.0682 10.1476 35.3372 9.87545C24.6062 9.60327 21.6971 18.9481 21.5839 23.6545C19.5464 23.0308 15.3355 22.9741 14.7921 27.7372C14.2488 32.5003 19.0936 33.5777 21.5839 33.521C22.4895 37.8872 26.9154 46.6196 37.3747 46.6196Z" fill="#C27A63"/>
    <path d="M45.5509 20.2476C43.5504 18.1831 40.4588 18.3419 40.2769 19.2947C40.0951 20.2476 40.8226 20.8828 42.823 21.6768C44.8235 22.4709 47.5513 22.3121 45.5509 20.2476Z" fill="#803C28"/>
    <path d="M46.0677 59.5747C46.9465 52.9154 44.3449 45.8421 44.3449 43.1025C42.0222 38.2049 32.4088 40.4241 27.8924 42.1459C27.8924 42.1459 27.3259 46.0862 26.4877 50.5627C25.3359 56.7138 25.7679 63.5801 32.8224 65.1536C38.8692 66.5024 45.3504 65.0106 46.0677 59.5747Z" fill="#C27A63"/>
    <path d="M17.75 28.6191C18.5438 28.4305 20.4715 28.1664 21.8322 28.6191M51.5982 28.6191C52.1084 28.4305 53.5032 28.1664 55 28.6191" stroke="#232323" stroke-width="1.08" stroke-linecap="round" stroke-linejoin="round"/>
    <path d="M24.0588 8.32764C28.0786 5.01444 34.4585 6.65753 36.8842 7.80794C47.002 3.65057 53.4146 12.4671 50.1371 20.2329C47.5959 20.1754 42.7269 16.6897 36.3877 12.4671C33.6066 18.2487 28.049 24.2014 21.7788 25.6186C18.5013 19.0991 20.0391 11.6408 24.0588 8.32764Z" fill="#803C28"/>
    <path d="M23.75 38.3691C24.8422 40.8027 28.0237 45.8129 34.7193 46.5287C42.5118 47.3617 47.683 42.2342 49.25 39.6575" stroke="#232323" stroke-width="1.08" stroke-linecap="round" stroke-linejoin="round"/>
    <path d="M34.9182 30.1196C34.3549 31.0202 33.4669 33.0215 34.4212 33.822C35.6141 34.8227 37.6024 34.2223 38 33.822" stroke="#232323" stroke-width="1.08" stroke-linecap="round"/>
    <path d="M25.4306 26.6201C25.5008 26.1784 25.8374 25.7366 26.3394 25.3701M32.75 26.3424C32.4513 25.9088 32.1114 25.5622 31.7454 25.2912M26.3394 25.3701L25 24.1201M26.3394 25.3701C26.7553 25.0665 27.2847 24.8145 27.8704 24.657M27.8704 24.657L27.2963 23.1479M27.8704 24.657C28.499 24.4879 29.1925 24.4277 29.8796 24.5293M29.8796 24.5293L30.0231 22.8701M29.8796 24.5293C30.5269 24.625 31.1685 24.8642 31.7454 25.2912M31.7454 25.2912L32.75 23.9812" stroke="#232323" stroke-width="1.08" stroke-linecap="round" stroke-linejoin="round"/>
    <path d="M45.8194 26.6201C45.7492 26.1784 45.4126 25.7366 44.9106 25.3701M38.5 26.3424C38.7987 25.9088 39.1386 25.5622 39.5046 25.2912M44.9106 25.3701L46.25 24.1201M44.9106 25.3701C44.4947 25.0665 43.9653 24.8145 43.3796 24.657M43.3796 24.657L43.9537 23.1479M43.3796 24.657C42.751 24.4879 42.0575 24.4277 41.3704 24.5293M41.3704 24.5293L41.2269 22.8701M41.3704 24.5293C40.7231 24.625 40.0815 24.8642 39.5046 25.2912M39.5046 25.2912L38.5 23.9812" stroke="#232323" stroke-width="1.08" stroke-linecap="round" stroke-linejoin="round"/>
    <ellipse cx="1.375" cy="1.375" rx="1.375" ry="1.375" transform="matrix(-1 0 0 1 44 25.3696)" fill="#232323"/>
    <ellipse cx="1.375" cy="1.375" rx="1.375" ry="1.375" transform="matrix(-1 0 0 1 32 25.8691)" fill="#232323"/>
    <ellipse cx="44.75" cy="32.2446" rx="3.5" ry="3.375" fill="#D66161" fill-opacity="0.65"/>
    <ellipse cx="27.75" cy="32.2446" rx="3.5" ry="3.375" fill="#D66161" fill-opacity="0.65"/>
    <path d="M34.1696 39.2751C36.7893 39.8815 42.244 39.9746 43.426 35.127M42.2699 34.4271C42.7707 34.8175 43.9496 35.5481 44.6591 35.3472" stroke="#232323" stroke-width="1.08" stroke-linecap="round"/>
    <path d="M18.375 21.3694C21.2083 21.5361 25.875 21.2444 28.375 17.2444C30.9587 13.1104 31.625 10.6194 36 11.4944" stroke="#232323" stroke-width="1.08" stroke-linecap="round" stroke-linejoin="round"/>
    <path d="M35.6245 65.1196C34.5245 59.3196 29.0828 53.5363 26.4995 51.3696C19.4995 55.4946 20.3745 58.6196 24.7495 60.8696C20.9495 68.4696 24.3328 72.453 26.4995 73.4946C29.7495 73.6196 37.8495 73.6446 44.2495 72.7446C50.6495 71.8446 50.0828 64.453 48.9995 60.8696C50.1662 60.953 52.6495 60.4196 53.2495 57.6196C53.8495 54.8196 48.5828 52.2863 45.8745 51.3696C45.2495 51.3696 42.3245 54.1196 35.6245 65.1196Z" fill="#DAB3E7"/>
    <path d="M35.6245 65.1196C34.5245 59.3196 29.0828 53.5363 26.4995 51.3696C19.4995 55.4946 20.3745 58.6196 24.7495 60.8696C20.9495 68.4696 24.3328 72.453 26.4995 73.4946M45.8745 51.3696C48.5828 52.2863 53.8495 54.8196 53.2495 57.6196C52.6495 60.4196 50.1662 60.953 48.9995 60.8696" stroke="#232323" stroke-width="1.08" stroke-linecap="round" stroke-linejoin="round"/>
  </g>
  <defs>
    <clipPath id="clip0_1001_4527">
      <rect x="0.5" y="0.369141" width="70" height="70" rx="35" fill="white"/>
    </clipPath>
  </defs>
</svg>