<svg width="302" height="105" viewBox="0 0 302 105" fill="none" xmlns="http://www.w3.org/2000/svg">
<g clip-path="url(#clip0_647_29570)">
<mask id="mask0_647_29570" style="mask-type:alpha" maskUnits="userSpaceOnUse" x="-16" y="-39" width="330" height="144">
<path d="M-16 -29C-16 -34.5229 -11.5228 -39 -6 -39H304C309.523 -39 314 -34.5228 314 -29V105H-16V-29Z" fill="#FFFCF1"/>
</mask>
<g mask="url(#mask0_647_29570)">
<g style="mix-blend-mode:hard-light">
<path d="M0 74C0 50.2518 19.2518 31 43 31V31C66.7482 31 86 50.2518 86 74V115H0V74Z" fill="#17A27B"/>
</g>
<g style="mix-blend-mode:hard-light">
<path d="M72 113C72 89.2518 91.2518 70 115 70V70C138.748 70 158 89.2518 158 113V154H72V113Z" fill="#17A27B"/>
</g>
<g style="mix-blend-mode:hard-light">
<path d="M216 114C216 90.2518 235.252 71 259 71V71C282.748 71 302 90.2518 302 114V155H216V114Z" fill="#17A27B"/>
</g>
<g style="mix-blend-mode:hard-light">
<path d="M144 74C144 50.2518 163.252 31 187 31V31C210.748 31 230 50.2518 230 74V115H144V74Z" fill="#17A27B"/>
</g>
<g style="mix-blend-mode:hard-light">
<path d="M0 74C0 50.2518 19.2518 31 43 31V31C66.7482 31 86 50.2518 86 74V115H0V74Z" fill="#AAD8FE"/>
</g>
<g style="mix-blend-mode:hard-light">
<path d="M72 113C72 89.2518 91.2518 70 115 70V70C138.748 70 158 89.2518 158 113V154H72V113Z" fill="#AAD8FE"/>
</g>
<g style="mix-blend-mode:hard-light">
<path d="M144 74C144 50.2518 163.252 31 187 31V31C210.748 31 230 50.2518 230 74V115H144V74Z" fill="#AAD8FE"/>
</g>
<g style="mix-blend-mode:hard-light">
<path d="M216 114C216 90.2518 235.252 71 259 71V71C282.748 71 302 90.2518 302 114V155H216V114Z" fill="#AAD8FE"/>
</g>
<path d="M30.8132 83.6638C28.6176 83.6638 26.4264 83.0349 24.508 81.8164C21.714 80.0427 19.558 77.0455 18.5988 73.5915C18.4712 73.1345 18.3656 72.6678 18.2556 72.201C17.9212 70.7565 17.6044 69.3955 16.7816 68.3539C16.1392 67.5382 15.2328 67.0125 14.3572 66.5015C14.1284 66.3689 13.8996 66.2362 13.6752 66.0986C11.6556 64.8605 10.0936 63.2391 9.14757 61.4015C7.27317 57.7607 7.72197 52.587 10.296 48.219C12.1396 45.0892 14.6608 43.0944 17.3316 40.9817C17.9432 40.5002 18.5592 40.0088 19.1752 39.5028C20.5128 38.4022 21.8152 37.5816 23.078 36.7906C25.1548 35.4836 26.95 34.3585 28.3052 32.3489L28.7012 32.683C27.2844 34.781 25.3572 35.9897 23.32 37.2721C22.0704 38.0582 20.7812 38.8689 19.47 39.9499C18.854 40.4608 18.2336 40.9522 17.6176 41.4337C14.9864 43.5169 12.5004 45.4823 10.7096 48.5236C8.23677 52.7147 7.79677 57.6624 9.57877 61.1263C10.4764 62.8706 11.9768 64.4232 13.9128 65.6122C14.1328 65.7498 14.3572 65.8775 14.5816 66.0102C15.4968 66.5408 16.4472 67.096 17.1512 67.9903C18.0488 69.1302 18.3964 70.6189 18.7308 72.0634C18.8364 72.5253 18.9464 72.9822 19.0696 73.4293C19.9936 76.7458 22.0616 79.6299 24.75 81.3349C27.4384 83.0398 30.6944 83.5459 33.6908 82.7204L33.8096 83.256C32.8284 83.5262 31.8164 83.6589 30.8088 83.6589L30.8132 83.6638Z" fill="#42210B"/>
<path d="M43.8988 21.5986C46.9084 22.0703 49.9752 22.0408 52.976 21.5101C53.8604 21.3529 54.7492 21.1515 55.5456 20.6945C56.342 20.2376 57.046 19.4908 57.332 18.5327C58.124 15.8696 56.9316 12.7546 55.5412 10.4257C54.1508 8.09674 52.228 6.00858 49.6628 4.77042L43.6216 20.1344L43.9032 21.5986H43.8988Z" fill="#42210B"/>
<path d="M40.6119 25.7651L57.5079 16.8376C57.0459 11.6638 54.4279 6.76031 49.9575 4.78024C45.4871 2.80508 38.8123 3.49294 35.1251 6.8291C32.1859 9.49212 29.4579 13.2361 29.0311 21.235C28.9783 25.829 28.2215 31.8429 25.4583 34.4322C22.6951 37.0215 19.5623 39.1932 16.7551 41.7334C13.9479 44.2736 11.4091 47.2904 10.2783 50.9214C9.15193 54.5523 9.67993 58.8859 12.3463 61.6177C13.7983 63.1064 15.7651 64.035 17.1247 65.6073C19.7559 68.6585 19.4567 73.2623 21.2739 76.8589C22.9107 80.0967 26.3647 82.3421 29.9683 82.5043C33.5719 82.6664 37.1843 80.7453 39.0587 77.6597L30.4083 28.9833C31.3543 31.4596 32.5687 33.6559 33.3519 35.7244L40.6119 25.7602V25.7651Z" fill="#42210B"/>
<path d="M28.6792 60.0307C24.8908 56.8272 23.0956 50.9508 24.3452 45.8311C25.0976 42.7505 27.2096 40.0678 28.1864 37.0707C29.238 33.8426 29.2468 30.3492 29.1104 26.9148C28.6924 16.4887 29.8144 20.0017 30.6064 16.6852C31.3984 13.3638 34.122 9.58057 35.1252 8.40137C34.7556 23.2789 33.2112 38.9181 30.9628 53.5844L28.6792 60.0307Z" fill="#42210B"/>
<path d="M29.1633 73.7536C27.9357 73.7536 26.7169 73.3458 25.6917 72.5744C24.4729 71.6556 23.6765 69.1154 22.9725 66.8749C22.6645 65.8972 22.3785 64.9784 22.0969 64.3544C21.4237 62.8509 20.3457 61.6422 19.3029 60.4729C17.7981 58.7827 16.2361 57.0335 15.8665 54.3607C15.2109 49.6537 18.2997 46.3126 21.2477 43.5464C22.0221 42.8193 22.8493 42.1216 23.6457 41.4484C25.5553 39.8418 27.5309 38.1762 28.9081 35.9848C30.7429 33.0663 31.3985 29.4206 32.0365 25.8928C32.7009 22.2029 33.3917 18.3902 35.4157 15.3488C37.6289 12.0225 41.3865 9.95889 45.2233 9.95889H45.2409C48.9325 9.96381 52.6813 11.8604 55.2641 15.0295C55.3565 15.1425 55.3477 15.3193 55.2465 15.4225C55.1453 15.5257 54.9869 15.5159 54.8945 15.4029C52.4041 12.3468 48.7917 10.519 45.2365 10.5141H45.2189C41.5361 10.5141 37.9325 12.4942 35.8117 15.678C33.8537 18.6211 33.1761 22.3749 32.5205 26.0009C31.8737 29.5827 31.2049 33.2923 29.3129 36.3042C27.8917 38.5643 25.8853 40.2545 23.9449 41.8906C23.1529 42.5589 22.3301 43.2516 21.5645 43.969C18.7221 46.6369 15.7389 49.8502 16.3549 54.2722C16.7025 56.7633 18.1369 58.3749 19.6549 60.0798C20.7241 61.2787 21.8285 62.5217 22.5413 64.1038C22.8361 64.7573 23.1309 65.6957 23.4389 66.6882C24.0813 68.742 24.8865 71.2969 25.9689 72.1126C27.2185 73.0559 28.8421 73.4097 30.3161 73.0657C30.4481 73.0314 30.5801 73.1296 30.6109 73.2819C30.6373 73.4293 30.5537 73.5767 30.4173 73.6111C30.0037 73.7094 29.5813 73.7536 29.1633 73.7536Z" fill="#281105"/>
<path d="M36.2957 56.9795C39.3185 57.746 42.3853 58.5124 45.4873 58.3847C48.5893 58.2569 51.7881 57.1171 53.8429 54.6162C56.0737 51.8991 56.6413 48.0225 56.4609 44.4063C56.2805 40.79 55.4621 37.2328 55.3213 33.6117C55.1805 29.9905 55.8273 25.313 58.1417 22.6795C54.4589 21.1465 50.4593 23.6179 47.3309 26.2073C40.4845 31.8773 36.3617 41.1585 36.5641 50.4447L36.3001 56.9746L36.2957 56.9795Z" fill="#42210B"/>
<path d="M46.8688 57.3333C46.7896 57.3333 46.7148 57.2939 46.6664 57.2153C46.5872 57.0876 46.6136 56.9156 46.728 56.8321C49.1832 54.9257 50.9828 51.9679 51.6648 48.7202C52.2412 45.9736 52.0476 43.0551 51.8584 40.2398C51.656 37.1935 51.4448 34.0441 52.1972 31.0568C52.2324 30.9094 52.3732 30.8258 52.5008 30.8651C52.6328 30.9044 52.7076 31.0567 52.6724 31.2041C51.9464 34.0981 52.1532 37.1984 52.3512 40.1955C52.5404 43.0551 52.7384 46.0178 52.1444 48.8479C51.4316 52.2283 49.5616 55.3041 47.0096 57.289C46.9656 57.3234 46.9172 57.3382 46.8688 57.3382V57.3333Z" fill="#281105"/>
<path d="M39.3843 46.4011C42.1299 47.8849 45.1527 48.8725 48.2371 49.3245C47.3879 48.1748 46.6487 47.1283 46.0195 46.2045C41.0783 45.497 35.6883 43.2762 33.0703 42.1805C31.8603 41.6745 30.7427 41.5811 29.7791 41.6794H29.8099C33.3299 42.323 36.2339 44.6962 39.3799 46.4011H39.3843Z" fill="#FBEFE2"/>
<path d="M55.1935 91.4318C54.8767 80.1311 53.1035 72.8545 53.6447 71.1053C53.8735 70.3634 55.2551 67.3024 55.4135 66.8406C56.4915 63.6764 56.7863 59.7408 54.1331 56.665C51.7439 53.8988 49.7991 51.4323 48.2415 49.3196C45.1571 48.8676 42.1343 47.88 39.3887 46.3962C36.2427 44.6962 33.3387 42.323 29.8187 41.6794H29.7879C27.7331 41.8907 26.3823 43.006 26.3823 43.006C24.8951 45.2661 22.4487 47.8653 22.8403 55.2795C23.1659 61.4703 24.6971 67.3565 26.7387 73.1345C28.4987 78.1167 28.9299 83.0546 28.9255 85.7471C28.9255 86.032 28.9035 86.3661 28.8727 86.7199C28.2919 93.0286 21.6127 96.7972 19.8483 110.073C18.4535 120.573 20.3499 137.028 20.3499 137.028C25.2471 136.949 61.0983 137.028 61.0983 137.028C57.1383 118.214 55.6819 108.638 55.2023 91.4318H55.1935Z" fill="#DFFFF6"/>
<path d="M39.7188 31.0174C39.9036 35.9455 43.6172 39.3013 43.6172 39.3013L45.0164 34.555L43.274 29.4304C41.0872 29.4157 39.6704 29.8481 39.7144 31.0174H39.7188Z" fill="#281105"/>
<path d="M39.7187 31.0174C39.6747 29.8481 41.0915 29.4157 43.2783 29.4304L41.4787 24.1339L35.7543 26.959L33.3563 35.7293C31.8779 39.5224 28.5823 39.66 26.3779 43.0109C26.3779 43.0109 29.2951 40.5984 33.0747 42.1805C35.6927 43.2762 41.0827 45.497 46.0239 46.2045C43.9207 43.1042 43.0187 41.3403 43.0187 41.3403L43.6215 39.3013C43.6215 39.3013 39.9079 35.9504 39.7231 31.0174H39.7187Z" fill="#E79064"/>
<path d="M57.2704 14.4251L49.9224 24.8758C49.9224 24.8758 60.0512 25.1067 60.038 21.3431C60.0204 17.5795 57.2704 14.4251 57.2704 14.4251Z" fill="#42210B"/>
<path d="M29.2864 37.449C31.1432 37.9649 34.7116 39.3603 36.6652 37.0265C38.6144 34.6926 39.5164 28.3642 39.3668 25.1755C38.5352 23.161 36.9864 24.0798 36.2032 24.8758C33.198 27.9417 31.7064 33.7738 29.2908 37.449H29.2864Z" fill="#42210B"/>
<path d="M37.7347 9.71303C39.9951 7.85066 40.6124 4.50176 39.1135 2.23303C37.6145 -0.0356893 34.5668 -0.365111 32.3063 1.49725C30.0459 3.35961 29.4285 6.70852 30.9275 8.97724C32.4265 11.246 35.4742 11.5754 37.7347 9.71303Z" fill="#42210B"/>
<path d="M32.4633 10.3372C32.4149 10.3372 32.3621 10.3225 32.3181 10.2881C32.2081 10.1997 32.1817 10.0277 32.2609 9.89994C34.0341 7.12882 36.7401 5.03574 39.6881 4.16116C39.8201 4.12186 39.9565 4.2103 39.9917 4.3577C40.0269 4.5051 39.9477 4.65741 39.8157 4.69672C36.9777 5.54181 34.3729 7.55628 32.6657 10.2242C32.6173 10.2979 32.5425 10.3421 32.4633 10.3421V10.3372Z" fill="#281105"/>
<path d="M34.0121 8.19499C33.9505 8.19499 33.8933 8.17042 33.8449 8.12129C32.9781 7.22706 32.5777 5.74815 32.7977 4.25941C32.9869 2.97703 33.4181 1.96488 34.2409 0.864296C34.3289 0.746376 34.4873 0.731636 34.5885 0.829903C34.6941 0.928169 34.7073 1.10014 34.6193 1.21806C33.8581 2.23512 33.4621 3.17356 33.2861 4.34785C33.0925 5.6548 33.4357 6.94209 34.1793 7.71348C34.2805 7.81666 34.2849 7.99354 34.1925 8.10655C34.1441 8.16551 34.0781 8.19499 34.0121 8.19499Z" fill="#281105"/>
<path d="M37.8355 5.37967C37.7519 5.37967 37.6683 5.33054 37.6243 5.2421C37.2107 4.46579 36.5683 3.84671 35.8203 3.50769C35.0679 3.16867 34.2275 3.10971 33.4443 3.35047C33.3123 3.38977 33.1759 3.30133 33.1407 3.15885C33.1055 3.01145 33.1847 2.85913 33.3123 2.81983C34.2011 2.54959 35.1559 2.61347 36.0051 3.00162C36.8543 3.38486 37.5847 4.08255 38.0511 4.96695C38.1215 5.09961 38.0819 5.26667 37.9631 5.34528C37.9235 5.36985 37.8795 5.38459 37.8355 5.38459V5.37967Z" fill="#281105"/>
<path d="M32.6788 35.6753C32.2344 35.6753 31.79 35.5721 31.3852 35.3412C31.262 35.2724 31.2136 35.1053 31.2752 34.9677C31.3368 34.8302 31.4864 34.7761 31.6096 34.8449C32.824 35.5377 34.4168 34.8498 35.2572 33.7885C36.168 32.6339 36.4892 31.0813 36.7752 29.7056L38.0468 23.5836C38.0776 23.4362 38.2096 23.3428 38.346 23.3772C38.478 23.4116 38.5616 23.559 38.5308 23.7113L37.2592 29.8333C36.96 31.268 36.6212 32.8992 35.6312 34.157C34.9404 35.0316 33.8008 35.6802 32.6832 35.6802L32.6788 35.6753Z" fill="#281105"/>
<path d="M50.2041 15.1081L55.9769 16.8179C56.4169 19.7266 56.1089 21.9032 55.1013 24.5515C55.0793 24.6154 55.0573 24.6743 55.0353 24.7333C54.8329 25.3425 54.2917 26.6544 54.0145 27.47L54.0321 27.4798C54.0321 27.4798 53.8605 28.6541 54.6041 30.8111C54.7229 31.155 54.5997 31.4596 54.2741 31.5235C53.8561 31.6021 53.2665 31.6218 52.6153 31.3859C51.6033 34.0883 50.7981 36.1371 49.9885 37.1935C48.0481 39.7337 44.8009 38.2695 41.6329 34.7073C38.4649 31.1452 39.5297 26.0844 39.5297 26.0844L42.2269 20.1639L50.2041 15.1031V15.1081Z" fill="#E79064"/>
<path d="M40.5241 26.0992C35.7897 25.8879 37.7741 18.4835 40.5945 18.7194C43.4149 18.9503 43.1113 22.0752 43.1113 22.0752L40.5241 26.0992Z" fill="#E79064"/>
<path d="M40.8057 24.3746C40.7573 24.3746 40.7045 24.3598 40.6605 24.3205C40.5505 24.2321 40.5241 24.0601 40.6033 23.9324C41.8969 21.913 40.1897 20.4931 40.1193 20.4341C40.0093 20.3457 39.9829 20.1737 40.0621 20.0459C40.1413 19.9231 40.2953 19.8936 40.4097 19.9821C40.4317 20.0017 42.5965 21.7754 41.0081 24.2517C40.9597 24.3254 40.8849 24.3697 40.8057 24.3697V24.3746Z" fill="#281105"/>
<path d="M39.6133 23.2642C39.6133 23.2642 39.5869 23.2642 39.5737 23.2642C39.4373 23.2396 39.3493 23.0971 39.3713 22.9448C39.3977 22.7778 39.4461 22.6009 39.5165 22.424C39.7629 21.8049 40.3965 21.4659 41.1489 21.5396C41.2853 21.5543 41.3865 21.687 41.3733 21.8393C41.3601 21.9916 41.2325 22.0948 41.1049 22.0899C40.5593 22.0309 40.1281 22.2471 39.9697 22.6451C39.9169 22.7827 39.8773 22.9104 39.8597 23.0333C39.8377 23.1708 39.7365 23.2642 39.6177 23.2642H39.6133Z" fill="#281105"/>
<path d="M56.6499 16.8572L50.9695 12.4843C50.9695 12.4843 38.6935 12.1994 42.2311 20.1639C45.7687 28.1284 57.3231 20.8223 57.3231 20.8223L56.6499 16.8572Z" fill="#42210B"/>
<path d="M56.4475 20.95C56.3947 20.95 56.3419 20.9304 56.2979 20.896C56.1879 20.8026 56.1659 20.6306 56.2495 20.5078C57.1603 19.1616 57.4771 17.319 57.0723 15.6927C57.0371 15.5453 57.1119 15.393 57.2439 15.3537C57.3759 15.3144 57.5123 15.3979 57.5475 15.5453C57.9919 17.3338 57.6443 19.363 56.6411 20.8419C56.5927 20.9156 56.5179 20.95 56.4431 20.95H56.4475Z" fill="#281105"/>
<path d="M46.4375 19.9428C44.9943 19.9428 43.5555 19.7413 42.1651 19.3335C42.0331 19.2942 41.9539 19.1419 41.9891 18.9945C42.0243 18.8471 42.1563 18.7537 42.2927 18.798C46.0107 19.8887 50.1335 19.4514 53.6007 17.5991C53.7239 17.5303 53.8735 17.5893 53.9307 17.7318C53.9879 17.8693 53.9395 18.0364 53.8119 18.1003C51.5327 19.3188 48.9763 19.9428 46.4331 19.9428H46.4375Z" fill="#281105"/>
<path d="M40.9596 77.9349C40.9596 77.9349 38.082 53.9578 34.4344 45.7918C30.7868 37.6259 22.5808 43.4433 22.5808 51.3832C22.5808 60.0307 27.0644 89.0488 32.7888 89.3387C39.05 89.6581 41.5492 86.8575 41.5316 84.1895C41.514 81.5167 40.964 77.9398 40.964 77.9398L40.9596 77.9349Z" fill="#DFFFF6"/>
<path d="M41.5271 84.4598C41.3907 84.4598 41.2807 84.3369 41.2807 84.1846C41.2631 81.5658 40.7219 78.0135 40.7175 77.9791C40.6955 77.812 38.8167 62.0893 36.2075 51.8794C36.1679 51.732 36.2471 51.5797 36.3791 51.5355C36.5111 51.4913 36.6475 51.5797 36.6871 51.7271C39.3095 61.9763 41.1927 77.7383 41.2103 77.8955C41.2103 77.9201 41.7603 81.5167 41.7779 84.1797C41.7779 84.332 41.6679 84.4598 41.5315 84.4598H41.5271Z" fill="#FBEFE2"/>
<path d="M29.7089 81.4626C29.6121 81.4626 29.5197 81.3987 29.4801 81.2907C29.4273 81.1482 29.4889 80.986 29.6165 80.932C33.3873 79.2418 37.7609 78.9912 41.3205 80.2589C41.4525 80.3031 41.5229 80.4603 41.4833 80.6077C41.4437 80.7502 41.3029 80.8337 41.1709 80.7895C37.7697 79.5759 33.4137 79.8314 29.8013 81.4479C29.7705 81.4626 29.7397 81.4675 29.7089 81.4675V81.4626Z" fill="#FBEFE2"/>
<path d="M51.6472 73.9403C51.5856 73.9403 51.5284 73.9157 51.48 73.8666C51.3788 73.7634 51.3744 73.5865 51.4668 73.4735L53.0728 71.5229C53.1652 71.4099 53.3236 71.405 53.4248 71.5082C53.526 71.6114 53.5304 71.7882 53.438 71.9013L51.832 73.8568C51.7836 73.9157 51.7176 73.9452 51.6516 73.9452L51.6472 73.9403Z" fill="#FBEFE2"/>
<path d="M40.2908 84.5286L50.0412 108.574L45.804 112.643C45.804 112.643 28.9608 91.8593 30.228 85.1722C30.228 85.1722 32.5776 83.1921 36.9204 83.1921C40.084 83.1921 40.2908 84.5335 40.2908 84.5335V84.5286Z" fill="#E79064"/>
<path d="M51.3392 33.7787C51.304 33.7787 51.2688 33.7689 51.238 33.7542C51.1192 33.6952 50.0808 33.1498 49.9488 32.2507C49.9268 32.0984 50.0192 31.9559 50.1556 31.9313C50.2876 31.9068 50.4196 32.0099 50.4416 32.1622C50.5164 32.6781 51.194 33.1203 51.4448 33.2481C51.568 33.312 51.6252 33.4741 51.568 33.6117C51.5284 33.7149 51.436 33.7738 51.3436 33.7738L51.3392 33.7787Z" fill="#281105"/>
<path d="M53.9835 24.6989C53.9835 24.6989 53.8119 24.5908 53.6051 24.5564C53.5347 24.5466 52.4919 24.2272 51.3875 24.2125C51.5327 24.3992 51.4623 24.4925 51.0795 24.2125C51.0663 24.2125 51.0575 24.2125 51.0443 24.2125C50.6263 24.2272 50.2391 24.3795 49.9223 24.6301C50.0235 24.6891 50.1423 24.7726 50.2391 24.8365C50.1247 24.807 49.9619 24.7677 49.8035 24.7333C49.5835 24.9396 49.4075 25.1951 49.2975 25.4998C49.2711 25.5735 49.2623 25.6177 49.2799 25.6177C51.3039 25.3278 52.1575 25.6177 53.4159 26.0746C53.7195 26.1827 54.0319 25.9665 54.0495 25.6373C54.0671 25.3425 54.0275 25.033 53.9791 24.694L53.9835 24.6989Z" fill="#42210B"/>
<path d="M51.273 28.7668C51.6294 28.9388 52.021 28.7767 52.1486 28.4082L52.4126 27.6466C52.5402 27.2781 52.351 26.8457 51.9946 26.6738C51.6382 26.5018 51.2466 26.6639 51.119 27.0324L50.855 27.794C50.7274 28.1625 50.9166 28.5949 51.273 28.7668Z" fill="#281105"/>
<path d="M50.2347 26.9139C50.2875 26.9727 50.3667 27.0021 50.4459 26.9874C51.1895 26.8354 51.7526 26.958 51.9286 27.1443C52.0122 27.2473 52.1531 27.262 52.2367 27.1787C52.3203 27.1002 52.3203 26.9531 52.2367 26.855C52.2279 26.8452 52.2235 26.8354 52.2147 26.8305C51.8187 26.4039 50.9519 26.4039 50.3227 26.5363C50.2083 26.5608 50.1422 26.6834 50.1774 26.806C50.1906 26.8501 50.2126 26.8845 50.239 26.9188L50.2347 26.9139Z" fill="#281105"/>
<path d="M137.887 102.639C138.23 103.848 135.133 105.307 133.949 106.157L133.254 103.091C134.763 102.649 137.672 101.878 137.887 102.639Z" fill="#E79064"/>
<path d="M135.819 107.808L137.535 106.221L131.164 103.062L128.744 106.869L131.234 111.665L135.819 107.808Z" fill="#E79064"/>
<path d="M102.472 60.9396C98.6832 57.7361 96.888 51.8598 98.1376 46.7401C98.89 43.6594 101.002 40.9768 101.979 37.9796C103.03 34.7516 103.039 31.2582 102.903 27.8238C102.485 17.3977 103.607 20.9107 104.399 17.5942C105.191 14.2777 107.914 10.4895 108.918 9.31033C108.548 24.1879 107.004 39.827 104.755 54.4933L102.472 60.9396Z" fill="#42210B"/>
<path d="M117.691 22.5076C120.701 22.9792 123.768 22.9498 126.768 22.4191C127.653 22.2619 128.542 22.0604 129.338 21.6035C130.134 21.1466 130.838 20.3997 131.124 19.4416C131.916 16.7786 130.724 13.6635 129.334 11.3346C127.943 9.00571 126.02 6.91754 123.455 5.67938L117.414 21.0434L117.696 22.5076H117.691Z" fill="#42210B"/>
<path d="M104.606 84.5728C102.41 84.5728 100.219 83.9439 98.3004 82.7254C95.5064 80.9516 93.3504 77.9545 92.3912 74.5004C92.2636 74.0484 92.158 73.5816 92.048 73.11C91.7136 71.6654 91.3968 70.3044 90.574 69.2628C89.9316 68.4472 89.0252 67.9215 88.1496 67.4105C87.9208 67.2778 87.692 67.1452 87.4676 67.0076C85.448 65.7694 83.886 64.148 82.94 62.3104C81.004 58.5567 81.3912 53.3584 83.9168 49.069C86.3236 44.986 90.178 42.2542 93.2712 40.3233C93.6672 40.0776 94.072 39.8319 94.4724 39.5863C97.2796 37.8715 100.179 36.0978 102.098 33.2579L102.494 33.592C100.514 36.5253 97.5612 38.3285 94.71 40.0727C94.3096 40.3184 93.9092 40.564 93.5132 40.8097C90.4684 42.7062 86.6756 45.3938 84.3304 49.3736C81.906 53.4861 81.5276 58.4584 83.3712 62.0353C84.2688 63.7795 85.7692 65.3321 87.7096 66.5212C87.9296 66.6587 88.154 66.7865 88.3784 66.9192C89.2936 67.4498 90.244 68.005 90.948 68.8992C91.8456 70.0391 92.1932 71.5328 92.5276 72.9724C92.6332 73.4293 92.7432 73.8912 92.8664 74.3334C93.7904 77.6499 95.8584 80.534 98.5468 82.2389C101.235 83.9439 104.491 84.4499 107.488 83.6245L107.606 84.16C106.625 84.4303 105.613 84.5629 104.606 84.5629V84.5728Z" fill="#42210B"/>
<path d="M114.404 26.6741L131.3 17.7465C130.838 12.5728 128.22 7.66928 123.75 5.6892C119.28 3.71404 112.605 4.40191 108.918 7.73806C105.978 10.4011 103.25 14.145 102.824 22.144C102.771 26.7379 102.014 32.7518 99.2508 35.3412C96.4876 37.9305 93.3548 40.1022 90.5476 42.6424C87.7404 45.1826 85.2016 48.1994 84.0708 51.8303C82.9444 55.4613 83.4724 59.7948 86.1388 62.5267C87.5908 64.0154 89.5576 64.944 90.9172 66.5163C93.5484 69.5675 93.2492 74.1712 95.0664 77.7678C96.7032 81.0057 100.157 83.2511 103.761 83.4132C107.364 83.5754 110.977 81.6543 112.851 78.5687L104.201 29.8923C105.147 32.3686 106.361 34.5649 107.144 36.6334L114.404 26.6691V26.6741Z" fill="#42210B"/>
<path d="M102.771 74.6675C101.543 74.6675 100.324 74.2597 99.2991 73.4883C98.0803 72.5695 97.2839 70.0293 96.5799 67.7888C96.2719 66.8111 95.9859 65.8923 95.7043 65.2683C95.0311 63.7648 93.9531 62.5561 92.9103 61.3868C91.4055 59.6966 89.8435 57.9474 89.4739 55.2746C88.8183 50.5676 91.9071 47.2265 94.8551 44.4603C95.6295 43.7331 96.4567 43.0355 97.2531 42.3672C99.1627 40.7606 101.138 39.095 102.516 36.9036C104.35 33.9851 105.006 30.3394 105.644 26.8116C106.308 23.1217 106.999 19.309 109.023 16.2676C111.236 12.9413 114.994 10.8777 118.831 10.8777H118.848C122.54 10.8826 126.289 12.7791 128.872 15.9482C128.964 16.0613 128.955 16.2381 128.854 16.3413C128.753 16.4445 128.594 16.4347 128.502 16.3217C126.012 13.2656 122.399 11.4378 118.844 11.4329H118.826C115.143 11.4329 111.54 13.413 109.419 16.5968C107.461 19.5399 106.784 23.2937 106.128 26.9246C105.481 30.5065 104.812 34.216 102.92 37.223C101.499 39.4831 99.4927 41.1733 97.5523 42.8094C96.7603 43.4777 95.9375 44.1704 95.1719 44.8878C92.1975 47.6786 89.3463 50.769 89.9623 55.191C90.3099 57.6821 91.7443 59.2937 93.2623 60.9986C94.3315 62.1975 95.4359 63.4405 96.1487 65.0226C96.4435 65.6761 96.7383 66.6145 97.0463 67.607C97.6887 69.6608 98.4939 72.2157 99.5763 73.0314C100.826 73.9747 102.45 74.3285 103.924 73.9845C104.056 73.9501 104.188 74.0484 104.218 74.2007C104.245 74.3481 104.161 74.4955 104.025 74.5299C103.611 74.6282 103.189 74.6724 102.771 74.6724V74.6675Z" fill="#281105"/>
<path d="M110.088 57.8884C113.111 58.6549 116.178 59.4214 119.28 59.2937C122.382 59.1659 125.581 58.026 127.635 55.5251C129.866 52.8081 130.434 48.9314 130.253 45.3152C130.073 41.699 129.255 38.1418 129.114 34.5206C128.973 30.8995 129.62 26.222 131.934 23.5885C128.251 22.0555 124.252 24.5269 121.123 27.1162C114.277 32.7862 110.154 42.0675 110.357 51.3537L110.093 57.8835L110.088 57.8884Z" fill="#42210B"/>
<path d="M120.476 58.2422C120.397 58.2422 120.322 58.2029 120.274 58.1243C120.195 57.9966 120.221 57.8246 120.336 57.7411C122.791 55.8347 124.586 52.8769 125.272 49.6291C125.849 46.8826 125.655 43.969 125.466 41.1487C125.264 38.1025 125.052 34.953 125.805 31.9657C125.84 31.8183 125.981 31.7348 126.108 31.7741C126.24 31.8134 126.315 31.9657 126.28 32.1131C125.554 35.0071 125.761 38.1074 125.959 41.1045C126.152 43.9641 126.346 46.9219 125.752 49.752C125.039 53.1324 123.169 56.2081 120.617 58.1931C120.573 58.2275 120.525 58.2422 120.476 58.2422Z" fill="#281105"/>
<path d="M131.459 116.559C131.459 116.357 131.463 116.151 131.485 115.949C131.547 115.424 131.727 114.893 131.877 114.392C132.079 113.724 132.378 113.1 132.612 112.446C136.03 102.983 137.02 91.589 132.99 82.2389C132.44 80.9664 131.74 79.7823 131.01 78.6326C130.218 77.3944 129.844 75.832 129.122 74.4317C128.049 73.11 128.163 71.6949 128.612 69.9851C128.801 69.2579 129.1 68.5946 129.237 68.1426C129.417 67.5333 129.545 66.9241 129.62 66.305C130.302 63.4454 130.183 60.1977 127.921 57.5789C124.23 53.3043 121.59 49.7323 119.812 47.1135C114.871 46.406 109.481 44.1852 106.863 43.0895C103.083 41.5074 100.166 43.9199 100.166 43.9199C98.6788 46.18 96.2324 48.7791 96.624 56.1934C96.9496 62.3842 98.4808 68.2703 100.522 74.0484C102.282 79.0305 102.714 83.9684 102.709 86.6609C102.709 86.9459 102.687 87.28 102.656 87.6338C102.076 93.9425 95.3964 97.711 93.632 110.987C92.2372 121.487 94.1336 137.941 94.1336 137.941C99.0308 137.863 134.873 137.941 134.882 137.941C134.812 137.941 131.749 120.096 131.52 117.551C131.49 117.222 131.463 116.893 131.459 116.559Z" fill="#DFFFF6"/>
<path d="M113.511 31.9264C113.696 36.8545 117.41 40.2103 117.41 40.2103L118.809 35.464L117.066 30.3394C114.88 30.3246 113.463 30.757 113.507 31.9264H113.511Z" fill="#281105"/>
<path d="M113.511 31.9264C113.467 30.757 114.884 30.3246 117.071 30.3394L115.271 25.0428L109.547 27.868L107.149 36.6383C105.67 40.4314 102.375 40.5689 100.17 43.9198C100.17 43.9198 103.088 41.5074 106.867 43.0895C109.485 44.1852 114.875 46.406 119.816 47.1135C117.713 44.0132 116.811 42.2493 116.811 42.2493L117.414 40.2103C117.414 40.2103 113.7 36.8594 113.516 31.9264H113.511Z" fill="#E79064"/>
<path d="M131.067 15.3341L123.719 25.7847C123.719 25.7847 133.848 26.0157 133.835 22.252C133.817 18.4884 131.067 15.3341 131.067 15.3341Z" fill="#42210B"/>
<path d="M103.079 38.3579C104.936 38.8738 108.504 40.2692 110.458 37.9354C112.407 35.6016 113.309 29.2732 113.159 26.0844C112.328 24.07 110.779 24.9888 109.996 25.7847C106.99 28.8506 105.499 34.6828 103.083 38.3579H103.079Z" fill="#42210B"/>
<path d="M111.524 10.6216C113.784 8.75926 114.402 5.41036 112.903 3.14163C111.404 0.872911 108.356 0.543489 106.095 2.40585C103.835 4.26821 103.218 7.61712 104.717 9.88584C106.216 12.1546 109.263 12.484 111.524 10.6216Z" fill="#42210B"/>
<path d="M106.071 11.2462C106.022 11.2462 105.969 11.2314 105.925 11.1971C105.815 11.1086 105.789 10.9366 105.868 10.8089C107.641 8.03778 110.347 5.9447 113.295 5.07013C113.427 5.03082 113.564 5.11926 113.599 5.26666C113.634 5.41406 113.555 5.56638 113.423 5.60568C110.585 6.45078 107.98 8.46524 106.273 11.1332C106.225 11.2069 106.15 11.2511 106.071 11.2511V11.2462Z" fill="#281105"/>
<path d="M107.624 9.10396C107.562 9.10396 107.505 9.07939 107.457 9.03026C106.59 8.13603 106.189 6.65712 106.409 5.16838C106.599 3.886 107.03 2.87385 107.853 1.77326C107.941 1.65534 108.099 1.6406 108.2 1.73887C108.306 1.83714 108.319 2.0091 108.231 2.12702C107.47 3.14408 107.074 4.08253 106.898 5.25682C106.704 6.56376 107.048 7.85105 107.791 8.62245C107.892 8.72563 107.897 8.90251 107.804 9.01552C107.756 9.07448 107.69 9.10396 107.624 9.10396Z" fill="#281105"/>
<path d="M111.448 6.28861C111.364 6.28861 111.28 6.23947 111.236 6.15103C110.823 5.37473 110.18 4.75564 109.432 4.41662C108.68 4.0776 107.84 4.01864 107.056 4.2594C106.924 4.2987 106.788 4.21027 106.753 4.06778C106.718 3.92038 106.797 3.76807 106.924 3.72876C107.809 3.45853 108.768 3.5224 109.617 3.90564C110.466 4.28888 111.197 4.98657 111.663 5.87097C111.734 6.00363 111.694 6.17068 111.575 6.2493C111.536 6.27386 111.492 6.28861 111.448 6.28861Z" fill="#281105"/>
<path d="M106.291 36.5842C105.846 36.5842 105.402 36.4811 104.997 36.2501C104.874 36.1813 104.826 36.0143 104.887 35.8767C104.949 35.7391 105.099 35.6851 105.222 35.7539C106.436 36.4467 108.029 35.7588 108.869 34.6975C109.776 33.5429 110.101 31.9903 110.387 30.6145L111.659 24.4925C111.69 24.3451 111.822 24.2518 111.958 24.2862C112.09 24.3206 112.174 24.468 112.143 24.6203L110.871 30.7423C110.572 32.177 110.233 33.8082 109.243 35.066C108.552 35.9406 107.413 36.5891 106.295 36.5891L106.291 36.5842Z" fill="#281105"/>
<path d="M124.001 16.017L129.232 17.8006L129.923 17.7269C130.363 20.6356 129.906 22.8171 128.898 25.4654C128.876 25.5292 128.854 25.5882 128.832 25.6472C128.63 26.2564 128.088 27.5683 127.811 28.3839L127.829 28.3937C127.829 28.3937 127.657 29.568 128.401 31.725C128.52 32.0689 128.396 32.3735 128.071 32.4374C127.653 32.516 127.063 32.5357 126.412 32.2998C125.4 35.0021 124.595 37.051 123.785 38.1074C121.845 40.6476 118.598 39.1834 115.43 35.6212C112.262 32.0591 113.326 26.9983 113.326 26.9983L116.024 21.0778L124.001 16.017Z" fill="#E79064"/>
<path d="M114.316 27.0081C109.582 26.7969 111.566 19.3925 114.387 19.6283C117.207 19.8592 116.904 22.9841 116.904 22.9841L114.316 27.0081Z" fill="#E79064"/>
<path d="M114.602 25.2885C114.554 25.2885 114.501 25.2737 114.457 25.2344C114.347 25.146 114.321 24.974 114.4 24.8463C115.693 22.8269 113.986 21.4069 113.916 21.348C113.806 21.2595 113.779 21.0876 113.859 20.9598C113.938 20.837 114.092 20.8075 114.202 20.8959C114.224 20.9156 116.389 22.6893 114.8 25.1656C114.752 25.2393 114.677 25.2836 114.598 25.2836L114.602 25.2885Z" fill="#281105"/>
<path d="M113.405 24.1731C113.405 24.1731 113.379 24.1731 113.366 24.1731C113.229 24.1486 113.137 24.0061 113.159 23.8538C113.181 23.6867 113.234 23.5098 113.304 23.328C113.551 22.709 114.175 22.3748 114.937 22.4436C115.073 22.4584 115.174 22.591 115.161 22.7433C115.148 22.8957 115.016 22.9988 114.893 22.9939C114.343 22.935 113.916 23.1512 113.757 23.5491C113.7 23.6867 113.665 23.8194 113.647 23.9373C113.625 24.0749 113.524 24.1682 113.405 24.1682V24.1731Z" fill="#281105"/>
<path d="M130.469 17.9234L124.762 13.3933C124.762 13.3933 112.486 13.1083 116.024 21.0728C119.561 29.0374 131.116 21.7312 131.116 21.7312L130.469 17.9234Z" fill="#42210B"/>
<path d="M130.06 21.859C130.007 21.859 129.954 21.8393 129.91 21.8049C129.8 21.7116 129.778 21.5396 129.862 21.4168C130.772 20.0705 131.089 18.228 130.684 16.6017C130.649 16.4543 130.724 16.302 130.856 16.2627C130.988 16.2234 131.124 16.3069 131.16 16.4543C131.6 18.2428 131.256 20.272 130.253 21.7509C130.205 21.8246 130.13 21.859 130.055 21.859H130.06Z" fill="#281105"/>
<path d="M120.05 20.8517C118.606 20.8517 117.168 20.6503 115.777 20.2425C115.645 20.2032 115.566 20.0509 115.601 19.9035C115.636 19.7561 115.768 19.6627 115.905 19.7069C119.623 20.7977 123.746 20.3604 127.213 18.5081C127.336 18.4393 127.486 18.4983 127.543 18.6407C127.6 18.7783 127.552 18.9454 127.424 19.0092C125.145 20.2277 122.588 20.8517 120.045 20.8517H120.05Z" fill="#281105"/>
<path d="M113.181 47.31C115.927 48.7939 118.95 49.7815 122.034 50.2335C121.185 49.0838 120.446 48.0372 119.816 47.1135C114.875 46.406 109.485 44.1852 106.867 43.0895C105.657 42.5834 104.54 42.4901 103.576 42.5883H103.607C107.127 43.232 110.031 45.6051 113.177 47.31H113.181Z" fill="#FBEFE2"/>
<path d="M107.056 79.1091C107.056 79.1091 109.956 56.3407 108.354 47.8751C106.753 39.4143 97.9395 42.2837 96.1839 49.5603C94.4283 56.837 89.6367 85.1476 96.4919 87.2456C102.511 89.0881 105.525 87.4078 106.137 84.9658C106.744 82.5239 107.056 79.1042 107.056 79.1042V79.1091Z" fill="#DFFFF6"/>
<path d="M107.219 81.0253C107.219 81.0253 107.193 81.0253 107.18 81.0253C107.043 81.0008 106.951 80.8632 106.973 80.7109C107.611 76.0334 108.693 63.1162 108.579 54.0266C108.579 53.8743 108.684 53.7465 108.825 53.7465C108.953 53.7367 109.076 53.8644 109.076 54.0216C109.19 63.1408 108.104 76.1022 107.461 80.7944C107.444 80.932 107.338 81.0302 107.215 81.0302L107.219 81.0253Z" fill="#FBEFE2"/>
<path d="M94.1511 77.7383C94.0763 77.7383 94.0015 77.699 93.9531 77.6302C93.8695 77.5074 93.8915 77.3354 94.0015 77.2421C98.9119 73.0608 104.694 74.9819 107.703 76.5051C107.826 76.5689 107.884 76.7311 107.826 76.8687C107.769 77.0062 107.62 77.0652 107.501 77.0062C104.592 75.5371 99.0131 73.6701 94.3051 77.6794C94.2611 77.7187 94.2083 77.7383 94.1555 77.7383H94.1511Z" fill="#FBEFE2"/>
<path d="M132.22 79.2713C132.22 79.2713 133.311 76.9129 131.802 75.9941C131.802 75.9941 131.899 73.6848 130.825 73.5816C130.328 73.5325 130.94 71.4198 128.128 72.0339C127.833 72.0978 127.574 72.1666 127.371 72.2403C127.248 72.2845 127.134 72.3287 127.015 72.3779C126.989 72.3877 126.962 72.3975 126.94 72.4074C126.83 72.4516 126.72 72.4958 126.619 72.5351C126.601 72.54 126.584 72.5498 126.571 72.5548C126.483 72.5941 126.395 72.6285 126.311 72.6628C126.289 72.6727 126.263 72.6825 126.236 72.6923C126.144 72.7316 126.056 72.7709 125.972 72.8053C125.95 72.8152 125.933 72.8201 125.915 72.8299C125.845 72.8594 125.774 72.8938 125.708 72.9233C125.695 72.9282 125.677 72.938 125.664 72.9429C125.589 72.9773 125.523 73.0068 125.462 73.0363C125.444 73.0461 125.431 73.051 125.413 73.0608C125.356 73.0854 125.303 73.11 125.259 73.1345C125.193 73.164 125.149 73.1886 125.11 73.2082C125.132 73.1493 125.215 72.938 125.321 72.6481C125.594 71.9258 126.025 70.7123 125.99 70.3388C125.99 70.3044 125.981 70.2701 125.977 70.2307C125.977 70.1914 125.968 70.1521 125.963 70.1128C125.911 69.7394 125.801 69.2776 125.585 68.9533C125.475 68.7911 125.343 68.6585 125.176 68.5946C125.176 68.5946 125.136 68.8206 125.009 69.2039C124.982 69.2825 124.956 69.366 124.925 69.4544C124.789 69.8279 124.586 70.3044 124.296 70.8449C124.186 71.0464 124.063 71.2576 123.926 71.4787C123.557 72.0683 123.086 72.7022 122.483 73.3458C121.225 74.6921 119.852 76.0383 119.231 77.8464C119.157 78.0675 119.095 78.3034 119.042 78.5392L106.449 84.4745L106.713 81.1924C106.075 79.8314 102.995 78.5441 99.5105 79.0256C96.8749 79.3892 95.2733 81.384 95.2645 81.4037C95.0533 86.715 95.3613 90.2821 95.6253 92.7436C95.6517 93.5494 95.7529 94.2619 95.8981 94.8859L95.9069 94.9399C96.5361 97.5784 97.9617 98.6396 97.9617 98.6396C104.958 100.718 122.105 84.2387 122.105 84.2387C123.579 84.5777 125.303 83.9193 126.113 83.5066C126.192 83.4673 126.271 83.428 126.351 83.3837C126.5 83.3051 126.654 83.2314 126.813 83.1528C128.247 82.4256 128.656 82.1849 128.656 82.1849C128.656 82.1849 128.964 82.1407 129.356 82.0817C130.293 81.9441 131.243 82.0473 132.15 82.347C132.625 82.5043 133.091 82.5829 133.197 82.347C133.435 81.8262 132.638 79.4776 132.233 79.2615L132.22 79.2713Z" fill="#E79064"/>
<path d="M121.915 84.4843C121.88 84.4843 121.84 84.4745 121.805 84.4548L120.397 83.6884C120.274 83.6196 120.221 83.4574 120.283 83.3199C120.344 83.1823 120.494 83.1282 120.613 83.1921L122.021 83.9586C122.144 84.0274 122.197 84.1895 122.135 84.3271C122.091 84.4254 122.003 84.4843 121.911 84.4843H121.915Z" fill="#281105"/>
<path d="M127.138 74.5545C127.041 74.5545 126.953 74.4906 126.909 74.3874C126.856 74.2499 126.909 74.0828 127.037 74.0238C128.432 73.3409 130.552 73.1542 130.64 73.1493C130.768 73.1395 130.896 73.2525 130.904 73.4048C130.913 73.5571 130.812 73.6897 130.676 73.7045C130.654 73.7045 128.55 73.8912 127.23 74.5348C127.2 74.5496 127.164 74.5594 127.129 74.5594L127.138 74.5545Z" fill="#281105"/>
<path d="M103.752 85.9829C103.655 85.9829 103.563 85.919 103.523 85.8158C103.47 85.6783 103.523 85.5112 103.651 85.4522L105.948 84.3467C106.071 84.2878 106.22 84.3467 106.273 84.4892C106.326 84.6268 106.273 84.7939 106.146 84.8528L103.849 85.9583C103.818 85.9731 103.783 85.9829 103.752 85.9829Z" fill="#281105"/>
<path d="M129.853 76.1888C129.734 76.1888 129.629 76.0957 129.611 75.9584C129.589 75.8064 129.681 75.6642 129.813 75.6397L131.49 75.3209C131.622 75.2964 131.754 75.3994 131.776 75.5465C131.798 75.6985 131.705 75.8407 131.573 75.8652L129.897 76.1839C129.897 76.1839 129.871 76.1839 129.853 76.1839V76.1888Z" fill="#281105"/>
<path d="M125.092 34.6337C125.052 34.6337 125.017 34.6238 124.982 34.6042C124.868 34.5403 123.851 33.936 123.759 33.0319C123.746 32.8796 123.842 32.742 123.979 32.7273C124.102 32.7076 124.238 32.8206 124.252 32.973C124.304 33.4889 124.96 33.9704 125.206 34.1129C125.33 34.1816 125.378 34.3487 125.316 34.4863C125.272 34.5796 125.184 34.6386 125.096 34.6386L125.092 34.6337Z" fill="#281105"/>
<path d="M128.115 25.711C128.115 25.711 127.952 25.5931 127.745 25.5489C127.675 25.5342 126.65 25.1608 125.545 25.0871C125.682 25.2836 125.607 25.372 125.242 25.0723C125.228 25.0723 125.219 25.0723 125.206 25.0723C124.788 25.0674 124.392 25.1951 124.067 25.431C124.163 25.4949 124.282 25.5833 124.375 25.6521C124.26 25.6128 124.097 25.5686 123.943 25.5243C123.715 25.716 123.525 25.9665 123.407 26.2613C123.376 26.335 123.367 26.3793 123.385 26.3743C125.418 26.1925 126.258 26.5316 127.494 27.0573C127.789 27.185 128.115 26.9836 128.15 26.6544C128.181 26.3596 128.154 26.0501 128.119 25.711H128.115Z" fill="#42210B"/>
<path d="M126.438 29.1454C126.412 29.1454 126.386 29.1454 126.359 29.1307C126.232 29.0816 126.161 28.9243 126.205 28.7819C126.271 28.5608 126.091 28.2954 125.884 28.1972C125.616 28.0645 125.277 28.0989 124.978 28.1235L123.838 28.2316C123.697 28.2414 123.583 28.1333 123.57 27.981C123.556 27.8287 123.658 27.696 123.794 27.6813L124.934 27.5732C125.272 27.5388 125.699 27.5044 126.078 27.6911C126.487 27.8925 126.83 28.433 126.672 28.9587C126.636 29.0717 126.54 29.1454 126.438 29.1454Z" fill="#281105"/>
<path d="M124.551 28.1628C124.524 28.1628 124.498 28.1628 124.472 28.148C124.216 28.0498 123.957 27.6567 123.948 27.3521C123.948 27.1998 124.049 27.0819 124.186 27.072C124.3 27.0622 124.436 27.185 124.445 27.3324C124.45 27.411 124.573 27.5928 124.634 27.6223C124.758 27.6764 124.828 27.8385 124.78 27.9761C124.744 28.0891 124.652 28.1579 124.551 28.1579V28.1628Z" fill="#281105"/>
<path d="M176.026 61.8486C172.238 58.6451 170.443 52.7687 171.692 47.649C172.445 44.5684 174.557 41.8857 175.534 38.8886C176.585 35.6605 176.594 32.1671 176.458 28.7327C176.04 18.3066 177.162 21.8196 177.954 18.5031C178.746 15.1817 181.469 11.3985 182.472 10.2193C182.103 25.0968 180.558 40.736 178.31 55.4023L176.026 61.8486Z" fill="#42210B"/>
<path d="M191.246 23.4165C194.256 23.8882 197.322 23.8587 200.323 23.328C201.208 23.1708 202.096 22.9694 202.893 22.5124C203.689 22.0555 204.393 21.3087 204.679 20.3506C205.471 17.6875 204.279 14.5725 202.888 12.2436C201.498 9.91465 199.575 7.82648 197.01 6.58832L190.969 21.9523L191.25 23.4165H191.246Z" fill="#42210B"/>
<path d="M178.16 85.4817C175.965 85.4817 173.774 84.8528 171.855 83.6343C169.061 81.8606 166.905 78.8635 165.946 75.4094C165.818 74.9574 165.713 74.4906 165.603 74.0189C165.268 72.5744 164.952 71.2134 164.129 70.1718C163.486 69.3562 162.58 68.8304 161.704 68.3195C161.476 68.1868 161.247 68.0541 161.022 67.9166C159.003 66.6784 157.441 65.057 156.495 63.2194C154.559 59.4656 154.946 54.2673 157.472 49.978C159.878 45.895 163.733 43.1632 166.826 41.2322C167.222 40.9866 167.627 40.7409 168.027 40.4952C170.834 38.7805 173.734 37.0068 175.652 34.1669L176.048 34.501C174.068 37.4342 171.116 39.2374 168.265 40.9817C167.864 41.2273 167.464 41.473 167.068 41.7187C164.023 43.6152 160.23 46.3028 157.885 50.2826C155.461 54.3951 155.082 59.3674 156.926 62.9443C157.824 64.6885 159.324 66.2411 161.264 67.4301C161.484 67.5677 161.709 67.6955 161.933 67.8281C162.848 68.3588 163.799 68.914 164.503 69.8082C165.4 70.9481 165.748 72.4417 166.082 73.8814C166.188 74.3383 166.298 74.8001 166.421 75.2423C167.345 78.5588 169.413 81.443 172.102 83.1479C174.79 84.8528 178.046 85.3589 181.042 84.5335L181.161 85.069C180.18 85.3392 179.168 85.4719 178.16 85.4719V85.4817Z" fill="#42210B"/>
<path d="M187.959 27.583L204.855 18.6555C204.393 13.4817 201.775 8.57824 197.305 6.59817C192.834 4.62301 186.16 5.31088 182.472 8.64703C179.533 11.3101 176.805 15.054 176.378 23.0529C176.326 27.6469 175.569 33.6608 172.806 36.2501C170.042 38.8395 166.91 41.0112 164.102 43.5514C161.295 46.0915 158.756 49.1083 157.626 52.7393C156.499 56.3702 157.027 60.7038 159.693 63.4356C161.145 64.9244 163.112 65.853 164.472 67.4252C167.103 70.4764 166.804 75.0802 168.621 78.6768C170.258 81.9147 173.712 84.1601 177.316 84.3222C180.919 84.4843 184.532 82.5632 186.406 79.4777L177.756 30.8013C178.702 33.2776 179.916 35.4738 180.699 37.5423L187.959 27.5781V27.583Z" fill="#42210B"/>
<path d="M176.325 75.5765C175.098 75.5765 173.879 75.1686 172.854 74.3973C171.635 73.4785 170.839 70.9383 170.135 68.6978C169.827 67.72 169.541 66.8012 169.259 66.1773C168.586 64.6738 167.508 63.4651 166.465 62.2957C164.96 60.6055 163.398 58.8564 163.029 56.1835C162.373 51.4766 165.462 48.1355 168.41 45.3693C169.184 44.6421 170.011 43.9444 170.808 43.2762C172.717 41.6695 174.693 40.0039 176.07 37.8126C177.905 34.8941 178.561 31.2484 179.199 27.7206C179.863 24.0307 180.554 20.2179 182.578 17.1766C184.791 13.8503 188.549 11.7867 192.385 11.7867H192.403C196.095 11.7916 199.843 13.6881 202.426 16.8572C202.519 16.9702 202.51 17.1471 202.409 17.2503C202.307 17.3535 202.149 17.3436 202.057 17.2306C199.566 14.1745 195.954 12.3468 192.399 12.3419H192.381C188.698 12.3419 185.095 14.3219 182.974 17.5058C181.016 20.4489 180.338 24.2026 179.683 27.8336C179.036 31.4154 178.367 35.125 176.475 38.1319C175.054 40.3921 173.047 42.0823 171.107 43.7184C170.315 44.3866 169.492 45.0794 168.727 45.7967C165.752 48.5875 162.901 51.678 163.517 56.1C163.865 58.5911 165.299 60.2026 166.817 61.9076C167.886 63.1064 168.991 64.3495 169.703 65.9316C169.998 66.5851 170.293 67.5235 170.601 68.516C171.243 70.5698 172.049 73.1247 173.131 73.9403C174.381 74.8837 176.004 75.2374 177.478 74.8935C177.61 74.8591 177.742 74.9574 177.773 75.1097C177.799 75.2571 177.716 75.4045 177.579 75.4389C177.166 75.5372 176.743 75.5814 176.325 75.5814V75.5765Z" fill="#281105"/>
<path d="M183.643 58.7974C186.666 59.5639 189.732 60.3304 192.834 60.2026C195.936 60.0749 199.135 58.935 201.19 56.4341C203.421 53.717 203.988 49.8404 203.808 46.2242C203.628 42.608 202.809 39.0507 202.668 35.4296C202.528 31.8085 203.174 27.131 205.489 24.4974C201.806 22.9645 197.806 25.4359 194.678 28.0252C187.832 33.6952 183.709 42.9765 183.911 52.2627L183.647 58.7925L183.643 58.7974Z" fill="#42210B"/>
<path d="M194.031 59.1512C193.952 59.1512 193.877 59.1119 193.829 59.0332C193.75 58.9055 193.776 58.7335 193.89 58.65C196.346 56.7436 198.141 53.7858 198.827 50.5381C199.404 47.7915 199.21 44.8779 199.021 42.0577C198.818 39.0114 198.607 35.862 199.36 32.8746C199.395 32.7272 199.531 32.6437 199.663 32.683C199.795 32.7223 199.87 32.8747 199.835 33.0221C199.109 35.916 199.316 39.0163 199.514 42.0135C199.707 44.873 199.901 47.8308 199.307 50.6609C198.594 54.0413 196.724 57.117 194.172 59.102C194.128 59.1364 194.08 59.1512 194.031 59.1512Z" fill="#281105"/>
<path d="M214.5 96.2763C214.429 94.9104 214.24 93.5298 213.919 92.1295C212.771 87.1081 210.06 83.0005 206.628 79.6103C205.348 78.3476 203.839 76.7606 202.686 75.3406C201.612 74.0189 201.727 72.6039 202.175 70.8941C202.365 70.1669 202.664 69.5036 202.8 69.0516C202.981 68.4423 203.108 67.833 203.183 67.214C203.865 64.3544 203.746 61.1067 201.485 58.4879C197.793 54.2133 195.153 50.6413 193.375 48.0225C188.434 47.315 183.044 45.0941 180.426 43.9985C176.647 42.4164 173.729 44.8288 173.729 44.8288C172.242 47.089 169.796 49.6881 170.187 57.1023C170.513 63.2931 172.044 69.1793 174.086 74.9574C175.846 79.9395 176.277 84.8774 176.273 87.5699C176.273 87.8549 176.251 88.189 176.22 88.5427C175.639 94.8515 168.96 98.62 167.195 111.896C165.801 122.396 167.697 138.85 167.697 138.85C172.594 138.772 208.445 138.85 208.445 138.85C206.611 130.134 206.932 126.916 205.986 119.546C205.871 117.551 207.2 115.021 208.494 113.468C212.529 108.624 214.834 102.673 214.5 96.2763Z" fill="#DFFFF6"/>
<path d="M187.066 32.8354C187.251 37.7634 190.964 41.1192 190.964 41.1192L192.364 36.373L190.621 31.2483C188.434 31.2336 187.018 31.666 187.062 32.8354H187.066Z" fill="#281105"/>
<path d="M187.066 32.8354C187.022 31.666 188.439 31.2336 190.626 31.2484L188.826 25.9518L183.101 28.7769L180.703 37.5473C179.225 41.3403 175.929 41.4779 173.725 44.8288C173.725 44.8288 176.642 42.4164 180.422 43.9985C183.04 45.0941 188.43 47.315 193.371 48.0225C191.268 44.9222 190.366 43.1583 190.366 43.1583L190.969 41.1192C190.969 41.1192 187.255 37.7683 187.07 32.8354H187.066Z" fill="#E79064"/>
<path d="M186.305 80.5635C186.305 80.5635 184.888 56.3162 181.733 47.8947C178.578 39.4733 170.478 44.3964 170.122 52.3315C169.765 60.2665 171.244 90.5867 177.474 91.3384C183.709 92.0901 186.362 89.5106 186.503 86.8476C186.644 84.1797 186.309 80.5684 186.309 80.5684L186.305 80.5635Z" fill="#DFFFF6"/>
<path d="M204.622 16.243L197.274 26.6937C197.274 26.6937 207.403 26.9246 207.39 23.161C207.372 19.3974 204.622 16.243 204.622 16.243Z" fill="#42210B"/>
<path d="M176.634 39.2669C178.49 39.7828 182.059 41.1782 184.012 38.8444C185.962 36.5105 186.864 30.1821 186.714 26.9934C185.882 24.9789 184.334 25.8977 183.55 26.6937C180.545 29.7596 179.054 35.5917 176.638 39.2669H176.634Z" fill="#42210B"/>
<path d="M185.073 11.5256C187.334 9.66326 187.951 6.31435 186.452 4.04563C184.953 1.7769 181.905 1.44748 179.645 3.30984C177.384 5.1722 176.767 8.52111 178.266 10.7898C179.765 13.0586 182.813 13.388 185.073 11.5256Z" fill="#42210B"/>
<path d="M186.243 88.3658C186.212 88.3658 186.177 88.3609 186.146 88.3462C186.019 88.2872 185.962 88.1251 186.014 87.9826C186.182 87.5355 186.736 85.806 186.754 85.4522C186.886 82.9612 185.152 64.8064 183.11 54.2133C183.084 54.0659 183.168 53.9185 183.3 53.8841C183.436 53.8546 183.564 53.9479 183.594 54.0953C185.689 64.9685 187.383 82.8973 187.246 85.4817C187.22 85.9829 186.595 87.8647 186.472 88.1939C186.432 88.302 186.34 88.3658 186.243 88.3658Z" fill="#FBEFE2"/>
<path d="M179.625 12.1551C179.577 12.1551 179.524 12.1404 179.48 12.106C179.37 12.0176 179.344 11.8456 179.423 11.7178C181.196 8.94672 183.902 6.85364 186.85 5.97906C186.982 5.93976 187.119 6.0282 187.154 6.1756C187.189 6.323 187.11 6.47531 186.978 6.51462C184.14 7.35971 181.535 9.37418 179.828 12.0421C179.779 12.1158 179.705 12.16 179.625 12.16V12.1551Z" fill="#281105"/>
<path d="M181.179 10.0129C181.117 10.0129 181.06 9.98835 181.011 9.93922C180.145 9.04499 179.744 7.56608 179.964 6.07734C180.153 4.79496 180.585 3.78281 181.407 2.68223C181.495 2.56431 181.654 2.54957 181.755 2.64783C181.861 2.7461 181.874 2.91807 181.786 3.03599C181.025 4.05305 180.629 4.99149 180.453 6.16578C180.259 7.47273 180.602 8.76002 181.346 9.53141C181.447 9.63459 181.451 9.81148 181.359 9.92448C181.311 9.98344 181.245 10.0129 181.179 10.0129Z" fill="#281105"/>
<path d="M184.998 7.19757C184.914 7.19757 184.831 7.14844 184.787 7.06C184.373 6.28369 183.731 5.66461 182.983 5.32559C182.23 4.98657 181.385 4.92761 180.607 5.16837C180.475 5.20767 180.338 5.11923 180.303 4.97675C180.268 4.82935 180.347 4.67703 180.475 4.63773C181.359 4.36749 182.318 4.43137 183.167 4.81461C184.017 5.19785 184.747 5.89554 185.213 6.77994C185.284 6.9126 185.244 7.07965 185.125 7.15827C185.086 7.18283 185.042 7.19757 184.998 7.19757Z" fill="#281105"/>
<path d="M179.846 37.4932C179.401 37.4932 178.957 37.39 178.552 37.1591C178.429 37.0903 178.38 36.9232 178.442 36.7857C178.504 36.6481 178.658 36.5941 178.776 36.6628C179.991 37.3556 181.584 36.6678 182.424 35.6065C183.33 34.4518 183.656 32.8992 183.942 31.5235L185.214 25.4015C185.244 25.2541 185.376 25.1607 185.513 25.1951C185.645 25.2295 185.728 25.3769 185.698 25.5292L184.426 31.6512C184.127 33.0859 183.788 34.7172 182.798 35.975C182.107 36.8495 180.968 37.4981 179.85 37.4981L179.846 37.4932Z" fill="#281105"/>
<path d="M197.555 16.926L202.787 18.7095L203.478 18.6358C203.918 21.5445 203.46 23.726 202.453 26.3743C202.431 26.4382 202.409 26.4972 202.387 26.5561C202.184 27.1654 201.643 28.4772 201.366 29.2929L201.383 29.3027C201.383 29.3027 201.212 30.477 201.955 32.6339C202.074 32.9779 201.951 33.2825 201.625 33.3464C201.207 33.425 200.618 33.4446 199.967 33.2088C198.955 35.9111 198.149 37.96 197.34 39.0163C195.399 41.5565 192.152 40.0924 188.984 36.5302C185.816 32.968 186.881 27.9073 186.881 27.9073L189.578 21.9867L197.555 16.926Z" fill="#E79064"/>
<path d="M187.871 27.9171C183.137 27.7058 185.121 20.3014 187.941 20.5373C190.762 20.7682 190.458 23.8931 190.458 23.8931L187.871 27.9171Z" fill="#E79064"/>
<path d="M188.157 26.1974C188.108 26.1974 188.056 26.1827 188.012 26.1434C187.902 26.0549 187.875 25.883 187.954 25.7552C189.248 23.7359 187.541 22.3159 187.47 22.2569C187.36 22.1685 187.334 21.9965 187.413 21.8688C187.492 21.7459 187.646 21.7165 187.756 21.8049C187.778 21.8246 189.943 23.5983 188.355 26.0746C188.306 26.1483 188.232 26.1925 188.152 26.1925L188.157 26.1974Z" fill="#281105"/>
<path d="M186.96 25.0821C186.96 25.0821 186.934 25.0821 186.92 25.0821C186.784 25.0575 186.692 24.915 186.714 24.7627C186.74 24.5957 186.788 24.4188 186.859 24.237C187.105 23.6179 187.73 23.2838 188.491 23.3526C188.628 23.3673 188.729 23.5 188.716 23.6523C188.702 23.8046 188.57 23.9078 188.447 23.9029C187.897 23.8439 187.47 24.0601 187.312 24.4581C187.255 24.5957 187.22 24.7283 187.202 24.8463C187.18 24.9838 187.079 25.0772 186.96 25.0772V25.0821Z" fill="#281105"/>
<path d="M204.023 18.8324L198.317 14.3023C198.317 14.3023 186.041 14.0173 189.578 21.9818C193.116 29.9463 204.67 22.6402 204.67 22.6402L204.023 18.8324Z" fill="#42210B"/>
<path d="M203.614 22.7679C203.561 22.7679 203.509 22.7483 203.465 22.7139C203.355 22.6205 203.333 22.4486 203.416 22.3257C204.327 20.9795 204.644 19.137 204.239 17.5107C204.204 17.3633 204.279 17.211 204.411 17.1716C204.543 17.1323 204.679 17.2159 204.714 17.3633C205.154 19.1517 204.811 21.1809 203.808 22.6598C203.759 22.7335 203.685 22.7679 203.61 22.7679H203.614Z" fill="#281105"/>
<path d="M193.604 21.7607C192.161 21.7607 190.722 21.5593 189.332 21.1515C189.2 21.1121 189.121 20.9598 189.156 20.8124C189.191 20.665 189.327 20.5717 189.459 20.6159C193.177 21.7067 197.3 21.2694 200.767 19.417C200.891 19.3483 201.04 19.4072 201.097 19.5497C201.155 19.6873 201.106 19.8543 200.979 19.9182C198.699 21.1367 196.143 21.7607 193.6 21.7607H193.604Z" fill="#281105"/>
<path d="M186.736 48.219C189.481 49.7028 192.504 50.6904 195.589 51.1424C194.739 49.9927 194 48.9462 193.371 48.0225C188.43 47.315 183.04 45.0941 180.422 43.9985C179.212 43.4924 178.094 43.399 177.131 43.4973H177.161C180.681 44.1409 183.585 46.5141 186.731 48.219H186.736Z" fill="#FBEFE2"/>
<path d="M212.969 104.83C212.898 104.84 212.819 104.845 212.735 104.855C212.383 104.88 211.917 104.884 211.363 104.826C211.156 104.806 210.936 104.771 210.703 104.732C210.078 104.619 209.374 104.428 208.604 104.103C206.998 103.435 205.343 102.654 203.645 102.811C203.434 102.831 203.227 102.87 203.016 102.919L185.759 85.86C185.759 85.86 185.095 84.7791 182.318 86.204C178.503 88.1644 177.315 90.1985 177.315 90.1985C178.662 98.0058 199.804 108.383 199.804 108.383C200.165 109.985 201.423 111.409 202.096 112.033C202.162 112.092 202.228 112.156 202.294 112.215C202.417 112.333 202.545 112.451 202.677 112.569C203.865 113.674 204.23 113.974 204.23 113.974C204.23 113.974 204.397 114.259 204.609 114.623C205.119 115.492 205.44 116.475 205.594 117.497C205.673 118.037 205.81 118.529 206.039 118.534C206.553 118.548 208.076 116.755 208.076 116.264C208.076 116.264 210.412 116.333 210.496 114.451C210.496 114.451 212.37 113.561 211.992 112.456C211.816 111.945 213.756 111.645 212.067 109.13C211.891 108.869 211.728 108.638 211.578 108.471C211.49 108.373 211.402 108.275 211.319 108.176C211.301 108.157 211.283 108.132 211.261 108.113C211.182 108.024 211.099 107.936 211.024 107.847C211.011 107.832 210.997 107.818 210.984 107.808C210.918 107.734 210.852 107.665 210.786 107.597C210.769 107.577 210.751 107.557 210.729 107.538C210.659 107.464 210.593 107.395 210.527 107.326C210.509 107.312 210.496 107.297 210.483 107.277C210.425 107.218 210.373 107.164 210.324 107.115C210.311 107.105 210.298 107.091 210.289 107.081C210.232 107.022 210.179 106.968 210.131 106.919C210.117 106.904 210.104 106.894 210.091 106.879C210.047 106.835 210.003 106.796 209.968 106.756C209.915 106.702 209.88 106.668 209.845 106.639C209.902 106.634 210.104 106.624 210.377 106.609C211.068 106.57 212.212 106.476 212.493 106.285C212.52 106.265 212.546 106.25 212.573 106.226C212.599 106.206 212.63 106.187 212.656 106.162C212.929 105.951 213.246 105.641 213.413 105.292C213.497 105.115 213.545 104.929 213.523 104.737C213.523 104.737 213.325 104.796 212.969 104.835V104.83Z" fill="#E79064"/>
<path d="M175.503 87.0048C175.437 87.0048 175.375 86.9754 175.327 86.9213C175.23 86.8132 175.23 86.6363 175.327 86.5282C177.368 84.2878 179.89 82.6025 182.622 81.6542C183.282 81.4233 184.065 81.1973 184.866 81.2612C185.75 81.3299 186.507 81.7574 186.952 82.4354C187.031 82.5583 187.009 82.7302 186.899 82.8236C186.789 82.912 186.635 82.8875 186.551 82.7646C186.199 82.2291 185.557 81.8753 184.831 81.8164C184.109 81.7574 183.383 81.9736 182.767 82.1849C180.11 83.1086 177.659 84.7447 175.674 86.9262C175.626 86.9803 175.564 87.0048 175.503 87.0048Z" fill="#FBEFE2"/>
<path d="M207.354 75.4831L206.012 74.2941L204.64 73.0805C204.64 73.0805 204.072 71.7981 202.748 72.3828C201.423 72.9675 199.712 73.6406 198.317 74.7019C197.133 75.6059 195.589 77.8661 194.995 78.7505C194.832 78.9912 194.902 79.3352 195.14 79.4776C195.461 79.6693 196.011 79.6987 196.825 78.8192C198.273 77.2568 198.717 76.7704 198.717 76.7704L201.159 75.6747C201.159 75.6747 199.483 77.4091 198.766 78.2444C198.176 78.9323 196.94 80.8878 196.513 81.5658C196.434 81.6936 196.469 81.8704 196.592 81.9441C197.124 82.2684 197.78 82.1751 198.22 81.7181C198.66 81.2612 199.298 80.5094 200.213 79.2615L202.651 77.7727C202.651 77.7727 201.428 79.1976 200.886 79.8019C200.341 80.4063 198.88 82.0277 197.987 82.799C197.987 82.799 198.4 84.16 199.54 83.3837C200.68 82.6074 202.334 80.8632 202.334 80.8632L204.301 79.3745C204.301 79.3745 200.728 82.9514 200.495 83.5901C200.495 83.5901 200.838 84.2976 201.436 84.0569C202.035 83.8161 203.971 82.1751 203.971 82.1751C203.971 82.1751 205.964 80.9074 206.426 80.6077C206.426 80.6077 208.749 83.3248 210.272 81.3987C210.377 81.2661 210.514 81.158 210.624 81.0008C210.685 80.2982 210.61 79.1239 207.346 75.4831H207.354Z" fill="#E79064"/>
<path d="M201.163 75.9578C201.071 75.9578 200.983 75.899 200.939 75.8009C200.882 75.6636 200.939 75.4969 201.058 75.4331L201.793 75.0507C201.916 74.9869 202.061 75.0458 202.123 75.1831C202.18 75.3203 202.123 75.4871 202.004 75.5508L201.269 75.9333C201.234 75.9529 201.199 75.9578 201.163 75.9578Z" fill="#281105"/>
<path d="M198.576 35.5967C198.541 35.5967 198.506 35.5868 198.475 35.5721C198.356 35.5131 197.318 34.9678 197.186 34.0686C197.164 33.9163 197.257 33.7738 197.393 33.7493C197.525 33.7247 197.657 33.8279 197.679 33.9802C197.754 34.4961 198.431 34.9383 198.682 35.066C198.805 35.1299 198.862 35.292 198.805 35.4296C198.766 35.5328 198.673 35.5918 198.581 35.5918L198.576 35.5967Z" fill="#281105"/>
<path d="M201.221 26.5168C201.221 26.5168 201.049 26.4087 200.842 26.3743C200.772 26.3645 199.729 26.0451 198.625 26.0304C198.77 26.2171 198.7 26.3105 198.317 26.0304C198.304 26.0304 198.295 26.0304 198.282 26.0304C197.864 26.0451 197.476 26.1974 197.16 26.448C197.261 26.507 197.38 26.5905 197.476 26.6544C197.362 26.6249 197.199 26.5856 197.041 26.5512C196.821 26.7576 196.645 27.0131 196.535 27.3177C196.508 27.3914 196.5 27.4356 196.517 27.4356C198.541 27.1457 199.395 27.4356 200.653 27.8925C200.957 28.0006 201.269 27.7845 201.287 27.4553C201.304 27.1605 201.265 26.8509 201.216 26.5119L201.221 26.5168Z" fill="#42210B"/>
<path d="M199.681 30.0397C199.659 30.0397 199.637 30.0397 199.615 30.0299C199.483 29.9856 199.408 29.8333 199.443 29.6859C199.5 29.4599 199.307 29.2093 199.1 29.1209C198.827 29.003 198.488 29.0521 198.189 29.1012L197.058 29.2683C196.926 29.2879 196.799 29.1848 196.781 29.0325C196.764 28.8801 196.86 28.7426 196.992 28.7229L198.123 28.5559C198.462 28.5067 198.884 28.4429 199.272 28.6099C199.69 28.7868 200.055 29.3076 199.918 29.8432C199.888 29.966 199.786 30.0446 199.681 30.0446V30.0397Z" fill="#281105"/>
<path d="M197.754 29.1602C197.732 29.1602 197.71 29.1602 197.683 29.1504C197.424 29.0668 197.146 28.6885 197.124 28.3839C197.116 28.2316 197.212 28.1087 197.349 28.094C197.49 28.0694 197.604 28.1923 197.622 28.3397C197.63 28.4183 197.758 28.5952 197.824 28.6197C197.952 28.6689 198.026 28.8212 197.987 28.9686C197.952 29.0865 197.859 29.1651 197.754 29.1651V29.1602Z" fill="#281105"/>
<path d="M251.975 83.6638C249.779 83.6638 247.588 83.0349 245.67 81.8164C242.876 80.0427 240.72 77.0455 239.76 73.5915C239.633 73.1345 239.527 72.6678 239.417 72.201C239.083 70.7565 238.766 69.3955 237.943 68.3539C237.301 67.5382 236.394 67.0125 235.519 66.5015C235.29 66.3689 235.061 66.2362 234.837 66.0986C232.817 64.8605 231.255 63.2391 230.309 61.4015C228.435 57.7607 228.884 52.587 231.458 48.219C233.301 45.0892 235.822 43.0944 238.493 40.9817C239.105 40.5002 239.721 40.0088 240.337 39.5028C241.674 38.4022 242.977 37.5816 244.24 36.7906C246.316 35.4836 248.112 34.3585 249.467 32.3489L249.863 32.683C248.446 34.781 246.519 35.9897 244.482 37.2721C243.232 38.0582 241.943 38.8689 240.632 39.9499C240.016 40.4608 239.395 40.9522 238.779 41.4337C236.148 43.5169 233.662 45.4823 231.871 48.5236C229.398 52.7147 228.958 57.6624 230.74 61.1263C231.638 62.8706 233.138 64.4232 235.074 65.6122C235.294 65.7498 235.519 65.8775 235.743 66.0102C236.658 66.5408 237.609 67.096 238.313 67.9903C239.21 69.1302 239.558 70.6189 239.892 72.0634C239.998 72.5253 240.108 72.9822 240.231 73.4293C241.155 76.7458 243.223 79.6299 245.912 81.3349C248.6 83.0398 251.856 83.5459 254.852 82.7204L254.971 83.256C253.99 83.5262 252.978 83.6589 251.97 83.6589L251.975 83.6638Z" fill="#42210B"/>
<path d="M265.06 21.5986C268.07 22.0703 271.137 22.0408 274.138 21.5101C275.022 21.3529 275.911 21.1515 276.707 20.6945C277.504 20.2376 278.208 19.4908 278.494 18.5327C279.286 15.8696 278.093 12.7546 276.703 10.4257C275.312 8.09674 273.39 6.00858 270.824 4.77042L264.783 20.1344L265.065 21.5986H265.06Z" fill="#42210B"/>
<path d="M261.774 25.7651L278.67 16.8376C278.208 11.6638 275.59 6.76031 271.119 4.78024C266.649 2.80508 259.974 3.49294 256.287 6.8291C253.348 9.49212 250.62 13.2361 250.193 21.235C250.14 25.829 249.383 31.8429 246.62 34.4322C243.857 37.0215 240.724 39.1932 237.917 41.7334C235.11 44.2736 232.571 47.2904 231.44 50.9214C230.314 54.5523 230.842 58.8859 233.508 61.6177C234.96 63.1064 236.927 64.035 238.286 65.6073C240.918 68.6585 240.618 73.2623 242.436 76.8589C244.072 80.0967 247.526 82.3421 251.13 82.5043C254.734 82.6664 258.346 80.7453 260.22 77.6597L251.57 28.9833C252.516 31.4596 253.73 33.6559 254.514 35.7244L261.774 25.7602V25.7651Z" fill="#42210B"/>
<path d="M249.841 60.0307C246.052 56.8272 244.257 50.9508 245.507 45.8311C246.259 42.7505 248.371 40.0678 249.348 37.0707C250.4 33.8426 250.408 30.3492 250.272 26.9148C249.854 16.4887 250.976 20.0017 251.768 16.6852C252.56 13.3638 255.284 9.58057 256.287 8.40137C255.917 23.2789 254.373 38.9181 252.124 53.5844L249.841 60.0307Z" fill="#42210B"/>
<path d="M250.325 73.7536C249.097 73.7536 247.878 73.3458 246.853 72.5744C245.634 71.6556 244.838 69.1154 244.134 66.8749C243.826 65.8972 243.54 64.9784 243.258 64.3544C242.585 62.8509 241.507 61.6422 240.464 60.4729C238.959 58.7827 237.397 57.0335 237.028 54.3607C236.372 49.6537 239.461 46.3126 242.409 43.5464C243.183 42.8193 244.011 42.1216 244.807 41.4484C246.717 39.8418 248.692 38.1762 250.069 35.9848C251.904 33.0663 252.56 29.4206 253.198 25.8928C253.862 22.2029 254.553 18.3902 256.577 15.3488C258.79 12.0225 262.548 9.95889 266.385 9.95889H266.402C270.094 9.96381 273.843 11.8604 276.425 15.0295C276.518 15.1425 276.509 15.3193 276.408 15.4225C276.307 15.5257 276.148 15.5159 276.056 15.4029C273.565 12.3468 269.953 10.519 266.398 10.5141H266.38C262.697 10.5141 259.094 12.4942 256.973 15.678C255.015 18.6211 254.337 22.3749 253.682 26.0009C253.035 29.5827 252.366 33.2923 250.474 36.3042C249.053 38.5643 247.047 40.2545 245.106 41.8906C244.314 42.5589 243.491 43.2516 242.726 43.969C239.883 46.6369 236.9 49.8502 237.516 54.2722C237.864 56.7633 239.298 58.3749 240.816 60.0798C241.885 61.2787 242.99 62.5217 243.703 64.1038C243.997 64.7573 244.292 65.6957 244.6 66.6882C245.243 68.742 246.048 71.2969 247.13 72.1126C248.38 73.0559 250.003 73.4097 251.477 73.0657C251.609 73.0314 251.741 73.1296 251.772 73.2819C251.803 73.4342 251.715 73.5767 251.579 73.6111C251.165 73.7094 250.743 73.7536 250.325 73.7536Z" fill="#281105"/>
<path d="M257.457 56.9795C260.48 57.746 263.547 58.5124 266.649 58.3847C269.751 58.2569 272.95 57.1171 275.004 54.6162C277.235 51.8991 277.803 48.0225 277.622 44.4063C277.442 40.79 276.624 37.2328 276.483 33.6117C276.342 29.9905 276.989 25.313 279.303 22.6795C275.62 21.1465 271.621 23.6179 268.492 26.2073C261.646 31.8773 257.523 41.1585 257.726 50.4447L257.462 56.9746L257.457 56.9795Z" fill="#42210B"/>
<path d="M268.03 57.3333C267.951 57.3333 267.876 57.2939 267.828 57.2153C267.749 57.0876 267.775 56.9156 267.89 56.8321C270.345 54.9257 272.144 51.9679 272.826 48.7202C273.403 45.9736 273.209 43.0551 273.02 40.2398C272.818 37.1935 272.606 34.0441 273.359 31.0568C273.394 30.9094 273.535 30.8258 273.662 30.8651C273.794 30.9044 273.869 31.0567 273.834 31.2041C273.108 34.0981 273.315 37.1984 273.513 40.1955C273.702 43.0551 273.9 46.0178 273.306 48.8479C272.593 52.2283 270.723 55.3041 268.171 57.289C268.127 57.3234 268.079 57.3382 268.03 57.3382V57.3333Z" fill="#281105"/>
<path d="M260.55 46.4011C263.296 47.8849 266.319 48.8725 269.403 49.3245C268.554 48.1748 267.815 47.1283 267.185 46.2045C262.244 45.497 256.854 43.2762 254.236 42.1805C253.026 41.6745 251.909 41.5811 250.945 41.6794H250.976C254.496 42.323 257.4 44.6962 260.546 46.4011H260.55Z" fill="#FBEFE2"/>
<path d="M281.156 93.0286C281.054 81.723 274.27 72.8545 274.806 71.1053C275.035 70.3634 276.417 67.3024 276.575 66.8406C277.653 63.6764 277.948 59.7408 275.295 56.665C272.906 53.8988 270.961 51.4323 269.403 49.3196C266.319 48.8676 263.296 47.88 260.55 46.3962C257.404 44.6962 254.5 42.323 250.98 41.6794H250.95C248.895 41.8907 247.544 43.006 247.544 43.006C246.057 45.2661 243.61 47.8653 244.002 55.2795C244.328 61.4703 245.859 67.3565 247.9 73.1345C249.66 78.1167 250.092 83.0546 250.087 85.7471C250.087 86.032 250.065 86.3661 250.034 86.7199C249.454 93.0286 242.774 96.7972 241.01 110.073C239.615 120.573 241.512 137.028 241.512 137.028C246.409 136.949 282.26 137.028 282.26 137.028C283.197 117.576 281.314 109.872 281.16 93.0286H281.156Z" fill="#DFFFF6"/>
<path d="M260.88 31.0174C261.065 35.9455 264.779 39.3013 264.779 39.3013L266.178 34.555L264.436 29.4304C262.249 29.4157 260.832 29.8481 260.876 31.0174H260.88Z" fill="#281105"/>
<path d="M260.88 31.0174C260.836 29.8481 262.253 29.4157 264.44 29.4304L262.64 24.1339L256.916 26.959L254.518 35.7293C253.04 39.5224 249.744 39.66 247.54 43.0109C247.54 43.0109 250.457 40.5984 254.236 42.1805C256.854 43.2762 262.244 45.497 267.186 46.2045C265.082 43.1042 264.18 41.3403 264.18 41.3403L264.783 39.3013C264.783 39.3013 261.07 35.9504 260.885 31.0174H260.88Z" fill="#E79064"/>
<path d="M278.432 14.4251L271.084 24.8758C271.084 24.8758 281.213 25.1067 281.2 21.3431C281.182 17.5795 278.432 14.4251 278.432 14.4251Z" fill="#42210B"/>
<path d="M250.448 37.449C252.305 37.9649 255.873 39.3603 257.827 37.0265C259.776 34.6926 260.678 28.3642 260.528 25.1755C259.697 23.161 258.148 24.0798 257.365 24.8758C254.36 27.9417 252.868 33.7738 250.452 37.449H250.448Z" fill="#42210B"/>
<path d="M258.886 9.70454C261.147 7.84218 261.764 4.49327 260.265 2.22455C258.766 -0.0441732 255.718 -0.373595 253.458 1.48877C251.197 3.35113 250.58 6.70003 252.079 8.96876C253.578 11.2375 256.626 11.5669 258.886 9.70454Z" fill="#42210B"/>
<path d="M253.625 10.3372C253.576 10.3372 253.523 10.3225 253.479 10.2881C253.369 10.1997 253.343 10.0277 253.422 9.89994C255.195 7.12882 257.901 5.03574 260.849 4.16116C260.981 4.12186 261.118 4.2103 261.153 4.3577C261.188 4.5051 261.109 4.65741 260.977 4.69672C258.139 5.54181 255.534 7.55628 253.827 10.2242C253.779 10.2979 253.704 10.3421 253.625 10.3421V10.3372Z" fill="#281105"/>
<path d="M255.178 8.19502C255.116 8.19502 255.059 8.17045 255.011 8.12132C254.144 7.22709 253.744 5.74818 253.964 4.25944C254.153 2.98197 254.584 1.96491 255.407 0.864326C255.495 0.746406 255.653 0.731666 255.754 0.829933C255.86 0.9282 255.873 1.10017 255.785 1.21809C255.024 2.23515 254.628 3.17359 254.452 4.34788C254.258 5.65483 254.602 6.94212 255.345 7.71351C255.446 7.81669 255.451 7.99357 255.358 8.10658C255.31 8.16554 255.244 8.19502 255.178 8.19502Z" fill="#281105"/>
<path d="M258.997 5.37967C258.914 5.37967 258.83 5.33054 258.786 5.2421C258.372 4.46579 257.73 3.84671 256.982 3.50769C256.23 3.16867 255.385 3.10971 254.606 3.35047C254.47 3.38977 254.338 3.30133 254.302 3.15885C254.267 3.01145 254.346 2.85913 254.474 2.81983C255.363 2.54959 256.318 2.61347 257.167 3.00162C258.016 3.38486 258.746 4.08255 259.213 4.96695C259.283 5.09961 259.244 5.26667 259.125 5.34528C259.085 5.36985 259.041 5.38459 258.997 5.38459V5.37967Z" fill="#281105"/>
<path d="M253.845 35.6753C253.4 35.6753 252.956 35.5721 252.551 35.3412C252.428 35.2724 252.38 35.1053 252.441 34.9677C252.503 34.8302 252.657 34.7761 252.776 34.8449C253.99 35.5377 255.583 34.8498 256.423 33.7885C257.334 32.6339 257.655 31.0813 257.941 29.7056L259.213 23.5836C259.244 23.4362 259.376 23.3428 259.512 23.3772C259.644 23.4116 259.728 23.559 259.697 23.7113L258.425 29.8333C258.126 31.268 257.787 32.8992 256.797 34.157C256.106 35.0316 254.967 35.6802 253.849 35.6802L253.845 35.6753Z" fill="#281105"/>
<path d="M271.37 15.1081L277.143 16.8179C277.583 19.7266 277.275 21.9032 276.267 24.5515C276.245 24.6154 276.223 24.6743 276.201 24.7333C275.999 25.3425 275.458 26.6544 275.181 27.47L275.198 27.4798C275.198 27.4798 275.027 28.6541 275.77 30.8111C275.889 31.155 275.766 31.4596 275.44 31.5235C275.022 31.6021 274.433 31.6218 273.781 31.3859C272.769 34.0883 271.964 36.1371 271.155 37.1935C269.214 39.7337 265.967 38.2695 262.799 34.7073C259.631 31.1452 260.696 26.0844 260.696 26.0844L263.393 20.1639L271.37 15.1031V15.1081Z" fill="#E79064"/>
<path d="M261.686 26.0992C256.951 25.8879 258.936 18.4835 261.756 18.7194C264.576 18.9503 264.273 22.0752 264.273 22.0752L261.686 26.0992Z" fill="#E79064"/>
<path d="M261.972 24.3746C261.923 24.3746 261.871 24.3598 261.827 24.3205C261.717 24.2321 261.69 24.0601 261.769 23.9324C263.063 21.913 261.356 20.4931 261.285 20.4341C261.175 20.3457 261.149 20.1737 261.228 20.0459C261.307 19.9231 261.461 19.8936 261.576 19.9821C261.598 20.0017 263.763 21.7754 262.174 24.2517C262.126 24.3254 262.051 24.3697 261.972 24.3697V24.3746Z" fill="#281105"/>
<path d="M260.775 23.2642C260.775 23.2642 260.748 23.2642 260.735 23.2642C260.599 23.2396 260.511 23.0971 260.533 22.9448C260.559 22.7778 260.608 22.6009 260.678 22.424C260.924 21.8049 261.554 21.4659 262.31 21.5396C262.447 21.5543 262.548 21.687 262.535 21.8393C262.522 21.9916 262.39 22.0948 262.267 22.0899C261.721 22.0309 261.29 22.2471 261.131 22.6451C261.078 22.7827 261.039 22.9104 261.021 23.0333C260.999 23.1708 260.898 23.2642 260.779 23.2642H260.775Z" fill="#281105"/>
<path d="M277.811 16.8572L272.131 12.4843C272.131 12.4843 259.855 12.1994 263.393 20.1639C266.93 28.1284 278.485 20.8223 278.485 20.8223L277.811 16.8572Z" fill="#42210B"/>
<path d="M277.609 20.95C277.556 20.95 277.504 20.9304 277.46 20.896C277.35 20.8026 277.328 20.6307 277.411 20.5078C278.322 19.1616 278.639 17.3191 278.234 15.6928C278.199 15.5454 278.274 15.3931 278.406 15.3537C278.538 15.3144 278.674 15.398 278.709 15.5454C279.154 17.3338 278.806 19.363 277.803 20.8419C277.754 20.9156 277.68 20.95 277.605 20.95H277.609Z" fill="#281105"/>
<path d="M267.599 19.9428C266.156 19.9428 264.717 19.7413 263.327 19.3335C263.195 19.2942 263.115 19.1419 263.151 18.9945C263.186 18.8471 263.318 18.7537 263.454 18.798C267.172 19.8887 271.295 19.4514 274.762 17.5991C274.885 17.5303 275.035 17.5893 275.092 17.7318C275.149 17.8693 275.101 18.0364 274.973 18.1003C272.694 19.3188 270.138 19.9428 267.595 19.9428H267.599Z" fill="#281105"/>
<path d="M272.809 73.9403C272.747 73.9403 272.69 73.9157 272.642 73.8666C272.54 73.7634 272.536 73.5865 272.628 73.4735L274.234 71.5229C274.327 71.4099 274.485 71.405 274.586 71.5082C274.688 71.6114 274.692 71.7882 274.6 71.9013L272.994 73.8568C272.945 73.9157 272.879 73.9452 272.813 73.9452L272.809 73.9403Z" fill="#FBEFE2"/>
<path d="M272.373 45.1678C271.757 44.9369 270.798 44.9418 270.16 45.0598C269.693 45.1482 269.245 45.3251 268.783 45.4577C268.325 45.5904 267.841 45.6739 267.375 45.5609C267.256 45.5314 267.133 45.4921 267.023 45.5462C266.86 45.6199 266.807 45.8508 266.798 46.0473C266.763 46.8531 267.089 47.6687 267.647 48.1797L272.369 45.1678H272.373Z" fill="#E79064"/>
<path d="M272.782 84.1945L272.127 86.6953C272.127 86.6953 276.096 91.5939 280.086 92.1098L282.77 87.9139L281.138 86.3858L272.778 84.1945H272.782Z" fill="#F5E8B6"/>
<path d="M277.987 93.9229C277.776 93.7067 277.715 93.3529 277.847 93.063C277.979 92.7682 278.212 92.552 278.427 92.3309C279.316 91.422 280.196 90.4 280.685 89.1667C281.046 88.2578 281.547 87.6092 282.467 87.7812C283.571 87.9826 283.62 89.4419 283.254 90.4393C282.814 91.6431 282.55 92.9107 281.868 93.9671C281.64 94.3208 281.38 94.6795 281.024 94.8613C280.619 95.0628 280.152 94.9989 279.73 94.8711C279.101 94.6795 278.507 94.3601 277.987 93.9278V93.9229Z" fill="#E79064"/>
<path d="M280.927 62.3006V60.468C280.927 60.468 278.511 58.2471 276.562 57.348C274.613 56.4489 274.644 61.7061 274.644 61.7061L280.927 62.2957V62.3006Z" fill="#CFE5B3"/>
<path d="M267.291 69.8131C266.811 69.7198 265.654 69.3169 265.051 69.0859C264.295 68.7961 263.494 68.5553 263.516 68.3391C263.525 68.231 263.749 68.0984 264.757 68.0198C263.841 67.3712 263.419 66.9486 263.489 66.7521C263.547 66.5949 264.075 66.5802 264.761 66.7177C264.22 66.1183 263.833 65.5238 263.969 65.3371C264.105 65.1504 264.11 65.2585 264.242 65.1258C264.427 64.9391 265.795 64.6443 266.992 65.7449C266.987 65.5385 267.005 65.1504 267.207 64.7573C267.216 64.7426 267.225 64.7278 267.234 64.7131C267.331 64.5362 267.537 64.4822 267.691 64.5853H267.696C267.806 64.659 267.867 64.7917 267.859 64.9342C267.837 65.4796 267.96 65.8186 268.083 66.0299C268.219 66.2608 268.228 66.2706 268.457 66.6293C268.637 66.9143 268.69 67.5874 268.752 67.7593L267.295 69.818L267.291 69.8131Z" fill="#E79064"/>
<path d="M274.903 55.0977C274.771 55.4514 274.586 55.702 274.357 55.8347C274.076 56.0017 273.662 55.9772 273.46 55.6529C273.416 55.5841 273.429 55.4809 273.495 55.4318C273.557 55.3827 273.645 55.3974 273.689 55.4662C273.803 55.648 274.063 55.6578 274.23 55.5546C274.406 55.4514 274.551 55.2451 274.657 54.9405C274.833 54.454 274.868 53.9086 274.758 53.4026C274.74 53.324 274.718 53.2404 274.679 53.1815C274.639 53.1274 274.569 53.0832 274.472 53.0537C274.049 52.926 273.543 53.2453 273.411 53.7219C273.389 53.8055 273.31 53.8546 273.235 53.83C273.161 53.8055 273.121 53.717 273.143 53.6335C273.319 52.9899 273.975 52.5771 274.547 52.7491C274.701 52.7933 274.815 52.8719 274.894 52.98C274.969 53.0832 275.004 53.211 275.031 53.3191C275.154 53.889 275.114 54.5032 274.916 55.0485C274.912 55.0633 274.907 55.0731 274.903 55.0879V55.0977Z" fill="#E69B8C"/>
<path d="M278.48 53.0389C278.48 52.1693 277.983 51.4372 277.288 51.1571C276.984 47.7276 274.397 45.0499 271.247 45.0499C270.028 45.0499 268.893 45.4577 267.942 46.1455C267.911 46.1554 267.881 46.1603 267.85 46.1701C266.521 46.6565 265.395 47.8062 264.831 49.2557C264.268 50.7051 264.273 52.4297 264.849 53.8742C265.192 54.739 265.716 55.4858 266.173 56.2817C266.763 57.3037 267.243 58.4092 267.595 59.5688C267.713 59.9618 267.823 60.3746 268.048 60.7087C268.29 61.0772 268.651 61.3277 269.016 61.5243C269.759 61.9272 270.582 62.1532 271.405 62.1876L271.656 62.2957C273.002 62.1188 274.472 61.8682 275.369 60.7185C276.179 59.6769 277.547 57.4118 277.618 56.0213C277.64 55.5841 277.6 55.1861 277.521 54.8028C278.093 54.4687 278.485 53.8054 278.485 53.0389H278.48Z" fill="#E79064"/>
<path d="M271.299 63.922C271.013 64.7966 271.277 67.1894 270.481 67.2336C269.711 67.2778 269.289 66.472 268.541 66.6882C268.145 66.8062 267.194 68.629 267.075 69.366C266.917 70.3585 267.524 70.4862 268.202 71.0857C268.879 71.6802 269.663 72.1027 270.349 72.6825C271.343 73.5276 272.294 74.7756 273.535 74.6331C274.569 74.5103 275.299 73.4637 275.831 72.3631L271.343 63.7795C271.326 63.8287 271.313 63.8729 271.295 63.922H271.299Z" fill="#F5E8B6"/>
<path d="M287.434 71.6802C285.943 67.2041 283.18 62.222 280.227 59.8587C278.48 58.4584 276.461 60.0798 275.229 59.9815C273.112 59.8096 269.72 60.4287 270.006 64.7671C270.252 68.4816 269.786 71.2576 269.786 71.2576L271.586 67.4302C271.889 70.727 272.597 73.788 272.597 73.788C272.707 73.6259 272.065 73.4343 272.162 73.2721C272.659 75.0557 273.09 76.8588 273.456 78.6866C272.118 79.5612 271.502 80.8583 271.299 82.5976C271.176 83.6491 271.502 85.8306 273.609 87.7763C274.525 88.6214 283.905 89.3289 287.148 80.9369C287.769 79.3302 288.675 75.4045 287.43 71.6753L287.434 71.6802Z" fill="#F5E8B6"/>
<path d="M273.75 75.5028C273.649 75.5028 273.557 75.434 273.522 75.3259C273.473 75.1834 273.535 75.0213 273.662 74.9672C276.602 73.6947 275.277 68.8452 275.264 68.7961C275.224 68.6487 275.295 68.4963 275.427 68.4472C275.559 68.403 275.695 68.4816 275.739 68.629C275.757 68.6831 277.213 74.0189 273.843 75.4782C273.812 75.4929 273.781 75.4978 273.755 75.4978L273.75 75.5028Z" fill="#281105"/>
<path d="M264.013 55.1665V57.4708L268.62 63.922L270.076 67.1845C271.586 59.0529 264.013 55.1714 264.013 55.1714V55.1665Z" fill="#DFFFF6"/>
<path d="M281.767 87.2505C281.71 87.2505 281.657 87.2309 281.609 87.1867L280.267 85.9485C280.161 85.8502 280.148 85.6783 280.232 85.5604C280.32 85.4424 280.478 85.4228 280.579 85.521L281.921 86.7592C282.027 86.8575 282.04 87.0294 281.956 87.1474C281.908 87.2162 281.838 87.2456 281.767 87.2456V87.2505Z" fill="#281105"/>
<path d="M273.002 54.8717C272.769 54.8717 272.532 54.798 272.32 54.6506C272.202 54.572 272.166 54.4 272.241 54.2723C272.312 54.1396 272.466 54.1003 272.58 54.1838C272.8 54.3361 273.06 54.3607 273.288 54.2575C273.53 54.1494 273.742 53.8988 273.869 53.5647C273.922 53.4222 274.072 53.3584 274.195 53.4222C274.318 53.4812 274.38 53.6433 274.322 53.7858C274.142 54.2477 273.834 54.6064 273.473 54.7734C273.324 54.8422 273.161 54.8766 273.002 54.8766V54.8717Z" fill="#B15E44"/>
<path d="M268.083 57.3922C267.85 57.3922 267.612 57.3185 267.401 57.1711C267.282 57.0925 267.247 56.9205 267.322 56.7928C267.392 56.6601 267.546 56.6208 267.661 56.7043C267.881 56.8567 268.14 56.8812 268.369 56.778C268.611 56.67 268.822 56.4194 268.95 56.0853C269.003 55.9428 269.152 55.8789 269.276 55.9428C269.399 56.0017 269.46 56.1639 269.403 56.3064C269.223 56.7682 268.915 57.1269 268.554 57.2939C268.404 57.3627 268.242 57.3971 268.083 57.3971V57.3922Z" fill="#B15E44"/>
<path d="M276.945 54.2624H276.94C276.804 54.2624 276.694 54.1347 276.698 53.9824C276.707 53.3879 276.927 52.8032 277.301 52.3757C277.398 52.2676 277.556 52.2627 277.653 52.3708C277.75 52.4789 277.754 52.6509 277.658 52.7639C277.372 53.0931 277.204 53.5402 277.196 53.9971C277.196 54.1494 277.081 54.2673 276.949 54.2673L276.945 54.2624Z" fill="#B15E44"/>
<path d="M277.486 53.6956C277.411 53.6956 277.341 53.6612 277.292 53.5926L277.037 53.2395C276.954 53.1219 276.971 52.9453 277.077 52.8522C277.182 52.759 277.341 52.7786 277.424 52.8963L277.675 53.2493C277.759 53.367 277.746 53.5435 277.636 53.6367C277.592 53.6759 277.534 53.6956 277.482 53.6956H277.486Z" fill="#B15E44"/>
<path d="M275.642 52.4003C275.616 52.4003 275.589 52.4003 275.567 52.3855C275.435 52.3364 275.365 52.1841 275.409 52.0367C275.642 51.2358 276.377 50.6904 277.129 50.7641C277.266 50.7789 277.367 50.9115 277.354 51.0638C277.341 51.2162 277.213 51.3193 277.085 51.3144C276.557 51.2604 276.038 51.6535 275.88 52.2087C275.845 52.3266 275.748 52.4003 275.642 52.4003Z" fill="#B15E44"/>
<path d="M268.264 47.6245C267.916 47.6245 267.573 47.482 267.37 47.1381C267.296 47.0103 267.326 46.8384 267.441 46.7549C267.555 46.6713 267.709 46.7057 267.784 46.8335C267.938 47.0988 268.334 47.1234 268.629 46.9907C268.858 46.8875 269.064 46.7106 269.284 46.5288C269.403 46.4306 269.518 46.3323 269.641 46.239C270.151 45.8606 270.657 45.7624 271.071 45.9589C271.198 46.0179 271.256 46.18 271.203 46.3225C271.15 46.465 271 46.5288 270.877 46.4699C270.525 46.3028 270.09 46.578 269.918 46.7008C269.804 46.7843 269.694 46.8777 269.588 46.971C269.355 47.1676 269.113 47.3739 268.822 47.5066C268.651 47.5852 268.457 47.6294 268.268 47.6294L268.264 47.6245Z" fill="#B15E44"/>
<path d="M271.388 57.8622C271.172 57.8622 270.956 57.7984 270.767 57.6758C270.648 57.5974 270.613 57.4257 270.684 57.2983C270.754 57.1659 270.908 57.1266 271.022 57.2051C271.291 57.3865 271.691 57.3277 271.911 57.0776C272.008 56.9697 272.162 56.9648 272.263 57.0727C272.36 57.1806 272.364 57.3522 272.268 57.465C272.039 57.7298 271.713 57.8671 271.388 57.8671V57.8622Z" fill="#B15E44"/>
<path d="M272.505 56.9439C272.444 56.9439 272.378 56.9194 272.329 56.8606C272.232 56.7527 272.232 56.5762 272.329 56.4683L272.356 56.4438C272.452 56.3408 272.62 56.3261 272.716 56.4389C272.813 56.5468 272.822 56.7086 272.725 56.8164L272.681 56.8606C272.633 56.9145 272.571 56.9439 272.505 56.9439Z" fill="#B15E44"/>
<path d="M272.87 59.4853C272.589 59.4853 272.325 59.2839 272.157 59.0578C272.135 59.0284 272.118 58.994 272.109 58.9596C272.039 58.822 272.078 58.655 272.197 58.5763C272.395 58.4437 272.65 58.4289 272.861 58.537C273.073 58.6451 273.227 58.8711 273.266 59.1266C273.284 59.2544 273.222 59.3821 273.112 59.4313C273.033 59.4657 272.954 59.4804 272.875 59.4804L272.87 59.4853Z" fill="#B15E44"/>
<path d="M285.098 62.7134L284.09 61.485L283.061 60.2272C283.061 60.2272 282.731 59.0382 281.521 59.333C280.306 59.6327 278.753 59.9472 277.42 60.6498C276.289 61.2443 274.683 62.9541 274.058 63.6272C273.891 63.809 273.904 64.1186 274.094 64.2758C274.349 64.492 274.815 64.6001 275.625 63.9712C277.064 62.8509 277.508 62.4972 277.508 62.4972L279.748 61.9321C279.748 61.9321 278.089 63.1654 277.371 63.7746C276.782 64.2758 275.475 65.7695 275.022 66.2903C274.938 66.3885 274.947 66.5458 275.044 66.6293C275.462 66.9929 276.038 67.0125 276.474 66.6833C276.91 66.3591 277.552 65.8088 278.494 64.8752L280.777 63.9712C280.777 63.9712 279.55 65.0079 279.008 65.4452C278.467 65.8825 277.006 67.0518 276.14 67.5776C276.14 67.5776 276.329 68.8108 277.407 68.3195C278.485 67.8281 280.121 66.5802 280.121 66.5802L282 65.6024C282 65.6024 278.48 68.1279 278.203 68.6438C278.203 68.6438 278.414 69.3071 278.956 69.1891C279.501 69.0761 281.371 67.9608 281.371 67.9608C281.371 67.9608 283.241 67.1796 283.677 66.988C283.677 66.988 285.34 69.6854 286.893 68.2654C286.999 68.1672 287.131 68.0935 287.245 67.9755C287.386 67.381 287.465 66.3591 285.107 62.7183L285.098 62.7134Z" fill="#E79064"/>
<path d="M279.743 62.2057C279.633 62.2057 279.536 62.1273 279.506 62.0047C279.466 61.8576 279.545 61.7056 279.677 61.6614L280.359 61.4408C280.491 61.3967 280.628 61.4849 280.667 61.632C280.707 61.7791 280.628 61.9311 280.496 61.9753L279.814 62.1959C279.792 62.2057 279.77 62.2057 279.743 62.2057Z" fill="#281105"/>
<path d="M274.925 24.6989C274.925 24.6989 274.754 24.5908 274.547 24.5564C274.476 24.5466 273.434 24.2272 272.329 24.2125C272.474 24.3992 272.404 24.4925 272.021 24.2125C272.008 24.2125 271.999 24.2125 271.986 24.2125C271.568 24.2272 271.181 24.3795 270.864 24.6301C270.965 24.6891 271.084 24.7726 271.181 24.8365C271.066 24.807 270.904 24.7677 270.745 24.7333C270.525 24.9396 270.349 25.1951 270.239 25.4998C270.213 25.5735 270.204 25.6177 270.222 25.6177C272.246 25.3278 273.099 25.6177 274.358 26.0746C274.661 26.1827 274.974 25.9665 274.991 25.6373C275.009 25.3425 274.969 25.033 274.921 24.694L274.925 24.6989Z" fill="#42210B"/>
<path d="M273.389 28.2218C273.367 28.2218 273.345 28.2218 273.323 28.2119C273.191 28.1677 273.117 28.0154 273.152 27.868C273.209 27.642 273.015 27.3914 272.809 27.303C272.536 27.185 272.197 27.2342 271.898 27.2833L270.767 27.4504C270.631 27.47 270.507 27.3668 270.49 27.2145C270.472 27.0622 270.569 26.9246 270.701 26.905L271.832 26.7379C272.171 26.6888 272.593 26.6249 272.98 26.792C273.398 26.9689 273.763 27.4897 273.627 28.0252C273.596 28.1481 273.495 28.2267 273.389 28.2267V28.2218Z" fill="#281105"/>
<path d="M271.462 27.3423C271.44 27.3423 271.418 27.3423 271.392 27.3324C271.132 27.2489 270.855 26.8706 270.833 26.5659C270.824 26.4136 270.921 26.2908 271.057 26.2761C271.194 26.2515 271.313 26.3743 271.33 26.5217C271.339 26.6003 271.467 26.7772 271.533 26.8018C271.66 26.8509 271.735 27.0032 271.695 27.1506C271.66 27.2686 271.568 27.3472 271.462 27.3472V27.3423Z" fill="#281105"/>
<path d="M272.844 32.5455C272.672 32.3195 272.523 32.0689 272.325 31.8773C271.907 31.4793 271.229 31.7397 271.132 32.344V32.3538C271.005 33.2088 271.709 34.3929 272.356 34.9727C272.655 34.3094 272.866 33.764 273.2 32.9041C273.068 32.8059 272.945 32.6781 272.844 32.5406V32.5455Z" fill="#FBEDE1"/>
<path d="M267.854 75.8614C267.854 75.8614 260.04 54.5818 254.826 48.1846C249.612 41.7924 243.311 49.2459 245.093 56.5127C246.875 63.7795 255.565 90.911 262.429 88.8474C268.453 87.0343 270.296 83.8849 269.716 81.4331C269.135 78.9814 267.854 75.8565 267.854 75.8565V75.8614Z" fill="#DFFFF6"/>
<path d="M268.734 77.4583C268.638 77.4583 268.541 77.3944 268.506 77.2863C266.939 72.8938 262.02 61.1411 257.805 53.3584C257.734 53.2257 257.77 53.0586 257.888 52.98C258.007 52.9014 258.157 52.9407 258.227 53.0734C262.456 60.8807 267.392 72.6727 268.963 77.0799C269.012 77.2224 268.95 77.3846 268.827 77.4386C268.796 77.4533 268.765 77.4583 268.734 77.4583Z" fill="#FBEFE2"/>
<path d="M256.925 79.8265C256.881 79.8265 256.841 79.8167 256.802 79.7921C256.683 79.7135 256.643 79.5464 256.709 79.4138C258.865 75.2325 262.306 72.879 266.939 72.4123C267.071 72.4074 267.194 72.5105 267.208 72.6629C267.221 72.8152 267.12 72.9478 266.983 72.9626C262.46 73.4146 259.239 75.6158 257.14 79.6889C257.096 79.7774 257.013 79.8265 256.925 79.8265Z" fill="#FBEFE2"/>
<path d="M258.412 87.5159C258.355 87.5159 258.293 87.4913 258.249 87.4471C254.901 84.1207 251.649 76.7163 249.511 71.0906C249.458 70.9481 249.515 70.7859 249.643 70.727C249.766 70.668 249.916 70.7319 249.968 70.8744C252.085 76.4461 255.301 83.7719 258.579 87.0343C258.68 87.1375 258.689 87.3095 258.601 87.4225C258.553 87.4864 258.482 87.5159 258.416 87.5159H258.412Z" fill="#FBEFE2"/>
<path d="M289.929 78.2542C289.929 78.7406 289.463 79.2418 289.142 79.5661C288.059 80.6667 286.924 81.6149 286.092 82.0228C285.252 82.4355 283.954 82.3863 283.725 82.3372C283.725 82.3372 273.561 90.2673 266.156 91.3876C264.167 91.6873 262.192 90.7341 261.008 88.9211C260.242 87.7468 259.266 86.2187 258.342 84.6759C258.619 82.8678 260.212 79.625 261.708 78.1412C264.057 75.8123 266.671 76.225 266.671 76.225L268.356 79.6398C268.356 79.6398 274.529 78.0773 277.9 77.0308C280.073 76.3577 281.631 75.5372 281.631 75.5372C281.71 75.3062 282.022 74.5594 282.124 74.3481C282.933 72.6334 284.403 71.1839 285.798 70.0146C286.466 69.4544 286.185 69.7935 286.616 69.2579C286.616 69.2579 286.999 68.7911 287.298 69.3906C287.456 69.7099 287.351 70.5305 287.289 70.8351C287.338 70.8203 287.39 70.8056 287.443 70.7958C287.47 70.7909 287.496 70.781 287.522 70.7761C287.641 70.7467 287.764 70.7172 287.888 70.6877C288.099 70.6386 288.196 70.6189 288.49 70.6533C289.582 70.7761 289.203 72.6776 289.203 72.6776C289.203 72.6776 290.435 73.6013 289.454 75.2178C289.454 75.2178 289.881 75.547 290.039 76.0383C290.198 76.5346 289.709 77.4877 289.709 77.4877C289.709 77.4877 289.925 77.7727 289.925 78.2493L289.929 78.2542Z" fill="#E79064"/>
<path d="M287.932 74.1172C287.857 74.1172 287.786 74.0828 287.734 74.0091C287.65 73.8863 287.668 73.7143 287.778 73.6209L288.952 72.6088C289.058 72.5154 289.216 72.5351 289.3 72.6579C289.384 72.7808 289.366 72.9527 289.256 73.0461L288.081 74.0582C288.037 74.0975 287.984 74.1172 287.932 74.1172Z" fill="#281105"/>
<path d="M288.521 76.2201C288.446 76.2201 288.376 76.1857 288.323 76.112C288.24 75.9892 288.257 75.8172 288.367 75.7238L289.133 75.0605C289.238 74.9672 289.397 74.9868 289.48 75.1097C289.564 75.2325 289.546 75.4045 289.436 75.4978L288.671 76.1611C288.627 76.2004 288.574 76.2201 288.521 76.2201Z" fill="#281105"/>
<path d="M289.291 78.1197C289.225 78.1197 289.164 78.0903 289.115 78.0364C289.018 77.9285 289.023 77.752 289.115 77.6441L289.436 77.2911C289.533 77.1832 289.692 77.1881 289.788 77.2911C289.885 77.3989 289.881 77.5755 289.788 77.6833L289.467 78.0364C289.419 78.0903 289.357 78.1148 289.296 78.1148L289.291 78.1197Z" fill="#281105"/>
<path d="M286.088 71.3935C285.996 71.3935 285.912 71.3396 285.868 71.2415C285.806 71.1042 285.855 70.9375 285.978 70.8689C286.462 70.5992 287.25 70.5648 287.28 70.5648H287.289C287.421 70.5648 287.531 70.6825 287.536 70.8296C287.536 70.9816 287.434 71.1091 287.298 71.114C287.1 71.1238 286.524 71.1827 286.202 71.3592C286.167 71.3788 286.128 71.3886 286.092 71.3886L286.088 71.3935Z" fill="#281105"/>
<path d="M267.185 81.1089C267.137 81.1089 267.093 81.0941 267.053 81.0647C266.939 80.9811 266.904 80.8092 266.979 80.6814C267.199 80.2982 268.105 79.517 268.206 79.4285C268.316 79.3352 268.47 79.3597 268.554 79.4777C268.637 79.6005 268.615 79.7724 268.51 79.8658C268.149 80.1753 267.529 80.7551 267.397 80.9811C267.348 81.0647 267.269 81.1089 267.19 81.1089H267.185Z" fill="#281105"/>
</g>
</g>
<defs>
<clipPath id="clip0_647_29570">
<rect width="302" height="105" fill="white"/>
</clipPath>
</defs>
</svg>
