<svg xmlns="http://www.w3.org/2000/svg" width="77" height="81" viewBox="0 0 77 81" fill="none">
  <g clip-path="url(#clip0_992_4148)">
    <rect x="0.5" y="0.0649414" width="76" height="80.9351" rx="16" fill="#F7F7F9"/>
    <path d="M54.5361 24.8291C60.663 30.196 62.4309 39.4136 59.2176 44.3723C55.1991 50.5734 40.7502 55.4699 33.7909 44.7905C28.8312 37.1799 30.1761 30.1534 33.7909 25.6896C38.6284 19.7161 48.4092 19.4621 54.5361 24.8291ZM54.5361 24.8291L63.6849 12.4958M53.8119 13.538L64.9419 22.3364" stroke="#FF8898" stroke-width="5.95422" stroke-linecap="round" stroke-linejoin="round"/>
    <path fill-rule="evenodd" clip-rule="evenodd" d="M32.514 9.91743C34.3621 9.86759 35.989 11.5423 35.8463 13.4953C35.7081 15.3859 34.2807 17.4826 32.2976 18.543C30.3144 19.6034 28.4553 20.1452 25.8489 20.5178C23.9348 18.8662 22.5039 16.8062 21.6801 14.9308C20.8564 13.0555 20.7449 11.1979 21.8115 9.56989C22.9287 7.86444 25.3383 7.32853 26.8499 8.33676C28.0644 9.14683 28.7282 10.5744 28.6698 12.1178C29.5688 10.8051 31.0052 9.95813 32.514 9.91743Z" fill="#FFE2E6"/>
    <path fill-rule="evenodd" clip-rule="evenodd" d="M56.9234 57.1218C55.8429 57.0927 54.8917 58.0718 54.9752 59.2137C55.056 60.319 55.8905 61.5448 57.0499 62.1648C58.2094 62.7848 59.2963 63.1015 60.8202 63.3194C61.9392 62.3538 62.7759 61.1494 63.2575 60.053C63.7391 58.9565 63.8042 57.8705 63.1807 56.9187C62.5275 55.9216 61.1187 55.6082 60.2349 56.1977C59.5249 56.6713 59.1368 57.5059 59.1709 58.4083C58.6453 57.6408 57.8055 57.1456 56.9234 57.1218Z" fill="#FF8898"/>
    <path fill-rule="evenodd" clip-rule="evenodd" d="M29.9605 23.8631C33.0338 22.6065 36.5439 24.0792 37.8005 27.1524L38.0046 27.6516C39.2574 30.7155 38.6983 34.2728 36.3474 36.6031C33.2841 39.6396 30.5582 41.6417 26.3062 43.9532L26.3021 43.9135L16.549 37.1117C13.6671 35.1019 12.4404 31.4342 13.5216 28.0912C14.5456 24.9251 17.9459 23.1777 21.112 24.2017C23.1275 24.8535 24.741 26.2555 25.6887 28.0355C26.4963 26.1872 27.9988 24.6653 29.9605 23.8631Z" fill="#FF8898"/>
    <path d="M32.4804 23.2366C38.4816 24.2176 38.6718 29.1381 38.6718 29.1381" stroke="black" stroke-linecap="round"/>
    <path d="M58.1905 24.6623L59.7633 22.6398C59.9988 22.3369 60.4505 22.3185 60.7298 22.5816C62.1121 23.8836 64.5645 25.5445 66.3686 24.5557" stroke="black" stroke-linecap="round"/>
    <path d="M25.1811 45.5901C30.2814 40.4133 37.5174 40.8289 41.3838 43.3091C45.2501 45.7892 50.8047 53.6401 48.5032 60.2461C46.2018 66.8521 40.2342 72.5566 29.4739 67.822C18.7136 63.0874 18.0029 52.876 25.1811 45.5901ZM25.1811 45.5901L11.496 35.5136M11.496 35.5136L23.0647 33.4699M11.496 35.5136L12.821 47.9094" stroke="#FFE2E6" stroke-width="6.47879" stroke-linecap="round" stroke-linejoin="round"/>
    <path d="M29.4864 71.0337C26.2349 70.1856 20.7319 67.5927 18.8481 61.8923C17.1263 56.682 17.3686 52.255 20.8885 46.593C21.0852 46.2766 20.9988 45.8582 20.6935 45.6447C19.5956 44.8767 17.7912 43.5274 16.3965 42.4709C15.9298 42.1173 15.2624 42.4832 15.3117 43.0667L15.6078 46.5776C15.7767 47.7792 15.6143 50.6442 13.4373 51.0024C11.8484 51.2639 10.0614 50.6302 9.68729 47.0024C9.12479 41.5473 8.62475 37.6248 8.62475 37.6248" stroke="black" stroke-linecap="round"/>
    <path fill-rule="evenodd" clip-rule="evenodd" d="M39.7236 53.1225L40.6639 47.0893C42.6914 48.0434 44.9505 48.2624 47.2136 47.9607C51.5308 47.3853 55.2807 44.973 56.719 42.7535C57.6131 41.3736 59.4565 40.9799 60.8364 41.8741C62.2162 42.7682 62.6099 44.6117 61.7158 45.9915C59.1356 49.9731 53.6518 53.1095 48.0002 53.8628C45.2986 54.2229 42.4379 54.0507 39.7236 53.1225Z" fill="#FF8898"/>
    <path d="M32.0625 47.4399C35.5001 51.5024 42.0195 55.4748 50.9813 53.1164C59.943 50.7579 63.1739 43.5982 63.5625 40.0649" stroke="black" stroke-linecap="round"/>
    <path d="M27.1875 62.4375C33.1875 67.75 40.6875 68.1875 45 61" stroke="black" stroke-linecap="round"/>
    <path d="M45.1875 47.9399C42.4375 47.9399 40.4375 47.5024 38.375 45.5649" stroke="black" stroke-linecap="round"/>
  </g>
  <defs>
    <clipPath id="clip0_992_4148">
      <rect x="0.5" y="0.0649414" width="76" height="80.9351" rx="16" fill="white"/>
    </clipPath>
  </defs>
</svg>