<svg xmlns="http://www.w3.org/2000/svg" width="47" height="47" viewBox="0 0 47 47" fill="none">
  <g clip-path="url(#clip0_1008_4917)">
    <rect width="46.0205" height="46.0205" rx="23.0102" transform="matrix(-1 0 0 1 46.9889 0.553223)" fill="#FFE4B8"/>
    <path d="M14.7275 7.96496C19.123 5.38757 22.7884 7.55373 24.1703 8.90114C28.117 2.44328 38.9536 12.8467 38.5569 24.2915C38.2397 33.4473 30.9494 39.9811 27.3439 42.1035C21.9944 40.9729 10.5486 37.1319 7.56156 30.8132C3.82772 22.9149 9.43029 11.071 14.7275 7.96496Z" fill="#C1563C"/>
    <mask id="mask0_1008_4917" style="mask-type:alpha" maskUnits="userSpaceOnUse" x="11" y="10" width="23" height="33">
      <path d="M30.0031 11.1032C27.7066 10.4086 26.6535 11.6371 26.0874 12.7815C22.0652 9.57813 19.3375 12.6733 18.9786 16.8888C18.7069 20.081 16.6965 21.3468 15.3841 21.5808C13.9248 20.8161 11.0495 20.6273 11.1442 23.5517C11.2389 26.4761 14.4826 27.1006 16.4633 25.5847L18.6362 37.0185C21.1663 42.2291 25.7229 42.4644 27.6849 41.9307L23.732 30.8813C28.9276 32.0754 33.7029 27.0872 33.6773 21.0917C33.6518 15.0961 32.1815 11.762 30.0031 11.1032Z" fill="#D9D9D9"/>
    </mask>
    <g mask="url(#mask0_1008_4917)">
      <path d="M30.0031 11.1032C27.7066 10.4086 26.6535 11.6371 26.0874 12.7815C22.0652 9.57813 19.3375 12.6733 18.9786 16.8888C18.7069 20.081 16.6965 21.3468 15.3841 21.5808C13.9248 20.8161 11.0495 20.6273 11.1442 23.5517C11.2389 26.4761 14.4826 27.1006 16.4633 25.5847L18.6362 37.0185C21.1663 42.2291 25.7229 42.4644 27.6849 41.9307L23.732 30.8813C28.9276 32.0754 33.7029 27.0872 33.6773 21.0917C33.6518 15.0961 32.1815 11.762 30.0031 11.1032Z" fill="#FFD2C5"/>
      <g style="mix-blend-mode:multiply">
        <circle cx="20.1499" cy="22.3482" r="2.0592" transform="rotate(-8.37432 20.1499 22.3482)" fill="#FFC4C4"/>
      </g>
      <g style="mix-blend-mode:multiply">
        <circle cx="33.6843" cy="22.8047" r="2.0592" transform="rotate(-8.37432 33.6843 22.8047)" fill="#FFC4C4"/>
      </g>
    </g>
    <path d="M27.6401 19.1645C28.7024 20.559 30.1391 23.4982 27.387 24.0992" stroke="black" stroke-width="0.657435" stroke-linecap="round" stroke-linejoin="round"/>
    <path d="M23.4807 24.1846C23.616 25.1033 24.547 26.7701 27.189 26.0874" stroke="black" stroke-width="0.657435" stroke-linecap="round" stroke-linejoin="round"/>
    <path d="M13.3865 22.9771L15.1561 24.1858" stroke="black" stroke-width="0.657435" stroke-linecap="round" stroke-linejoin="round"/>
    <path d="M21.7385 17.3399C22.2495 16.6525 23.7318 15.5773 25.5733 16.7754" stroke="black" stroke-width="0.657435" stroke-linecap="round" stroke-linejoin="round"/>
    <path d="M28.6401 16.8134C29.117 16.1718 30.4318 15.1783 31.8757 16.337" stroke="black" stroke-width="0.657435" stroke-linecap="round" stroke-linejoin="round"/>
    <path d="M22.8638 19.9899C23.6145 19.2672 25.4789 18.6255 26.3075 20.0951" stroke="black" stroke-width="0.657435" stroke-linecap="round" stroke-linejoin="round"/>
    <path d="M29.4591 19.8764C30.2097 19.1537 31.6244 18.2843 32.6454 19.8971" stroke="black" stroke-width="0.657435" stroke-linecap="round" stroke-linejoin="round"/>
    <ellipse cx="25.0256" cy="20.4331" rx="0.726776" ry="0.847905" transform="rotate(32.6311 25.0256 20.4331)" fill="black"/>
    <ellipse cx="31.3627" cy="20.2349" rx="0.726776" ry="0.847905" transform="rotate(32.6311 31.3627 20.2349)" fill="black"/>
    <path d="M30.1727 33.9173C40.3629 34.6576 45.8973 49.013 35.7609 66.7898L38.6668 58.1481C35.3892 66.3797 22.4453 80.7211 14.6175 78.7482C4.19098 76.1203 1.59466 37.6907 14.7519 33.9173C16.1967 33.4584 21.4527 33.3969 23.7935 36.2003C25.3323 34.6596 27.3987 33.7158 30.1727 33.9173Z" fill="#BBB0FF"/>
    <path d="M14.6174 78.7484C4.19089 76.1205 1.59457 37.6909 14.7518 33.9175" stroke="black" stroke-width="0.657435"/>
  </g>
  <defs>
    <clipPath id="clip0_1008_4917">
      <rect width="46.0205" height="46.0205" rx="23.0102" transform="matrix(-1 0 0 1 46.9889 0.553223)" fill="white"/>
    </clipPath>
  </defs>
</svg>